<svg width="177" height="48" viewBox="0 0 177 48" fill="none" xmlns="http://www.w3.org/2000/svg">
<path d="M10.464 41.472C9.28 41.472 8.24 41.376 7.344 41.184C6.448 40.992 5.664 40.528 4.992 39.792C4.352 39.056 4.032 37.92 4.032 36.384C4.032 34.24 4.672 31.36 5.952 27.744C7.264 24.128 8.976 20.496 11.088 16.848C9.488 16.944 8.224 17.184 7.296 17.568C6.368 17.952 5.76 18.544 5.472 19.344C5.6 19.344 5.728 19.504 5.856 19.824C6.016 20.144 6.096 20.48 6.096 20.832C6.096 21.408 5.84 21.872 5.328 22.224C4.816 22.544 4.176 22.704 3.408 22.704C2.512 22.704 1.792 22.464 1.248 21.984C0.704 21.504 0.432 20.816 0.432 19.92C0.432 18.832 0.848 17.84 1.68 16.944C2.544 16.048 3.728 15.344 5.232 14.832C6.736 14.288 8.4 14.016 10.224 14.016C10.896 14.016 11.728 14.064 12.72 14.16C15.344 10 18.112 6.608 21.024 3.984C23.968 1.328 26.768 -2.86102e-06 29.424 -2.86102e-06C30.96 -2.86102e-06 32.224 0.223997 33.216 0.671997L25.68 36H18.768L22.464 18.576C21.28 18.032 20.192 17.632 19.2 17.376C18.208 17.12 17.152 16.944 16.032 16.848C14.208 20.784 12.704 24.816 11.52 28.944C10.368 33.04 9.792 36.32 9.792 38.784C9.792 40 10.016 40.896 10.464 41.472ZM25.68 3.408C24.304 4.144 22.864 5.52 21.36 7.536C19.888 9.52 18.448 11.936 17.04 14.784C19.344 15.232 21.296 15.792 22.896 16.464L25.68 3.408ZM39.6945 9.36C38.6385 9.36 37.7425 8.992 37.0065 8.256C36.2705 7.52 35.9025 6.624 35.9025 5.568C35.9025 4.512 36.2705 3.616 37.0065 2.88C37.7425 2.112 38.6385 1.728 39.6945 1.728C40.7505 1.728 41.6465 2.112 42.3825 2.88C43.1505 3.616 43.5345 4.512 43.5345 5.568C43.5345 6.624 43.1505 7.52 42.3825 8.256C41.6465 8.992 40.7505 9.36 39.6945 9.36ZM27.7425 48C26.2065 48 24.9265 47.6 23.9025 46.8C22.8785 46 22.3665 44.848 22.3665 43.344C22.3665 40.24 24.9905 37.856 30.2385 36.192L35.3745 12H42.2865L37.5345 34.272C39.0705 33.76 40.3025 32.992 41.2305 31.968C42.1585 30.944 42.9425 29.424 43.5825 27.408H45.5985C44.7345 30.256 43.5665 32.352 42.0945 33.696C40.6225 35.008 38.9585 35.904 37.1025 36.384L36.3825 39.84C35.7425 42.944 34.6385 45.072 33.0705 46.224C31.5025 47.408 29.7265 48 27.7425 48ZM26.6385 44.256C27.1825 44.256 27.7105 43.888 28.2225 43.152C28.7345 42.416 29.1345 41.36 29.4225 39.984L29.7105 38.592C26.5745 39.744 25.0065 41.104 25.0065 42.672C25.0065 43.088 25.1505 43.456 25.4385 43.776C25.7265 44.096 26.1265 44.256 26.6385 44.256ZM48.3458 36.288C46.8098 36.288 45.5618 35.808 44.6018 34.848C43.6738 33.888 43.2097 32.448 43.2097 30.528C43.2097 29.728 43.3377 28.688 43.5938 27.408L46.8578 12H53.7698L50.3138 28.32C50.2178 28.8 50.1698 29.248 50.1698 29.664C50.1698 30.976 50.6498 31.632 51.6098 31.632C52.5058 31.632 53.2738 31.264 53.9138 30.528C54.5538 29.76 55.0658 28.72 55.4498 27.408L58.7138 12H65.6258L62.1698 28.32C62.0418 28.8 61.9778 29.312 61.9778 29.856C61.9778 30.496 62.1218 30.96 62.4098 31.248C62.7298 31.504 63.2418 31.632 63.9458 31.632C64.8418 31.632 65.6098 31.248 66.2498 30.48C66.9218 29.712 67.4498 28.688 67.8337 27.408H69.8498C68.6658 30.864 67.1938 33.216 65.4338 34.464C63.7058 35.68 61.9618 36.288 60.2018 36.288C58.8258 36.288 57.7218 35.904 56.8898 35.136C56.0898 34.368 55.6098 33.232 55.4498 31.728C54.3618 33.488 53.2098 34.688 51.9938 35.328C50.8098 35.968 49.5938 36.288 48.3458 36.288ZM73.5881 36.288C71.7641 36.288 70.2441 35.664 69.0281 34.416C67.8121 33.168 67.2041 31.216 67.2041 28.56C67.2041 26.192 67.6681 23.712 68.5961 21.12C69.5561 18.496 70.9641 16.288 72.8201 14.496C74.7081 12.672 76.9481 11.76 79.5401 11.76C80.8521 11.76 81.8281 11.984 82.4681 12.432C83.1081 12.88 83.4281 13.472 83.4281 14.208V14.4L85.7801 3.36L92.8841 2.4L87.3641 28.32C87.2361 28.8 87.1721 29.312 87.1721 29.856C87.1721 30.496 87.3161 30.96 87.6041 31.248C87.9241 31.504 88.4361 31.632 89.1401 31.632C90.0361 31.632 90.8041 31.248 91.4441 30.48C92.1161 29.712 92.6441 28.688 93.0281 27.408H95.0441C93.0921 33.136 89.8761 36 85.3961 36C84.0841 36 83.0121 35.648 82.1801 34.944C81.3801 34.24 80.8841 33.216 80.6921 31.872C79.8601 33.152 78.8521 34.208 77.6681 35.04C76.5161 35.872 75.1561 36.288 73.5881 36.288ZM76.7081 31.632C77.4761 31.632 78.2441 31.28 79.0121 30.576C79.8121 29.872 80.3561 28.896 80.6441 27.648V27.408L82.9961 16.416C82.7081 15.296 82.0521 14.736 81.0281 14.736C79.7481 14.736 78.5961 15.488 77.5721 16.992C76.5481 18.464 75.7481 20.256 75.1721 22.368C74.5961 24.448 74.3081 26.288 74.3081 27.888C74.3081 29.488 74.5321 30.512 74.9801 30.96C75.4601 31.408 76.0361 31.632 76.7081 31.632ZM99.8149 36.288C97.4789 36.288 95.6549 35.68 94.3429 34.464C93.0309 33.216 92.3749 31.28 92.3749 28.656C92.3749 26.448 92.8069 24.016 93.6709 21.36C94.5349 18.704 95.9429 16.416 97.8949 14.496C99.8469 12.544 102.327 11.568 105.335 11.568C108.855 11.568 110.615 13.104 110.615 16.176C110.615 17.968 110.103 19.616 109.079 21.12C108.055 22.624 106.695 23.84 104.999 24.768C103.303 25.664 101.495 26.176 99.5749 26.304C99.5109 27.008 99.4789 27.488 99.4789 27.744C99.4789 30.4 100.471 31.728 102.455 31.728C103.351 31.728 104.311 31.488 105.335 31.008C106.359 30.528 107.287 29.92 108.119 29.184C107.255 33.92 104.487 36.288 99.8149 36.288ZM99.9109 24C101.127 23.968 102.263 23.568 103.319 22.8C104.407 22.032 105.271 21.056 105.911 19.872C106.583 18.656 106.919 17.392 106.919 16.08C106.919 14.768 106.519 14.112 105.719 14.112C104.599 14.112 103.479 15.136 102.359 17.184C101.271 19.2 100.455 21.472 99.9109 24ZM115.905 36.192C114.849 36.192 113.953 35.824 113.217 35.088C112.481 34.352 112.113 33.456 112.113 32.4C112.113 31.344 112.481 30.448 113.217 29.712C113.953 28.944 114.849 28.56 115.905 28.56C116.961 28.56 117.857 28.944 118.593 29.712C119.361 30.448 119.745 31.344 119.745 32.4C119.745 33.456 119.361 34.352 118.593 35.088C117.857 35.824 116.961 36.192 115.905 36.192Z" fill="#FEFEFE"/>
<path d="M152.418 36.288C150.466 36.288 149.026 35.776 148.098 34.752C147.202 33.696 146.754 32.4 146.754 30.864C146.754 30.192 146.834 29.44 146.994 28.608C147.154 27.744 147.314 26.912 147.474 26.112C147.666 25.312 147.794 24.8 147.858 24.576C148.114 23.456 148.354 22.352 148.578 21.264C148.802 20.176 148.914 19.296 148.914 18.624C148.914 16.992 148.338 16.176 147.186 16.176C146.354 16.176 145.618 16.592 144.978 17.424C144.338 18.224 143.826 19.28 143.442 20.592L140.178 36H133.266L136.77 19.44C136.866 19.056 136.914 18.656 136.914 18.24C136.914 16.832 136.434 16.128 135.474 16.128C134.578 16.128 133.794 16.544 133.122 17.376C132.482 18.176 131.97 19.248 131.586 20.592L128.322 36H121.41L126.498 12H133.41L132.882 14.496C134.514 12.672 136.466 11.76 138.738 11.76C141.554 11.76 143.202 13.136 143.682 15.888C145.442 13.168 147.666 11.808 150.354 11.808C151.986 11.808 153.282 12.256 154.242 13.152C155.202 14.048 155.682 15.408 155.682 17.232C155.682 18.16 155.57 19.2 155.346 20.352C155.122 21.472 154.802 22.848 154.386 24.48C154.13 25.472 153.89 26.448 153.666 27.408C153.474 28.336 153.378 29.072 153.378 29.616C153.378 30.256 153.522 30.752 153.81 31.104C154.098 31.456 154.594 31.632 155.298 31.632C156.258 31.632 157.026 31.296 157.602 30.624C158.178 29.92 158.754 28.848 159.33 27.408H161.346C160.162 30.928 158.786 33.296 157.218 34.512C155.682 35.696 154.082 36.288 152.418 36.288ZM166.096 36.288C163.76 36.288 161.936 35.68 160.624 34.464C159.312 33.216 158.656 31.28 158.656 28.656C158.656 26.448 159.088 24.016 159.952 21.36C160.816 18.704 162.224 16.416 164.176 14.496C166.128 12.544 168.608 11.568 171.616 11.568C175.136 11.568 176.896 13.104 176.896 16.176C176.896 17.968 176.384 19.616 175.36 21.12C174.336 22.624 172.976 23.84 171.28 24.768C169.584 25.664 167.776 26.176 165.856 26.304C165.792 27.008 165.76 27.488 165.76 27.744C165.76 30.4 166.752 31.728 168.736 31.728C169.632 31.728 170.592 31.488 171.616 31.008C172.64 30.528 173.568 29.92 174.4 29.184C173.536 33.92 170.768 36.288 166.096 36.288ZM166.192 24C167.408 23.968 168.544 23.568 169.6 22.8C170.688 22.032 171.552 21.056 172.192 19.872C172.864 18.656 173.2 17.392 173.2 16.08C173.2 14.768 172.8 14.112 172 14.112C170.88 14.112 169.76 15.136 168.64 17.184C167.552 19.2 166.736 21.472 166.192 24Z" fill="#D55B3E"/>
</svg>
