<svg width="576" height="675" viewBox="0 0 576 675" fill="none" xmlns="http://www.w3.org/2000/svg">
<path d="M196.812 171.468L235.51 121.658C248.527 107.559 265.319 99.7753 282.712 99.7777H332.102C339.144 99.7769 345.993 102.594 351.602 107.799L375.654 130.107C380.876 134.958 387.254 137.586 393.813 137.59H442.847C449.54 137.59 456.11 139.782 461.875 143.938C467.64 148.093 472.388 154.061 475.626 161.219L513.822 245.639C516.59 251.756 520.648 256.856 525.574 260.408C530.501 263.959 536.116 265.833 541.836 265.833H554.106C563.497 265.833 568.684 279.157 562.76 288.069L511.443 365.276C509.435 368.297 508.084 371.888 507.513 375.716C506.942 379.545 507.17 383.488 508.177 387.18L517.645 421.878C519.756 429.616 519.539 438.022 517.033 445.582C514.527 453.142 509.896 459.362 503.973 463.122L491.869 470.801C486.719 474.064 482.699 479.479 480.542 486.06L466.631 528.573C461.892 543.059 453.709 555.478 443.138 564.224C432.567 572.971 420.094 577.645 407.328 577.642H401.31C398.151 577.641 395.056 576.563 392.372 574.527C389.689 572.491 387.524 569.58 386.122 566.121L347.235 470.238C344.968 464.651 343.93 458.439 344.224 452.213C344.518 445.988 346.133 439.963 348.911 434.732L351.579 429.711C355.393 422.528 357.084 413.968 356.371 405.449C355.659 396.931 352.585 388.966 347.66 382.876L329.874 360.893C327.228 356.535 325.672 351.333 325.395 345.917C325.118 340.5 326.131 335.102 328.311 330.375L333.163 319.862C333.868 318.336 334.234 316.611 334.223 314.858C334.213 313.105 333.827 311.387 333.104 309.873C332.381 308.359 331.347 307.103 330.103 306.23C328.86 305.357 327.451 304.897 326.017 304.896H246.032C211.137 304.896 182.849 270.305 182.849 227.639V214.216C182.85 198.306 187.848 183.005 196.812 171.468Z" fill="#EDE0C4"/>
<path d="M560.2 437.347L560.264 437.508C561.27 440.01 561.849 442.737 561.963 445.522C562.077 448.307 561.725 451.091 560.929 453.704L544.052 509.048C543.316 511.462 541.994 513.543 540.262 515.012C538.531 516.481 536.474 517.269 534.366 517.269C531.626 517.269 528.997 515.939 527.06 513.57C525.122 511.202 524.033 507.99 524.033 504.64V460.453C524.032 458.022 524.501 455.625 525.402 453.458C526.303 451.29 527.61 449.414 529.217 447.981L545.965 433.05C547.094 432.044 548.39 431.352 549.761 431.023C551.132 430.694 552.545 430.736 553.902 431.146C555.258 431.555 556.525 432.322 557.613 433.394C558.701 434.465 559.584 435.815 560.2 437.347Z" fill="#EDE0C4"/>
<path d="M473.223 352.586H562.025V361.188C562.025 368.314 560.876 375.371 558.645 381.954C556.414 388.538 553.143 394.52 549.02 399.559C544.897 404.598 540.003 408.595 534.616 411.322C529.229 414.05 523.455 415.453 517.624 415.453C511.793 415.453 506.019 414.049 500.632 411.322C495.245 408.595 490.35 404.597 486.227 399.558C482.104 394.519 478.834 388.536 476.602 381.952C474.371 375.368 473.223 368.311 473.223 361.185V352.586Z" fill="#A0D6FF"/>
<path d="M517.612 361.142C542.134 361.142 562.013 357.311 562.013 352.586C562.013 347.861 542.134 344.03 517.612 344.03C493.091 344.03 473.212 347.861 473.212 352.586C473.212 357.311 493.091 361.142 517.612 361.142Z" fill="#56303C"/>
<path d="M599.09 463.311L556.374 476.082L549.14 422.181C540.524 421.971 536.92 415.692 535.92 409.787L529.071 369.416C529.04 369.23 529.043 369.037 529.079 368.852C529.116 368.667 529.185 368.494 529.283 368.345C529.38 368.197 529.503 368.076 529.643 367.992C529.783 367.908 529.936 367.863 530.092 367.859L532.526 367.813C533.755 367.789 534.966 368.174 536.03 368.928C537.093 369.681 537.968 370.774 538.562 372.089L543.09 382.149L547.551 365.247C547.713 364.633 547.752 363.981 547.664 363.345C547.576 362.709 547.363 362.109 547.045 361.595C546.726 361.081 546.311 360.668 545.834 360.392C545.358 360.116 544.833 359.984 544.306 360.009L535.769 360.397L539.851 352.365C540.555 350.977 541.538 349.831 542.706 349.036C543.874 348.242 545.188 347.825 546.525 347.825L556.771 348.271L555.231 333.682C555.207 333.451 555.195 333.219 555.196 332.987C555.197 331.718 555.563 330.491 556.23 329.519C556.897 328.547 557.822 327.893 558.844 327.67C559.026 327.628 559.214 327.667 559.375 327.781C559.535 327.894 559.657 328.073 559.719 328.287L569.518 362.368L599.09 463.311Z" fill="#B4702F"/>
<path d="M529.745 370.489C530.129 370.379 530.527 370.364 530.917 370.445C531.306 370.526 531.677 370.701 532.01 370.961C532.342 371.221 532.629 371.56 532.852 371.957C533.076 372.355 533.232 372.803 533.311 373.276C533.39 373.748 533.391 374.236 533.313 374.708C533.236 375.181 533.081 375.63 532.859 376.029C532.637 376.428 532.352 376.768 532.02 377.03C531.689 377.291 531.317 377.469 530.929 377.552" stroke="#56303C" stroke-width="4.87" stroke-miterlimit="10" stroke-linecap="round"/>
<path d="M543.426 382.149L547.674 392.829" stroke="#56303C" stroke-width="5.95" stroke-miterlimit="10" stroke-linecap="round"/>
<path d="M559.03 328.504C557.864 329.056 557.237 330.567 557.648 331.879C558.06 333.19 559.348 333.803 560.523 333.251" stroke="#56303C" stroke-width="4.87" stroke-miterlimit="10" stroke-linecap="round"/>
<path d="M564.253 355.807C563.153 351.25 559.896 348.449 556.027 348.007L545.239 347.048" stroke="#56303C" stroke-width="5.95" stroke-miterlimit="10" stroke-linecap="round"/>
<path d="M600.326 466.251L606.306 485.59L555.873 486.538L555.188 481.634L548.178 484.022L547.49 460.745L602.23 451.523L606.306 464.212L600.326 466.251Z" fill="#FFAFB1"/>
<path d="M580.747 472.925L555.188 481.634L555.87 486.534L580.747 472.925Z" fill="#56303C"/>
<path d="M483.367 381.041L483.323 381.368C482.341 385.089 464.683 388.2 440.754 389.208C435.444 389.433 429.823 389.564 424.009 389.564C421.394 389.564 418.822 389.541 416.291 389.493C387.894 388.966 365.796 385.573 364.682 381.383L364.639 381.055C364.639 376.355 391.213 372.545 423.994 372.545C456.776 372.545 483.367 376.34 483.367 381.041Z" fill="#56303C"/>
<path d="M397.438 384.397C399.336 384.397 400.875 382.516 400.875 380.196C400.875 377.876 399.336 375.995 397.438 375.995C395.539 375.995 394 377.876 394 380.196C394 382.516 395.539 384.397 397.438 384.397Z" fill="white"/>
<path d="M441.649 390.298C436.339 390.523 430.718 390.655 424.904 390.655C422.28 390.655 419.711 390.63 417.186 390.583C417.635 383.506 422.944 377.919 429.432 377.919C435.826 377.908 441.083 383.353 441.649 390.298Z" fill="white"/>
<path d="M454.697 400.497C458.982 400.497 462.456 396.592 462.456 391.774C462.456 386.956 458.982 383.05 454.697 383.05C450.412 383.05 446.938 386.956 446.938 391.774C446.938 396.592 450.412 400.497 454.697 400.497Z" fill="white"/>
<path d="M483.323 381.368L481.227 397.048C479.01 413.64 472.037 428.729 461.555 439.617C451.073 450.505 437.765 456.483 424.009 456.483C410.252 456.483 396.944 450.505 386.462 439.617C375.98 428.729 369.008 413.64 366.79 397.048L364.697 381.368C365.796 385.545 387.894 388.951 416.305 389.479C418.832 389.524 421.405 389.548 424.023 389.55C429.837 389.55 435.459 389.429 440.768 389.194C464.683 388.2 482.341 385.089 483.323 381.368Z" fill="#D9AF00"/>
<path d="M361.032 503.421V461.665C361.032 449.197 365.042 437.23 372.196 428.342L401.039 392.511C401.209 392.299 401.415 392.134 401.642 392.027C401.87 391.921 402.113 391.876 402.356 391.895C402.599 391.914 402.836 391.996 403.05 392.137C403.264 392.278 403.452 392.474 403.599 392.711L403.712 392.893C404.495 394.157 404.989 395.653 405.142 397.227C405.296 398.801 405.104 400.397 404.587 401.851L400.913 413.939C400.675 414.72 400.616 415.566 400.744 416.384C400.872 417.203 401.181 417.964 401.638 418.583C402.094 419.202 402.681 419.656 403.334 419.896C403.987 420.136 404.682 420.152 405.342 419.943L451.6 405.251C452.303 404.98 453.064 405.046 453.729 405.433C454.395 405.82 454.915 406.501 455.187 407.339L455.213 407.417C455.499 408.291 455.499 409.266 455.213 410.14C454.928 411.014 454.379 411.721 453.679 412.114C449.711 414.338 442.573 418.35 442.573 418.35L459.193 411.644C460.003 411.321 460.885 411.394 461.652 411.848C462.42 412.302 463.014 413.101 463.31 414.078L463.339 414.17C463.641 415.164 463.621 416.261 463.283 417.237C462.945 418.213 462.314 418.994 461.52 419.419C456.248 422.242 445.684 427.918 445.518 428.007L457.881 423.336C458.584 423.07 459.344 423.137 460.009 423.522C460.675 423.907 461.198 424.583 461.476 425.417L461.499 425.495C461.782 426.331 461.804 427.265 461.56 428.119C461.317 428.973 460.825 429.688 460.178 430.128L440.809 443.313C440.668 443.411 440.56 443.565 440.501 443.749C440.441 443.933 440.436 444.137 440.485 444.325C440.533 444.514 440.634 444.677 440.768 444.786C440.903 444.895 441.065 444.945 441.226 444.927L456.038 443.095C458.388 442.803 459.169 446.833 456.962 447.863L404.998 472.095C404.267 472.435 403.655 473.075 403.266 473.904C402.878 474.734 402.737 475.703 402.867 476.645L406.272 501.397L361.032 503.421Z" fill="#B4702F"/>
<path d="M445.588 417.192L432.625 422.145" stroke="#56303C" stroke-width="5.95" stroke-miterlimit="10" stroke-linecap="round"/>
<path d="M446.944 427.476L436.243 431.567" stroke="#56303C" stroke-width="5.95" stroke-miterlimit="10" stroke-linecap="round"/>
<path d="M454.074 410.156C454.768 409.307 454.768 407.931 454.074 407.082C453.379 406.233 452.253 406.233 451.558 407.082C450.864 407.931 450.864 409.307 451.558 410.156C452.253 411.005 453.379 411.005 454.074 410.156Z" stroke="#56303C" stroke-width="4.87" stroke-miterlimit="10" stroke-linecap="round"/>
<path d="M461.035 427.236C461.26 426.067 460.668 424.897 459.712 424.621C458.756 424.345 457.798 425.069 457.573 426.237C457.347 427.405 457.939 428.576 458.895 428.852C459.851 429.128 460.809 428.404 461.035 427.236Z" stroke="#56303C" stroke-width="4.87" stroke-miterlimit="10" stroke-linecap="round"/>
<path d="M457.712 445.904C457.887 444.994 457.426 444.082 456.682 443.867C455.938 443.653 455.192 444.216 455.016 445.126C454.84 446.036 455.301 446.947 456.046 447.162C456.79 447.377 457.536 446.813 457.712 445.904Z" stroke="#56303C" stroke-width="4.33" stroke-miterlimit="10" stroke-linecap="round"/>
<path d="M462.79 415.844C463.054 414.48 462.363 413.114 461.247 412.792C460.131 412.47 459.013 413.315 458.749 414.679C458.486 416.042 459.177 417.409 460.293 417.731C461.409 418.053 462.527 417.208 462.79 415.844Z" stroke="#56303C" stroke-width="4.87" stroke-miterlimit="10" stroke-linecap="round"/>
<path d="M401.843 392.415C402.383 393.155 402.677 394.113 402.671 395.104C402.664 396.095 402.356 397.047 401.806 397.776C401.257 398.504 400.505 398.957 399.698 399.045C398.89 399.134 398.085 398.853 397.438 398.256" stroke="#56303C" stroke-width="4.87" stroke-miterlimit="10" stroke-linecap="round"/>
<path d="M418.991 545.043C418.991 550.577 405.75 555.067 389.419 555.067C377.491 555.067 367.21 552.672 362.536 549.223C360.81 547.951 359.848 546.536 359.848 545.043V510.121H352.944L356.565 486.431L411.503 495.382L414.643 510.121H409.952L418.839 543.974L418.93 544.33C418.951 544.428 418.967 544.526 418.979 544.626C418.991 544.765 418.995 544.904 418.991 545.043Z" fill="#A0D6FF"/>
<path d="M409.946 510.114H370.272L411.544 516.2L409.946 510.114Z" fill="#56303C"/>
<path d="M340.03 330.279C340.035 330.343 340.035 330.407 340.03 330.471C339.377 334.223 319.695 337.242 295.509 337.242C271.323 337.242 251.642 334.23 250.992 330.471C250.98 330.408 250.975 330.343 250.975 330.279C250.973 330.261 250.973 330.243 250.975 330.225C250.972 330.21 250.972 330.194 250.975 330.179C251.316 326.384 271.122 323.323 295.504 323.323C319.885 323.323 339.691 326.384 340.036 330.179C340.037 330.194 340.037 330.21 340.036 330.225L340.03 330.279Z" fill="#56303C"/>
<path d="M291.255 337.637C294.113 343.966 292.392 351.795 287.398 354.963C282.75 357.91 276.834 355.676 273.985 349.86C271.63 345.06 271.988 339.294 274.464 335.346C274.852 334.701 275.078 333.932 275.116 333.132C275.154 332.333 275.001 331.537 274.676 330.842L251.004 278.398C250.499 277.282 250.744 275.864 251.587 275.262C251.803 275.119 252.04 275.03 252.284 275.001C252.529 274.972 252.775 275.002 253.01 275.091C253.245 275.179 253.462 275.324 253.651 275.517C253.839 275.71 253.994 275.946 254.106 276.213L277.785 328.668C278.09 329.378 278.559 329.963 279.134 330.352C279.709 330.74 280.364 330.914 281.018 330.852C285.001 330.336 289.109 332.88 291.255 337.637Z" fill="#D9AF00"/>
<path d="M340.015 330.471L339.391 338.974C337.764 367.125 329.186 388.973 295.489 388.973C256.841 388.973 253.211 367.139 251.587 338.974L250.972 330.471C251.622 334.223 271.303 337.242 295.489 337.242C319.675 337.242 339.362 334.223 340.015 330.471Z" fill="#FFAFB1"/>
<path d="M305.009 407.05V466.693C305.009 473.082 296.026 480.098 284.809 482.44C273.878 484.717 264.818 481.727 264.057 475.715L267.556 415.585L244.84 394.008C243.468 392.466 242.41 390.552 241.752 388.42C241.093 386.288 240.853 383.998 241.049 381.732C242.236 367.995 244.741 343.959 245.423 336.158C245.445 335.918 245.509 335.686 245.612 335.478C245.714 335.271 245.852 335.094 246.017 334.958C246.181 334.823 246.367 334.732 246.563 334.693C246.758 334.654 246.958 334.668 247.149 334.733L247.24 334.765C248.844 335.31 250.281 336.42 251.372 337.957C252.464 339.494 253.161 341.389 253.377 343.406L256.348 366.277C256.489 367.578 257.027 368.766 257.856 369.602L260.547 372.306C260.115 371.817 259.77 371.223 259.534 370.562C259.298 369.902 259.176 369.189 259.177 368.469V365.732C259.176 365.398 259.244 365.069 259.373 364.776C259.503 364.482 259.69 364.232 259.918 364.049C260.147 363.866 260.409 363.755 260.681 363.726C260.953 363.698 261.227 363.753 261.477 363.886L289.961 378.999C294.433 381.374 298.239 385.294 300.913 390.278C303.586 395.261 305.01 401.091 305.009 407.05Z" fill="#B4702F"/>
<path d="M259.838 372.524L276.642 388.442" stroke="#56303C" stroke-width="5.95" stroke-miterlimit="10" stroke-linecap="round"/>
<path d="M245.913 336.75C246.316 336.789 246.708 336.927 247.066 337.155C247.425 337.382 247.742 337.696 247.999 338.076C248.257 338.456 248.45 338.896 248.566 339.369C248.682 339.842 248.719 340.338 248.675 340.829C248.632 341.32 248.508 341.795 248.311 342.226C248.115 342.658 247.849 343.037 247.531 343.34C247.212 343.644 246.847 343.867 246.457 343.995C246.067 344.123 245.66 344.155 245.26 344.087" stroke="#56303C" stroke-width="4.87" stroke-miterlimit="10" stroke-linecap="round"/>
<path d="M267.416 367.649C267.248 368.134 267.003 368.574 266.695 368.943C266.388 369.312 266.024 369.604 265.624 369.801C265.224 369.999 264.797 370.098 264.366 370.093C263.934 370.089 263.508 369.98 263.111 369.775C262.714 369.569 262.355 369.269 262.052 368.893C261.75 368.517 261.512 368.073 261.35 367.584C261.189 367.095 261.107 366.573 261.111 366.046C261.115 365.519 261.204 364.998 261.372 364.513" stroke="#56303C" stroke-width="4.87" stroke-miterlimit="10" stroke-linecap="round"/>
<path d="M307.61 484.991L307.668 486.773C306.697 492.524 294.227 494.449 281.12 491.152C268.291 487.924 258.241 480.74 258.713 475.042L258.76 474.685L262.291 446.178L256.853 444.863L261.115 432.326L309.887 442.304L311.109 457.983L306.671 456.914L307.61 484.991Z" fill="#D9AF00"/>
<path d="M306.665 456.886L285.584 451.786L306.904 464.041L306.665 456.886Z" fill="#56303C"/>
<path d="M469.9 269.596L406.141 88.8521" stroke="#56303C" stroke-width="7.27" stroke-miterlimit="10" stroke-linecap="round"/>
<path d="M477.253 287.602C477.252 296.057 474.863 304.251 470.489 310.802C466.116 317.352 460.026 321.856 453.249 323.553C446.472 325.25 439.424 324.036 433.295 320.116C427.166 316.196 422.333 309.81 419.611 302.037C416.889 294.265 416.446 285.582 418.357 277.457C420.268 269.332 424.416 262.262 430.099 257.442C435.782 252.622 442.653 250.347 449.55 251.003C456.446 251.659 462.947 255.204 467.952 261.04C470.892 264.468 473.232 268.59 474.831 273.155C476.429 277.721 477.253 282.636 477.253 287.602Z" fill="#A0D6FF"/>
<path d="M449.778 299.829C438.252 306.45 426.064 306.018 418.842 299.69C416.611 291.906 416.59 283.431 418.782 275.631C420.974 267.831 425.252 261.161 430.926 256.696C436.599 252.23 443.338 250.231 450.055 251.019C456.772 251.807 463.077 255.337 467.952 261.04C467.987 261.129 468.022 261.215 468.054 261.304C472.932 273.972 464.747 291.223 449.778 299.829Z" fill="#56303C"/>
<path d="M405.042 305.584C405.041 300.68 406.087 295.86 408.077 291.601C410.066 287.343 412.93 283.792 416.386 281.299C419.841 278.806 423.769 277.459 427.781 277.389C431.793 277.318 435.751 278.529 439.264 280.899L453.186 294.772C449.326 299.244 441.156 300.662 437.75 302.409C434.601 304.023 432.56 308.791 432.56 312.964V389.037C430.382 389.037 428.233 389.568 426.117 389.532C418.577 389.39 411.462 389.532 405.045 389.051L405.042 305.584Z" fill="white"/>
<path d="M401.438 314.054V340.349" stroke="white" stroke-width="4.91" stroke-miterlimit="10" stroke-linecap="round"/>
<path d="M571.128 152.275L465.715 112.809C461.64 111.287 457.349 110.828 453.119 111.462L409.692 118.001C409.12 118.087 408.577 118.356 408.117 118.78C407.657 119.204 407.297 119.77 407.073 120.419C406.849 121.067 406.77 121.777 406.842 122.476C406.914 123.175 407.136 123.838 407.485 124.398C408.756 126.439 410.366 128.127 412.211 129.35C414.055 130.573 416.09 131.303 418.183 131.493L439.287 133.406C439.486 133.414 439.676 133.504 439.827 133.662C439.978 133.82 440.081 134.035 440.118 134.274C440.156 134.513 440.126 134.759 440.033 134.974C439.94 135.189 439.79 135.359 439.608 135.455L414.477 150.422L415.818 144.086C415.996 143.244 416.014 142.363 415.871 141.51C415.727 140.658 415.426 139.857 414.99 139.17C414.554 138.482 413.995 137.925 413.356 137.542C412.716 137.159 412.014 136.959 411.302 136.959C410.468 136.959 409.649 137.225 408.925 137.729C408.2 138.233 407.596 138.959 407.17 139.835L399.852 154.905C398.679 157.319 398.246 160.164 398.631 162.932C399.015 165.701 400.192 168.212 401.951 170.018L433.062 201.957C435.909 204.879 439.368 206.768 443.049 207.408C446.729 208.049 450.482 207.416 453.883 205.581L485.665 188.427L554.797 235.618C554.797 235.618 584.803 201.016 571.128 152.275Z" fill="#B4702F"/>
<path d="M415.291 150.914L410.879 172.188C410.194 175.826 410.453 177.754 412.792 180.156" stroke="#56303C" stroke-width="6.15" stroke-miterlimit="10" stroke-linecap="round"/>
<path d="M412.792 180.156C412.083 179.429 411.52 178.514 411.144 177.481C410.768 176.447 410.589 175.323 410.622 174.193C410.655 173.063 410.897 171.957 411.332 170.959C411.767 169.96 412.381 169.096 413.13 168.432L433.989 149.902C434.613 149.348 435.358 149.036 436.128 149.005C436.899 148.975 437.659 149.228 438.31 149.731V149.731C438.757 150.077 439.141 150.531 439.437 151.066C439.734 151.601 439.937 152.205 440.034 152.841C440.131 153.476 440.12 154.129 440.002 154.759C439.883 155.388 439.66 155.982 439.345 156.501L434.972 163.657" stroke="#56303C" stroke-width="6.15" stroke-miterlimit="10" stroke-linecap="round"/>
<path d="M423.414 191.057C422.67 190.293 422.064 189.35 421.634 188.286C421.204 187.222 420.959 186.06 420.915 184.874C420.871 183.689 421.029 182.505 421.379 181.398C421.729 180.29 422.263 179.284 422.947 178.442L441.523 155.589C442.242 154.704 443.191 154.154 444.206 154.033C445.222 153.913 446.239 154.23 447.084 154.93V154.93C448.015 155.699 448.669 156.877 448.909 158.219C449.149 159.561 448.957 160.965 448.372 162.139L437.051 184.945" stroke="#56303C" stroke-width="6.15" stroke-miterlimit="10" stroke-linecap="round"/>
<path d="M434.736 202.691C433.973 201.905 433.345 200.943 432.887 199.859C432.43 198.775 432.153 197.592 432.072 196.377C431.99 195.161 432.107 193.938 432.414 192.778C432.721 191.618 433.213 190.544 433.861 189.617L445.734 172.626C446.332 171.773 447.159 171.208 448.067 171.03C448.974 170.853 449.904 171.075 450.691 171.657C451.488 172.252 452.083 173.178 452.366 174.266C452.649 175.354 452.602 176.531 452.233 177.579L444.652 199.146" stroke="#56303C" stroke-width="6.15" stroke-miterlimit="10" stroke-linecap="round"/>
<path d="M417.766 118.105C417.833 118.81 417.785 119.525 417.626 120.209C417.467 120.892 417.199 121.53 416.838 122.087C416.477 122.643 416.03 123.108 415.522 123.453C415.014 123.799 414.455 124.019 413.878 124.1C413.3 124.182 412.716 124.124 412.156 123.929C411.597 123.735 411.075 123.407 410.62 122.966C410.164 122.525 409.784 121.978 409.502 121.358C409.219 120.737 409.039 120.054 408.972 119.348" stroke="#56303C" stroke-width="6.15" stroke-miterlimit="10" stroke-linecap="round"/>
<path d="M440.503 134.404C440.503 134.404 451.892 150.999 469.695 153.611" stroke="#56303C" stroke-width="6.15" stroke-miterlimit="10" stroke-linecap="round"/>
<path d="M485.668 188.423L496.208 179.721" stroke="#56303C" stroke-width="6.15" stroke-miterlimit="10" stroke-linecap="round"/>
<path d="M411.631 145.07C413.205 145.07 414.48 143.511 414.48 141.588C414.48 139.665 413.205 138.107 411.631 138.107C410.058 138.107 408.783 139.665 408.783 141.588C408.783 143.511 410.058 145.07 411.631 145.07Z" stroke="#56303C" stroke-width="5.59" stroke-miterlimit="10" stroke-linecap="round"/>
<path d="M437.571 156.266C439.025 155.53 439.715 153.494 439.113 151.717C438.511 149.941 436.845 149.097 435.391 149.833C433.938 150.569 433.247 152.606 433.849 154.382C434.451 156.158 436.118 157.002 437.571 156.266Z" stroke="#56303C" stroke-width="5.59" stroke-miterlimit="10" stroke-linecap="round"/>
<path d="M448.297 158.97C448.579 156.848 447.4 154.85 445.664 154.505C443.928 154.161 442.293 155.601 442.011 157.723C441.729 159.844 442.908 161.843 444.644 162.187C446.38 162.532 448.015 161.091 448.297 158.97Z" stroke="#56303C" stroke-width="5.59" stroke-miterlimit="10" stroke-linecap="round"/>
<path d="M449.008 178.73C450.581 178.73 451.857 177.172 451.857 175.249C451.857 173.326 450.581 171.767 449.008 171.767C447.435 171.767 446.159 173.326 446.159 175.249C446.159 177.172 447.435 178.73 449.008 178.73Z" stroke="#56303C" stroke-width="5.59" stroke-miterlimit="10" stroke-linecap="round"/>
<path d="M563.238 142.251L577.102 141.26L576.041 253.863L549.889 242.959L563.238 142.251Z" fill="#D9AF00"/>
<path d="M559.733 165.635L551.187 233.156L545.81 229.485L559.733 165.635Z" fill="#56303C"/>
<path d="M425.14 142.785L428.951 153.558" stroke="#5D2D3C" stroke-width="7.36" stroke-miterlimit="10" stroke-linecap="round"/>
<path d="M451.743 218.267L445.209 199.481" stroke="#5D2D3C" stroke-width="6.87" stroke-miterlimit="10" stroke-linecap="round"/>
</svg>
