<svg width="683" height="505" viewBox="0 0 683 505" fill="none" xmlns="http://www.w3.org/2000/svg">
<path d="M358.295 507.233H52.5387C80.257 472.401 138.291 441.422 205.417 441.422C272.543 441.422 330.591 472.401 358.295 507.233Z" fill="#F5EFD9"/>
<path d="M197.646 505.73V259.955" stroke="#56303C" stroke-width="9.2" stroke-miterlimit="10" stroke-linecap="round"/>
<path d="M258.113 327.226H292.127V331.262C292.127 338.037 290.639 344.746 287.746 351.005C284.853 357.264 280.614 362.952 275.269 367.742C269.924 372.533 263.579 376.333 256.596 378.926C249.613 381.519 242.128 382.853 234.569 382.853H211.614V368.909C211.614 363.436 212.816 358.016 215.153 352.959C217.489 347.902 220.914 343.306 225.232 339.436C229.55 335.565 234.676 332.495 240.317 330.4C245.959 328.305 252.006 327.226 258.113 327.226Z" fill="#EDE0C4"/>
<path d="M269.347 345.703L218.773 376.93C212.257 380.954 206.93 386.336 203.249 392.614C199.569 398.892 197.646 405.878 197.646 412.97V436.281" stroke="#56303C" stroke-width="9.2" stroke-miterlimit="10" stroke-linecap="round"/>
<path d="M190.128 418.81H169.325C155.203 418.81 141.66 413.782 131.674 404.832C121.688 395.881 116.079 383.742 116.079 371.084V367.054H147.123C158.531 367.054 169.472 371.116 177.539 378.346C185.606 385.577 190.138 395.384 190.138 405.609V418.798L190.128 418.81Z" fill="#EDE0C4"/>
<path d="M138.671 383.657L176.487 407.023C183.003 411.046 188.331 416.429 192.011 422.707C195.692 428.985 197.615 435.971 197.615 443.063V466.374" stroke="#56303C" stroke-width="9.2" stroke-miterlimit="10" stroke-linecap="round"/>
<path d="M208.832 239.171H246.871C259.026 239.171 270.682 243.499 279.276 251.202C287.871 258.906 292.699 269.354 292.699 280.248V314.343H254.66C242.506 314.343 230.849 310.016 222.255 302.312C213.661 294.609 208.832 284.161 208.832 273.267V239.171Z" fill="#D9AF00"/>
<path d="M250.766 273.902L227.191 245.481" stroke="white" stroke-width="9.8" stroke-miterlimit="10" stroke-linecap="round"/>
<path d="M140.057 314.34H102.018V280.248C102.018 274.853 103.203 269.512 105.506 264.528C107.809 259.545 111.185 255.017 115.44 251.202C119.696 247.388 124.748 244.362 130.308 242.298C135.868 240.234 141.827 239.171 147.845 239.171H185.884V273.264C185.884 284.158 181.056 294.606 172.462 302.309C163.867 310.012 152.211 314.34 140.057 314.34Z" fill="#D9AF00"/>
<path d="M168.559 245.481L144.981 273.902" stroke="white" stroke-width="9.8" stroke-miterlimit="10" stroke-linecap="round"/>
<path d="M185.884 148.924H147.845C141.827 148.924 135.868 147.861 130.308 145.797C124.748 143.733 119.696 140.707 115.44 136.893C111.185 133.078 107.809 128.55 105.506 123.567C103.203 118.583 102.018 113.242 102.018 107.847L102.018 73.7518L140.057 73.7518C152.211 73.7518 163.867 78.0795 172.462 85.7829C181.056 93.4862 185.884 103.934 185.884 114.828V148.924Z" fill="#D9AF00"/>
<path d="M164.161 139.759L140.587 111.338" stroke="white" stroke-width="9.8" stroke-miterlimit="10" stroke-linecap="round"/>
<path d="M254.66 73.7518H292.699V107.847C292.699 118.741 287.871 129.189 279.276 136.893C270.682 144.596 259.026 148.924 246.871 148.924H208.832V114.828C208.832 109.434 210.018 104.093 212.321 99.109C214.624 94.1254 217.999 89.5972 222.255 85.7829C230.849 78.0795 242.506 73.7518 254.66 73.7518Z" fill="#D9AF00"/>
<path d="M250.286 111.338L226.709 139.759" stroke="white" stroke-width="9.8" stroke-miterlimit="10" stroke-linecap="round"/>
<path d="M116.055 169.664L142.952 193.773L116.055 217.882C107.46 225.585 95.804 229.912 83.6499 229.912C71.4958 229.912 59.8395 225.585 51.2452 217.882L24.3481 193.773L51.2452 169.664C59.8395 161.961 71.4958 157.634 83.6499 157.634C95.804 157.634 107.46 161.961 116.055 169.664Z" fill="#D9AF00"/>
<path d="M83.6517 193.773H139.588" stroke="white" stroke-width="9.8" stroke-miterlimit="10" stroke-linecap="round"/>
<path d="M340.313 169.664L367.21 193.773L340.313 217.882C331.718 225.585 320.062 229.912 307.908 229.912C295.754 229.912 284.098 225.585 275.503 217.882L248.606 193.773L275.503 169.664C284.098 161.961 295.754 157.634 307.908 157.634C320.062 157.634 331.718 161.961 340.313 169.664Z" fill="#D9AF00"/>
<path d="M257.576 193.773H313.512" stroke="white" stroke-width="9.8" stroke-miterlimit="10" stroke-linecap="round"/>
<path d="M197.646 254.167C236.4 254.167 267.817 226.007 267.817 191.27C267.817 156.533 236.4 128.373 197.646 128.373C158.891 128.373 127.474 156.533 127.474 191.27C127.474 226.007 158.891 254.167 197.646 254.167Z" fill="#A0D6FF"/>
<path d="M187.53 155.816H180.029C178.84 155.816 177.692 156.205 176.801 156.911C175.91 157.616 175.337 158.589 175.191 159.647L173.411 172.529C173.224 173.882 172.587 175.153 171.582 176.176C170.577 177.2 169.252 177.927 167.778 178.265L152.331 181.808C150.919 182.132 149.661 182.856 148.744 183.872C147.828 184.888 147.301 186.143 147.243 187.448L147.055 191.724C146.999 193.001 147.454 194.253 148.337 195.256C149.221 196.258 150.475 196.945 151.873 197.193L156.209 197.957C157.02 198.099 157.781 198.414 158.428 198.874C159.075 199.335 159.59 199.928 159.928 200.604L161.376 203.481L162.368 205.459L160.698 203.907L158.388 201.76C157.533 200.965 156.391 200.47 155.165 200.361L143.53 199.343C142.729 199.274 141.957 199.04 141.273 198.661C140.589 198.282 140.011 197.767 139.584 197.156L128.374 181.151C130.233 170.952 134.864 161.319 141.858 153.102C148.852 144.886 157.995 138.339 168.48 134.038L163.761 143.167C163.552 143.571 163.462 144.016 163.5 144.46C163.537 144.904 163.701 145.332 163.975 145.703C164.25 146.075 164.626 146.377 165.068 146.581C165.509 146.785 166.002 146.884 166.499 146.869L178.801 146.519C179.935 146.49 181.046 146.815 181.942 147.439L188.889 152.264C189.255 152.517 189.524 152.866 189.658 153.263C189.791 153.66 189.782 154.085 189.632 154.477C189.482 154.869 189.198 155.209 188.821 155.45C188.444 155.69 187.993 155.818 187.53 155.816Z" fill="#56303C"/>
<path d="M204.702 218.059V224.863C204.702 225.96 204.234 227.017 203.395 227.816L195.237 235.564C194.711 236.064 194.04 236.423 193.299 236.599C192.559 236.775 191.778 236.762 191.045 236.561L187.643 235.641C187.399 235.575 187.142 235.56 186.891 235.597C186.64 235.635 186.402 235.724 186.195 235.857C185.988 235.99 185.818 236.164 185.699 236.365C185.579 236.567 185.512 236.79 185.504 237.018L185.203 246.407C185.18 247.113 185.335 247.816 185.658 248.461C185.981 249.106 186.463 249.677 187.068 250.13L192.232 253.968C187.533 253.649 182.881 252.905 178.349 251.747L170.769 245.895C169.937 245.252 169.404 244.352 169.277 243.373L167.973 233.251L155.031 227.451C153.9 226.94 152.949 226.158 152.285 225.191C151.62 224.225 151.268 223.112 151.267 221.976V212.637C151.267 211.766 151.501 210.908 151.95 210.136C152.398 209.364 153.048 208.7 153.844 208.201L160.709 203.907L161.393 203.481L168.401 199.064C169.091 198.631 169.911 198.396 170.754 198.388C171.596 198.381 172.421 198.603 173.12 199.024L183.349 205.198C183.913 205.539 184.396 205.976 184.771 206.485C185.145 206.995 185.402 207.565 185.528 208.164L186.295 211.805C186.4 212.301 186.695 212.748 187.128 213.07C187.562 213.392 188.107 213.569 188.67 213.569H199.685C201.015 213.569 202.289 214.042 203.23 214.884C204.171 215.726 204.7 216.868 204.702 218.059Z" fill="#56303C"/>
<path d="M229.049 135.008L224.372 136.336C223.833 136.49 223.271 136.568 222.705 136.569H212.665C211.726 136.569 210.81 136.824 210.037 137.302L199.114 144.05C198.711 144.298 198.257 144.471 197.777 144.556C197.298 144.642 196.805 144.639 196.327 144.547C195.849 144.456 195.397 144.278 194.998 144.025C194.599 143.772 194.263 143.448 194.008 143.075L191.544 139.449C191.131 138.839 190.906 138.142 190.891 137.429C190.877 136.715 191.074 136.011 191.462 135.388L192.359 133.95C192.518 133.699 192.619 133.422 192.656 133.135C192.693 132.848 192.665 132.558 192.574 132.281C192.483 132.004 192.331 131.746 192.126 131.523C191.922 131.3 191.669 131.117 191.383 130.984L187.318 129.051C190.738 128.6 194.189 128.373 197.646 128.373C208.548 128.357 219.303 130.63 229.049 135.008Z" fill="#56303C"/>
<path d="M267.818 191.27C267.828 200.455 265.59 209.53 261.26 217.854C256.93 226.179 250.614 233.55 242.758 239.447L245.571 228.099L245.201 220.535C245.137 219.233 244.515 218.003 243.464 217.102C242.414 216.201 241.016 215.698 239.562 215.698H230.607C229.802 215.698 229.007 215.546 228.273 215.251C227.539 214.957 226.882 214.527 226.346 213.989L220.967 208.572C220.031 207.634 219.514 206.42 219.512 205.162V193.813C219.511 192.266 220.053 190.759 221.062 189.504C222.07 188.249 223.494 187.311 225.131 186.823L245.947 180.602C247.408 180.163 249.002 180.247 250.396 180.835L264.69 186.841C265.624 187.232 266.416 187.853 266.971 188.632C267.527 189.411 267.824 190.315 267.828 191.239L267.818 191.27Z" fill="#56303C"/>
<path d="M95.2968 176.011H-29.5622C-29.5622 167.03 -18.1909 159.754 -4.15719 159.754C-1.11026 159.748 1.92416 160.103 4.86666 160.812C9.52059 155.291 16.6623 151.74 24.6698 151.74C36.6948 151.74 46.7692 159.714 49.4041 170.45C54.0273 167.809 61.4838 165.726 69.8951 165.726C83.9254 165.72 95.2968 171.52 95.2968 176.011Z" fill="#F5EFD9"/>
<path d="M399.216 139.636H297.336C297.336 127.192 306.917 117.11 318.754 117.11C325.506 117.11 331.529 120.395 335.45 125.527C337.922 124.87 340.486 124.54 343.064 124.545C351.705 124.545 359.148 128.152 362.535 133.348C366.419 131.456 371.819 130.085 377.787 130.085C389.624 130.085 399.216 135.468 399.216 139.636Z" fill="#F5EFD9"/>
<path d="M462.03 361.352V363.438H459.707C457.838 363.438 456.046 362.772 454.725 361.588C453.403 360.403 452.661 358.797 452.661 357.122V355.38H437.43C433.89 355.38 430.495 354.12 427.993 351.876C425.49 349.633 424.084 346.59 424.084 343.418V342.427H420.528C416.989 342.427 413.594 341.167 411.091 338.923C408.588 336.68 407.182 333.637 407.182 330.465V329.83H395.712C392.815 329.829 390.038 328.797 387.99 326.961C385.943 325.125 384.792 322.635 384.792 320.039V315.22C384.792 313.537 385.161 311.871 385.88 310.316C386.598 308.761 387.651 307.348 388.979 306.158C390.307 304.968 391.883 304.024 393.618 303.38C395.352 302.736 397.212 302.405 399.089 302.405H407.521C408.966 302.405 410.396 302.66 411.73 303.156C413.064 303.651 414.277 304.377 415.298 305.293C416.319 306.208 417.13 307.295 417.682 308.491C418.235 309.687 418.52 310.969 418.52 312.264V316.558H425.052C427.969 316.558 430.767 317.596 432.829 319.445C434.892 321.294 436.05 323.801 436.05 326.416V329.483H441.94C443.384 329.483 444.815 329.737 446.15 330.233C447.484 330.728 448.697 331.454 449.719 332.369C450.741 333.285 451.551 334.372 452.104 335.568C452.657 336.764 452.941 338.046 452.941 339.341V355.018H454.96C455.89 355.015 456.81 355.176 457.669 355.493C458.529 355.81 459.309 356.277 459.966 356.866C460.624 357.454 461.144 358.154 461.499 358.924C461.853 359.694 462.033 360.519 462.03 361.352Z" fill="#56303C"/>
<path d="M456.846 348.549H457.031C457.661 348.549 458.265 348.773 458.71 349.173C459.156 349.572 459.406 350.113 459.406 350.678V350.843C459.406 351.123 459.344 351.4 459.225 351.658C459.106 351.916 458.931 352.151 458.71 352.349C458.49 352.546 458.228 352.703 457.94 352.81C457.652 352.917 457.343 352.972 457.031 352.972H454.471V350.678C454.471 350.113 454.721 349.572 455.167 349.173C455.612 348.773 456.216 348.549 456.846 348.549Z" fill="#D9AF00"/>
<path d="M448.339 361.054C448.015 361.054 447.694 360.997 447.395 360.886C447.096 360.775 446.824 360.612 446.596 360.406C446.367 360.201 446.185 359.957 446.062 359.689C445.938 359.421 445.875 359.133 445.875 358.843C445.875 358.553 445.938 358.265 446.062 357.997C446.185 357.728 446.367 357.485 446.596 357.279C446.824 357.074 447.096 356.911 447.395 356.8C447.694 356.688 448.015 356.631 448.339 356.631H450.806V358.843C450.806 359.133 450.742 359.421 450.618 359.689C450.494 359.957 450.313 360.201 450.084 360.407C449.854 360.612 449.582 360.775 449.283 360.886C448.984 360.997 448.663 361.054 448.339 361.054Z" fill="#D9AF00"/>
<path d="M399.948 363.468L386.565 382.421L362.303 412.786L357.481 409.035L393.412 333.854C395.284 330.756 398.703 328.851 402.395 328.851C407.124 328.851 411.261 331.952 412.469 336.403L399.948 363.468Z" fill="#FFAFB1"/>
<path d="M331.21 389.089C333.922 389.089 336.121 386.33 336.121 382.927C336.121 379.523 333.922 376.765 331.21 376.765C328.498 376.765 326.3 379.523 326.3 382.927C326.3 386.33 328.498 389.089 331.21 389.089Z" fill="#56303C"/>
<path d="M334.636 382.927C336.346 382.927 338.017 383.392 339.426 384.262C340.836 385.131 341.918 386.362 342.53 387.794L357.491 422.209" stroke="#56303C" stroke-width="5.95" stroke-miterlimit="10" stroke-linecap="round"/>
<path d="M393.193 414.338C393.703 416.28 386.092 419.553 376.193 421.645C366.293 423.736 357.854 423.868 357.344 421.93L357.324 421.767L351.366 379.133C351.729 380.504 357.799 380.39 364.924 378.884C372.048 377.378 377.537 375.038 377.175 373.67L393.152 414.191L393.193 414.338Z" fill="#56303C"/>
<path d="M377.175 373.661C377.538 375.032 372.042 377.369 364.924 378.875C357.806 380.381 351.729 380.494 351.366 379.123C351.003 377.752 356.499 375.415 363.617 373.909C370.735 372.403 376.815 372.286 377.175 373.661Z" fill="#A0D6FF"/>
<path d="M478.627 506.316H473.973L471.064 502.022L468.156 506.316H449.105C449.035 506.318 448.966 506.298 448.911 506.258C448.856 506.219 448.819 506.162 448.807 506.1C448.795 506.038 448.808 505.974 448.845 505.92C448.882 505.866 448.939 505.826 449.006 505.807L450.984 505.175C452.832 504.588 454.37 503.406 455.298 501.859C456.227 500.311 456.48 498.51 456.008 496.804L453.934 489.302H473.244L478.627 506.316Z" fill="#56303C"/>
<path d="M454.297 497.718H451.853C451.205 497.718 450.584 497.488 450.126 497.077C449.667 496.666 449.41 496.109 449.41 495.528C449.41 495.24 449.472 494.955 449.595 494.689C449.718 494.423 449.898 494.181 450.124 493.978C450.351 493.774 450.621 493.612 450.918 493.502C451.214 493.392 451.532 493.335 451.853 493.335V493.335C452.502 493.336 453.123 493.567 453.581 493.979C454.039 494.39 454.297 494.947 454.297 495.528V497.718Z" stroke="#A0D6FF" stroke-width="2.71" stroke-miterlimit="10"/>
<path d="M456.678 497.718H459.122C459.77 497.718 460.392 497.488 460.851 497.077C461.309 496.666 461.568 496.109 461.568 495.528V495.528C461.568 494.947 461.311 494.389 460.852 493.977C460.393 493.566 459.771 493.335 459.122 493.335C458.473 493.336 457.852 493.567 457.394 493.979C456.936 494.39 456.678 494.947 456.678 495.528V497.718Z" stroke="#A0D6FF" stroke-width="2.71" stroke-miterlimit="10"/>
<path d="M414.772 506.316H410.122L408.952 502.022L404.304 506.316H387.194C387.061 506.315 386.933 506.271 386.832 506.193C386.732 506.115 386.665 506.007 386.645 505.889C386.625 505.771 386.652 505.65 386.722 505.549C386.792 505.447 386.9 505.371 387.027 505.334L387.605 505.172C391.927 503.945 395.572 500.335 396.03 496.801L396.998 489.299H416.309L414.772 506.316Z" fill="#56303C"/>
<path d="M391.441 493.335C391.762 493.335 392.08 493.392 392.376 493.502C392.673 493.612 392.942 493.773 393.169 493.977C393.396 494.18 393.576 494.421 393.699 494.687C393.821 494.953 393.885 495.238 393.885 495.525V497.715H391.441C390.793 497.715 390.172 497.484 389.714 497.074C389.255 496.663 388.998 496.106 388.998 495.525V495.525C388.998 495.238 389.061 494.953 389.184 494.687C389.307 494.421 389.487 494.18 389.714 493.977C389.94 493.773 390.21 493.612 390.506 493.502C390.803 493.392 391.12 493.335 391.441 493.335V493.335Z" stroke="#A0D6FF" stroke-width="2.71" stroke-miterlimit="10"/>
<path d="M396.28 497.718H398.723C399.371 497.718 399.993 497.488 400.452 497.077C400.911 496.666 401.169 496.109 401.17 495.528C401.17 494.947 400.912 494.389 400.453 493.977C399.994 493.566 399.372 493.335 398.723 493.335C398.075 493.336 397.453 493.567 396.995 493.979C396.537 494.39 396.28 494.947 396.28 495.528V497.718Z" stroke="#A0D6FF" stroke-width="2.71" stroke-miterlimit="10"/>
<path d="M479.346 489.299H453.948L431.167 428.046L421.48 489.299H396.605L406.293 382.927L420.823 363.974C420.823 363.974 424.361 380.083 446.778 378.783L479.346 489.299Z" fill="#D9AF00"/>
<path d="M431.167 428.046L421.952 400.364" stroke="#56303C" stroke-width="4.87" stroke-miterlimit="10" stroke-linecap="round"/>
<path d="M446.779 378.783C424.361 380.083 420.823 363.974 420.823 363.974L406.293 382.927L372.278 418.657L362.289 412.789L413.732 334.36C414.864 332.634 416.541 331.247 418.551 330.373C420.561 329.5 422.815 329.179 425.028 329.452C427.241 329.725 429.315 330.578 430.988 331.905C432.66 333.232 433.858 334.973 434.428 336.909L446.779 378.783Z" fill="#FFAFB1"/>
<path d="M362.303 412.289L409.595 339.838" stroke="white" stroke-width="4.04" stroke-miterlimit="10" stroke-linecap="round"/>
<path d="M446.779 378.783C424.361 380.083 421.384 364.474 421.384 364.474L424.121 360.395" stroke="white" stroke-width="4.04" stroke-miterlimit="10" stroke-linecap="round"/>
<path d="M361.611 412.179L357.05 418.792C356.994 418.872 356.965 418.965 356.967 419.059C356.97 419.154 357.003 419.246 357.062 419.323C357.122 419.401 357.206 419.462 357.303 419.498C357.401 419.534 357.508 419.543 357.611 419.525L359.664 419.181C359.704 419.174 359.745 419.178 359.782 419.194C359.818 419.21 359.847 419.237 359.864 419.27C359.881 419.303 359.886 419.34 359.876 419.375C359.866 419.41 359.844 419.442 359.811 419.464L356.817 421.687C356.77 421.727 356.714 421.756 356.651 421.772C356.589 421.787 356.524 421.789 356.461 421.777C356.398 421.765 356.339 421.739 356.29 421.702C356.24 421.665 356.202 421.618 356.177 421.565L355.623 420.356C355.584 420.264 355.507 420.187 355.409 420.142C355.311 420.096 355.197 420.085 355.09 420.11C354.983 420.135 354.89 420.195 354.83 420.278C354.769 420.361 354.744 420.461 354.761 420.559L355.188 423.684C355.317 424.21 355.571 424.705 355.932 425.135C356.293 425.565 356.752 425.921 357.28 426.178C357.808 426.435 358.391 426.588 358.99 426.625C359.589 426.663 360.19 426.584 360.752 426.396L365.235 424.893C366.667 424.412 367.926 423.592 368.876 422.519L372.298 418.657L361.611 412.179Z" fill="#B4702F"/>
<path d="M425.319 329.486C423.067 329.156 420.757 329.445 418.693 330.315C416.628 331.185 414.906 332.595 413.753 334.36L410.125 339.881L401.31 329.014C399.668 329.821 397.96 330.103 396.205 329.627C391.328 328.296 391.119 322.573 391.119 316.214C391.119 313.319 392.759 310.982 395.007 309.439C395.205 317.079 405.571 319.953 409.513 320.769L425.319 329.486Z" fill="#B4702F"/>
<path d="M403.788 332.078L401.307 329.011C401.307 329.011 404.301 327.17 405.328 325.965L403.788 332.078Z" fill="#56303C"/>
<path d="M390.969 317.349H391.917C392.648 317.349 393.35 317.61 393.867 318.073C394.384 318.537 394.675 319.166 394.675 319.821V323.352C394.676 323.492 394.739 323.626 394.849 323.725C394.96 323.824 395.11 323.879 395.267 323.879H396.335" stroke="#56303C" stroke-width="3.25" stroke-miterlimit="10" stroke-linecap="round"/>
<path d="M398.846 320.398C398.813 320.549 398.732 320.688 398.613 320.8C398.495 320.911 398.343 320.99 398.177 321.027C398.01 321.064 397.835 321.059 397.672 321.01C397.509 320.962 397.365 320.873 397.256 320.754C397.147 320.635 397.078 320.491 397.057 320.338C397.036 320.185 397.064 320.03 397.137 319.891C397.211 319.752 397.327 319.634 397.472 319.552C397.617 319.47 397.785 319.426 397.957 319.426C398.218 319.45 398.457 319.566 398.624 319.748C398.79 319.93 398.87 320.164 398.846 320.398Z" fill="#56303C"/>
<path d="M393.008 320.398C393.008 320.84 392.741 321.195 392.416 321.195C392.091 321.195 391.824 320.84 391.824 320.398C391.824 319.956 392.088 319.604 392.416 319.604C392.745 319.604 393.008 319.959 393.008 320.398Z" fill="#56303C"/>
<path d="M331.214 384.252V384.595C325.833 385.483 320.969 388.033 317.468 391.802C313.966 395.572 312.05 400.321 312.051 405.226V421.611C312.051 427.099 309.618 432.363 305.288 436.244C300.958 440.125 295.086 442.305 288.962 442.305H286.823C285.735 442.305 284.657 442.498 283.652 442.871C282.646 443.244 281.732 443.792 280.963 444.481C280.193 445.171 279.583 445.99 279.166 446.891C278.75 447.793 278.535 448.759 278.535 449.734V460.954C278.535 466.443 276.103 471.707 271.773 475.589C267.443 479.47 261.571 481.651 255.447 481.652H250.211C248.696 481.652 247.243 482.191 246.172 483.151C245.1 484.111 244.497 485.413 244.497 486.771V492.679C244.497 496.539 242.786 500.241 239.741 502.97C236.696 505.699 232.566 507.233 228.259 507.233H199.24V472.509C199.24 467.153 201.614 462.016 205.839 458.229C210.065 454.442 215.795 452.314 221.771 452.314H231.965C233.9 452.314 235.756 451.625 237.124 450.399C238.492 449.172 239.261 447.509 239.261 445.775V437.772C239.261 435.12 239.844 432.494 240.976 430.044C242.108 427.594 243.768 425.368 245.86 423.493C247.952 421.618 250.436 420.131 253.17 419.117C255.903 418.102 258.833 417.58 261.791 417.58H270.192C272.127 417.58 273.982 416.89 275.35 415.664C276.718 414.438 277.487 412.775 277.488 411.041V404.447C277.488 399.091 279.862 393.954 284.087 390.167C288.312 386.379 294.043 384.252 300.019 384.252H331.214Z" fill="#A0D6FF"/>
<path d="M205.93 478.02C205.93 475.369 206.513 472.743 207.646 470.293C208.778 467.843 210.437 465.617 212.53 463.742C214.622 461.867 217.106 460.379 219.839 459.365C222.573 458.35 225.502 457.828 228.461 457.829H236.746C237.954 457.829 239.151 457.615 240.268 457.201C241.385 456.786 242.4 456.178 243.255 455.412C244.109 454.646 244.788 453.736 245.25 452.735C245.713 451.734 245.951 450.661 245.951 449.578V443.287C245.951 437.931 248.325 432.794 252.55 429.007C256.775 425.22 262.506 423.092 268.481 423.092H275.298C277.658 423.092 279.921 422.252 281.589 420.757C283.258 419.261 284.195 417.233 284.195 415.117V409.946C284.195 404.59 286.569 399.454 290.794 395.666C295.02 391.879 300.75 389.751 306.726 389.751" stroke="white" stroke-width="4.04" stroke-miterlimit="10" stroke-linecap="round"/>
<path d="M213.202 485.544C213.202 482.893 213.784 480.267 214.916 477.816C216.048 475.366 217.707 473.14 219.799 471.265C221.891 469.389 224.374 467.902 227.108 466.887C229.841 465.872 232.771 465.35 235.729 465.35H244.017C245.226 465.35 246.423 465.136 247.54 464.722C248.656 464.307 249.671 463.699 250.525 462.933C251.38 462.167 252.057 461.257 252.52 460.256C252.982 459.255 253.22 458.182 253.219 457.099V450.811C253.219 445.455 255.593 440.318 259.818 436.531C264.043 432.744 269.774 430.616 275.75 430.616H282.57C284.929 430.616 287.192 429.776 288.861 428.28C290.53 426.785 291.467 424.756 291.467 422.641" stroke="white" stroke-width="4.04" stroke-miterlimit="10" stroke-linecap="round"/>
<path d="M228.765 444.959C230.945 444.959 232.711 443.375 232.711 441.422C232.711 439.469 230.945 437.886 228.765 437.886C226.586 437.886 224.82 439.469 224.82 441.422C224.82 443.375 226.586 444.959 228.765 444.959Z" fill="#A0D6FF"/>
<path d="M191.138 494.217C191.739 490.896 189.223 487.767 185.518 487.228C181.813 486.689 178.322 488.944 177.721 492.265C177.12 495.586 179.636 498.715 183.34 499.254C187.045 499.793 190.536 497.538 191.138 494.217Z" fill="#A0D6FF"/>
<path d="M321.3 398.68C322.935 398.68 324.26 397.492 324.26 396.027C324.26 394.562 322.935 393.374 321.3 393.374C319.665 393.374 318.34 394.562 318.34 396.027C318.34 397.492 319.665 398.68 321.3 398.68Z" fill="#A0D6FF"/>
<path d="M106.387 505.595H72.6635L73.6696 496.543L86.4166 493.022L86.9915 494.157C87.5663 495.291 88.4931 496.253 89.6613 496.927C90.8294 497.601 92.1894 497.96 93.5789 497.961H97.3431C99.2045 497.961 101.017 498.495 102.515 499.485C104.013 500.475 105.119 501.869 105.669 503.463L106.387 505.595Z" fill="#56303C"/>
<path d="M86.5945 506.113H106.387" stroke="#D9AF00" stroke-width="6.49" stroke-miterlimit="10" stroke-linecap="round"/>
<path d="M72.6635 506.113H82.0638" stroke="#D9AF00" stroke-width="6.49" stroke-miterlimit="10" stroke-linecap="round"/>
<path d="M88.3637 498.543L89.7941 495.718" stroke="#D9AF00" stroke-width="4.33" stroke-miterlimit="10" stroke-linecap="round"/>
<path d="M92.4291 499.111L93.2299 497.323" stroke="#D9AF00" stroke-width="4.33" stroke-miterlimit="10" stroke-linecap="round"/>
<path d="M-1.71729 496.019L-3.3667 505.592H30.3606L29.6249 503.463C29.075 501.869 27.97 500.475 26.4717 499.484C24.9734 498.494 23.1607 497.96 21.2991 497.961H14.5167C13.8931 497.961 13.2876 497.773 12.7974 497.427C12.3072 497.082 11.9606 496.599 11.8133 496.056L-1.71729 496.019Z" fill="#56303C"/>
<path d="M10.5677 506.113H30.3606" stroke="#D9AF00" stroke-width="6.49" stroke-miterlimit="10" stroke-linecap="round"/>
<path d="M-3.3667 506.113H6.03351" stroke="#D9AF00" stroke-width="6.49" stroke-miterlimit="10" stroke-linecap="round"/>
<path d="M12.9426 499.629L14.3764 496.755" stroke="#D9AF00" stroke-width="4.33" stroke-miterlimit="10" stroke-linecap="round"/>
<path d="M16.4022 499.629L17.3091 497.224" stroke="#D9AF00" stroke-width="4.33" stroke-miterlimit="10" stroke-linecap="round"/>
<path d="M36.4723 360.484L88.8291 488.903C88.9897 489.298 89.06 489.717 89.0361 490.136C89.0121 490.556 88.8943 490.966 88.6897 491.344C88.485 491.722 88.1977 492.059 87.8449 492.335C87.492 492.611 87.0808 492.821 86.6356 492.952L73.9126 496.697C72.7512 497.039 71.4907 496.991 70.3658 496.562C69.2408 496.134 68.328 495.353 67.7974 494.366L18.6984 403.063L15.2764 491.832C15.2302 493.044 14.6605 494.193 13.6874 495.035C12.7143 495.877 11.4141 496.348 10.0612 496.347H-2.45306C-3.81314 496.348 -5.11969 495.872 -6.09442 495.022C-7.06916 494.172 -7.63507 493.014 -7.67163 491.795L-10.8028 385.859C-11.2956 376.314 -8.82486 367.373 -3.63709 359.085L4.00428 349.969L36.4723 360.484Z" fill="#B4702F"/>
<path d="M19.6531 404.057L21.4086 379.544L25.6416 378.338" stroke="#56303C" stroke-width="4.87" stroke-miterlimit="10" stroke-linecap="round"/>
<path d="M40.1098 284.79L62.405 291.823C63.6241 292.208 64.6228 293.011 65.1815 294.055C65.7401 295.1 65.8129 296.301 65.3838 297.393L63.8523 301.293L32.364 291.36L33.8955 287.46C34.3245 286.367 35.2203 285.472 36.3857 284.971C37.5511 284.47 38.8907 284.405 40.1098 284.79Z" fill="#D9AF00"/>
<path d="M59.1774 297.43L34.8092 359.925L16.5083 354.236L40.9004 291.517L59.1774 297.43Z" fill="#A0D6FF"/>
<path d="M41.424 290.922L16.895 353.405C16.1013 355.425 14.4448 357.08 12.2898 358.005C10.1348 358.931 7.65787 359.051 5.40391 358.34L1.9819 357.26C-0.282832 356.546 -2.15795 355.084 -3.26021 353.173C-4.36247 351.261 -4.60866 349.044 -3.94846 346.976L13.1616 293.32C13.7571 291.454 15.1094 289.854 16.9531 288.836C18.7968 287.817 20.9986 287.453 23.1265 287.815L41.424 290.922Z" fill="#D9AF00"/>
<path d="M35.1857 358.542L59.1637 297.43L68.5434 302.479C70.3354 303.443 71.6793 304.954 72.328 306.734C72.9768 308.515 72.8869 310.446 72.0749 312.172L48.0011 363.775C47.6722 364.479 47.1793 365.112 46.5553 365.632C45.9314 366.152 45.1908 366.546 44.3831 366.788C43.5755 367.031 42.7193 367.116 41.872 367.038C41.0247 366.96 40.2058 366.721 39.47 366.336L38.0773 365.609C36.7518 364.918 35.7373 363.833 35.2093 362.543C34.6813 361.253 34.673 359.837 35.1857 358.542Z" fill="#D9AF00"/>
<path d="M38.0499 352.346L51.3205 356.533" stroke="white" stroke-width="6.28" stroke-miterlimit="10" stroke-linecap="round"/>
<path d="M-1.25189 339.774L19.417 346.295" stroke="white" stroke-width="6.28" stroke-miterlimit="10" stroke-linecap="round"/>
<path d="M45.3661 334.216L58.6367 338.403" stroke="white" stroke-width="6.28" stroke-miterlimit="10" stroke-linecap="round"/>
<path d="M4.94193 321.465L26.1755 328.164" stroke="white" stroke-width="6.28" stroke-miterlimit="10" stroke-linecap="round"/>
<path d="M52.6824 315.585L67.6366 320.303" stroke="white" stroke-width="6.28" stroke-miterlimit="10" stroke-linecap="round"/>
<path d="M11.1358 302.479L33.4884 309.531" stroke="white" stroke-width="6.28" stroke-miterlimit="10" stroke-linecap="round"/>
<path d="M137.802 486.692H125.267C124.397 486.692 123.693 487.323 123.693 488.102V491.795C123.693 492.575 124.397 493.206 125.267 493.206H137.802C138.671 493.206 139.376 492.575 139.376 491.795V488.102C139.376 487.323 138.671 486.692 137.802 486.692Z" fill="#FFAFB1"/>
<path d="M110.733 507.233L116.014 491.725L130.728 507.248L110.733 507.233Z" fill="#D9AF00"/>
<path d="M153.211 494.731H129.613C125.91 494.731 122.909 497.42 122.909 500.738C122.909 504.056 125.91 506.745 129.613 506.745H153.211C156.913 506.745 159.915 504.056 159.915 500.738C159.915 497.42 156.913 494.731 153.211 494.731Z" stroke="#A0D6FF" stroke-width="2.71" stroke-miterlimit="10"/>
<path d="M129.609 506.748C133.312 506.748 136.313 504.058 136.313 500.74C136.313 497.421 133.312 494.731 129.609 494.731C125.907 494.731 122.906 497.421 122.906 500.74C122.906 504.058 125.907 506.748 129.609 506.748Z" stroke="#A0D6FF" stroke-width="2.71" stroke-miterlimit="10"/>
<path d="M128.4 502.258C129.336 501.91 129.781 500.948 129.393 500.109C129.005 499.271 127.932 498.872 126.997 499.22C126.061 499.567 125.616 500.529 126.004 501.368C126.392 502.207 127.464 502.605 128.4 502.258Z" stroke="#A0D6FF" stroke-width="2.71" stroke-miterlimit="10"/>
<path d="M120.623 492.844C121.494 492.844 122.201 492.211 122.201 491.43C122.201 490.649 121.494 490.016 120.623 490.016C119.752 490.016 119.046 490.649 119.046 491.43C119.046 492.211 119.752 492.844 120.623 492.844Z" fill="#56303C"/>
<path d="M111.812 499.161C112.137 497.926 111.283 496.689 109.906 496.397C108.528 496.106 107.148 496.871 106.822 498.105C106.497 499.34 107.351 500.578 108.728 500.869C110.106 501.161 111.486 500.396 111.812 499.161Z" fill="#A0D6FF"/>
<path d="M-4.12299 338.246L149.259 494.887C151.286 497.029 152.398 499.747 152.396 502.555V505.819" stroke="#56303C" stroke-width="4.87" stroke-miterlimit="10" stroke-linecap="round"/>
<path d="M139.04 505.813L138.989 500.648C138.975 499.199 138.664 497.765 138.072 496.418L127.139 471.533L159.863 494.7C161.429 495.808 162.694 497.22 163.564 498.829C164.434 500.438 164.887 502.203 164.887 503.991V505.813" stroke="#56303C" stroke-width="4.87" stroke-miterlimit="10" stroke-linecap="round"/>
<path d="M-13.318 334.737L5.75974 316.558L15.3414 289.98L12.7064 289.566C9.96485 289.138 7.14477 289.389 4.55124 290.294C1.9577 291.198 -0.310566 292.721 -2.00823 294.697L-34.685 323.287C-37.5735 325.814 -39.2443 329.254 -39.3402 332.871C-39.4361 336.487 -37.9495 339.994 -35.1983 342.642L-7.25075 365.646L3.79208 353.472L-13.318 334.737Z" fill="#EDE0C4"/>
<path d="M4.44575 368.514L-3.90051 361.959L3.79215 353.481L8.95597 352.693C10.576 352.446 12.2417 352.681 13.6989 353.362L19.6531 356.153L19.3349 356.699C19.0678 357.156 18.6377 357.52 18.1131 357.733C17.5885 357.946 16.9995 357.995 16.4399 357.873L14.8281 357.521C14.33 357.412 13.8057 357.456 13.3387 357.646C12.8718 357.835 12.489 358.16 12.2513 358.567C12.0479 358.916 12.0076 359.324 12.1391 359.7C12.2706 360.076 12.5633 360.39 12.9529 360.573L21.1417 364.661C21.4064 364.793 21.6194 364.995 21.7518 365.239C21.8842 365.483 21.9296 365.758 21.8817 366.026C21.8339 366.294 21.6952 366.542 21.4844 366.737C21.2737 366.932 21.0011 367.064 20.7037 367.115L7.85407 369.342C7.25311 369.445 6.63369 369.425 6.04305 369.281C5.4524 369.138 4.90609 368.875 4.44575 368.514Z" fill="#FFAFB1"/>
<path d="M73.9399 351.144L78.0737 316.456C78.1559 312.325 76.2943 309.77 73.7244 308.555L72.6978 308.061L52.9425 352.929L59.1979 392.785L75.3361 390.472L73.9399 351.144Z" fill="#EDE0C4"/>
<path d="M74.9836 400.83L75.3464 389.813L67.7495 389.757C64.7893 389.735 61.9206 390.676 59.677 392.408L59.1877 392.785C57.9426 393.747 57.0832 395.049 56.7409 396.49L55.3448 402.379L56.0292 402.508C56.5925 402.616 57.1799 402.551 57.6973 402.324C58.2148 402.097 58.6323 401.721 58.8831 401.257L59.6086 399.919C59.8322 399.506 60.2037 399.172 60.6639 398.97C61.1242 398.768 61.6465 398.71 62.1477 398.806C62.3608 398.846 62.563 398.924 62.7426 399.035C62.9221 399.145 63.0756 399.286 63.1942 399.45C63.3127 399.614 63.3941 399.797 63.4336 399.989C63.473 400.181 63.4698 400.379 63.4241 400.569L62.9895 408.915C62.974 409.207 63.049 409.498 63.2062 409.754C63.3635 410.01 63.5968 410.222 63.8803 410.367C64.1638 410.511 64.4865 410.582 64.8125 410.573C65.1385 410.563 65.455 410.472 65.7271 410.311L71.0689 407.149C72.2385 406.454 73.2046 405.517 73.8859 404.417C74.5672 403.318 74.9437 402.087 74.9836 400.83Z" fill="#FFAFB1"/>
<path d="M61.5215 292.655L58.3972 299.436C57.1208 302.123 53.4866 303.424 50.3212 302.292L43.9015 300.025C40.7738 298.921 39.2989 295.891 40.5993 293.25L44.1719 286.02L61.5215 292.655Z" fill="#FFAFB1"/>
<path d="M71.565 291.695C71.571 291.901 71.5255 292.106 71.4317 292.294C71.338 292.483 71.1983 292.65 71.0232 292.784C70.848 292.917 70.6416 293.014 70.4192 293.067C70.1968 293.12 69.9639 293.128 69.7377 293.09L67.4689 292.704C67.0136 293.554 66.3576 294.306 65.5463 294.907C64.735 295.508 63.7878 295.943 62.7701 296.184C61.7524 296.424 60.6886 296.463 59.6523 296.299C58.616 296.134 57.632 295.77 56.7683 295.231L45.3182 288.088C44.5459 287.606 43.9571 286.924 43.6316 286.133C43.306 285.342 43.2592 284.48 43.4977 283.665L45.3593 279.186C47.2106 272.819 54.7938 269.583 61.1758 272.831L66.87 275.745C68.4217 276.536 69.6742 277.724 70.4668 279.158C71.2595 280.592 71.5561 282.205 71.3187 283.79L71.565 291.695Z" fill="#FFAFB1"/>
<path d="M47.676 282.84C47.676 282.84 49.979 283.965 48.8053 286.177" stroke="#56303C" stroke-width="3.25" stroke-miterlimit="10" stroke-linecap="round"/>
<path d="M46.7863 284.775L48.8669 284.06" stroke="#56303C" stroke-width="3.25" stroke-miterlimit="10" stroke-linecap="round"/>
<path d="M67.0343 289.14C66.9077 289.23 66.7542 289.284 66.5932 289.296C66.4322 289.307 66.271 289.276 66.1297 289.206C65.9885 289.136 65.8736 289.029 65.7996 288.901C65.7256 288.772 65.6958 288.627 65.7139 288.483C65.732 288.339 65.7972 288.203 65.9013 288.092C66.0054 287.982 66.1438 287.901 66.2989 287.861C66.4541 287.821 66.619 287.822 66.7731 287.866C66.9271 287.91 67.0632 287.993 67.1643 288.106C67.2319 288.181 67.2821 288.268 67.3121 288.361C67.3422 288.454 67.3514 288.551 67.3393 288.647C67.3272 288.743 67.294 288.836 67.2417 288.921C67.1894 289.005 67.1189 289.08 67.0343 289.14Z" fill="#56303C"/>
<path d="M66.2541 284.76H69.9841V285.103C69.9841 285.515 69.8017 285.91 69.4769 286.201C69.1522 286.492 68.7118 286.655 68.2526 286.655H64.2488V286.557C64.2488 286.08 64.4601 285.623 64.8362 285.286C65.2122 284.949 65.7223 284.76 66.2541 284.76Z" fill="#56303C"/>
<path d="M76.989 278.702C75.8289 281.337 72.3077 282.557 69.1183 281.432C67.6903 280.934 66.5065 279.996 65.7785 278.788C65.0556 279.12 64.2614 279.308 63.4499 279.34C62.6385 279.372 61.829 279.246 61.0766 278.972C60.4822 278.763 59.9306 278.468 59.4443 278.098L59.4683 278.288C59.6324 279.607 59.3534 280.941 58.667 282.117C57.9805 283.294 56.9178 284.26 55.6151 284.892L54.2463 285.551C53.4797 287.44 52.7029 289.094 54.6706 290.765L57.9626 292.961L58.9379 292.655C61.7039 291.769 64.7268 291.769 67.4929 292.655L65.3233 298.835C65.1701 299.261 64.9022 299.647 64.5434 299.959C64.1846 300.27 63.7458 300.498 63.2657 300.621C62.7856 300.745 62.2789 300.761 61.7904 300.668C61.3018 300.574 60.8463 300.375 60.4641 300.087L51.057 292.989C50.5196 292.582 50.1244 292.046 49.9187 291.443C49.7129 290.84 49.7054 290.197 49.8969 289.591L51.5292 285.91C51.9149 285.032 51.9119 284.055 51.5207 283.178C51.1295 282.302 50.3798 281.593 49.4246 281.196L49.3391 281.162C48.3334 280.741 47.1828 280.694 46.1384 281.03C45.094 281.367 44.2406 282.06 43.7646 282.959L44.7913 276.193C44.9721 274.974 45.6832 273.868 46.7696 273.116C47.8561 272.365 49.2298 272.029 50.5916 272.181C50.6411 272.009 50.7016 271.84 50.7729 271.675C51.7995 269.344 54.9204 268.264 57.7299 269.261C58.6288 269.577 59.4253 270.089 60.0466 270.752C60.7777 270.401 61.586 270.199 62.4141 270.16C63.2422 270.122 64.0696 270.247 64.8374 270.528C65.9079 270.904 66.8282 271.558 67.4792 272.408C68.3386 271.898 69.3243 271.584 70.3503 271.493C71.3762 271.403 72.4113 271.539 73.365 271.89C76.5236 273.015 78.1525 276.067 76.989 278.702Z" fill="#56303C"/>
</svg>
