<svg width="810" height="541" viewBox="0 0 810 541" fill="none" xmlns="http://www.w3.org/2000/svg">
<path d="M140.804 129.401C136.724 112.735 165.08 92.2917 204.134 83.7432C231.639 77.7224 257.116 79.2141 271.205 86.4294C273.393 87.5573 275.293 89.1245 276.771 91.021C278.25 92.9174 279.271 95.097 279.763 97.4067L295.029 167.912L413.589 257.559L325.064 372.613L255.389 293.76L274.049 349.076C275.693 354.157 276.13 359.519 275.329 364.779C274.529 370.038 272.51 375.066 269.418 379.502L266.479 383.723C266.005 384.404 265.356 384.959 264.593 385.338C263.83 385.717 262.977 385.906 262.115 385.888C261.254 385.87 260.411 385.645 259.666 385.235C258.922 384.824 258.299 384.242 257.858 383.542L193.983 282.264C184.026 266.486 180.153 247.934 183.022 229.762L187.622 200.606L140.804 129.401Z" fill="#FFAFB1"/>
<path d="M247.289 365.159C251.623 363.461 256.592 363.996 260.076 366.974C265.03 371.22 265.105 378.769 260.241 383.862" stroke="#56303C" stroke-width="10.28" stroke-miterlimit="10" stroke-linecap="round"/>
<path d="M618.061 200.606L624.769 213.545C634.85 232.986 636.995 255.259 630.792 276.102L586.448 425.127C586.213 425.917 585.797 426.649 585.229 427.27C584.661 427.891 583.955 428.387 583.162 428.721C582.369 429.055 581.508 429.221 580.64 429.205C579.772 429.19 578.918 428.994 578.139 428.631L573.475 426.46C568.653 424.216 564.584 420.751 561.72 416.45C558.857 412.149 557.311 407.181 557.254 402.099L556.883 368.341L405.998 465.149C403.778 466.575 401.118 467.26 398.439 467.094C395.761 466.928 393.218 465.922 391.213 464.234C389.208 462.546 387.857 460.274 387.373 457.777C386.889 455.281 387.3 452.703 388.541 450.452L397.898 433.469L367.504 456.875C364.901 458.876 361.617 459.912 358.265 459.79C354.913 459.667 351.723 458.394 349.292 456.208C346.861 454.023 345.354 451.075 345.055 447.915C344.755 444.756 345.683 441.602 347.664 439.042L364.978 416.714L347.38 432.452C345.118 434.493 342.137 435.668 339.013 435.752C335.888 435.836 332.841 434.823 330.461 432.908C328.08 430.993 326.533 428.311 326.12 425.382C325.707 422.452 326.456 419.481 328.222 417.042L345.383 394.844L328.794 403.883C326.443 405.05 323.745 405.431 321.136 404.963C318.528 404.496 316.163 403.208 314.427 401.309C312.69 399.41 311.684 397.011 311.572 394.503C311.46 391.995 312.249 389.524 313.809 387.493L452.018 207.612C459.815 197.456 469.926 189.087 481.603 183.122C493.28 177.157 506.225 173.748 519.482 173.149L527.65 109.638C534.73 95.7677 570.689 89.5403 602.547 96.2348C639.104 103.928 663.943 129.319 658.821 144.862L658.767 145.021L618.061 200.606Z" fill="#FFAFB1"/>
<path d="M556.88 368.333L561.302 311.23L550.559 293.757" stroke="#56303C" stroke-width="10.82" stroke-miterlimit="10" stroke-linecap="round"/>
<path d="M618.061 200.606C618.061 200.606 612.134 193.985 602.158 188.533" stroke="#56303C" stroke-width="10.82" stroke-miterlimit="10" stroke-linecap="round"/>
<path d="M584.67 426.834C579.666 424.637 576.244 420.173 576.244 415.021C576.244 407.696 583.174 401.757 591.723 401.757" stroke="#56303C" stroke-width="10.82" stroke-miterlimit="10" stroke-linecap="round"/>
<path d="M550.558 292.199C544.207 311.006 534.095 327.383 521.655 340.424C519.773 342.4 517.838 344.298 515.851 346.116L500.234 358.151L402.927 433.16L305.62 358.151L289.985 346.099C288.004 344.282 286.072 342.388 284.19 340.415C271.753 327.374 261.639 310.998 255.287 292.19C235.662 234.069 259.429 174.754 308.371 159.709C341.18 149.624 376.972 165.384 402.915 192.142C428.861 165.384 464.653 149.624 497.463 159.709C546.416 174.763 570.183 234.078 550.558 292.199Z" fill="#EDE0C4"/>
<path d="M314.369 434.017V157.709" stroke="#D9AF00" stroke-width="4.33" stroke-miterlimit="10"/>
<path d="M301.148 434.017V162.091" stroke="#D9AF00" stroke-width="4.33" stroke-miterlimit="10"/>
<path d="M327.992 434.017V157.709" stroke="#D9AF00" stroke-width="4.33" stroke-miterlimit="10"/>
<path d="M341.618 434.017V157.709" stroke="#D9AF00" stroke-width="4.33" stroke-miterlimit="10"/>
<path d="M355.24 434.017V162.091" stroke="#D9AF00" stroke-width="4.33" stroke-miterlimit="10"/>
<path d="M368.863 434.017V166.472" stroke="#D9AF00" stroke-width="4.33" stroke-miterlimit="10"/>
<path d="M382.486 434.017V175.237" stroke="#D9AF00" stroke-width="4.33" stroke-miterlimit="10"/>
<path d="M396.108 434.017V175.237" stroke="#D9AF00" stroke-width="4.33" stroke-miterlimit="10"/>
<path d="M260.468 434.017V175.237" stroke="#D9AF00" stroke-width="4.33" stroke-miterlimit="10"/>
<path d="M274.091 434.017V175.237" stroke="#D9AF00" stroke-width="4.33" stroke-miterlimit="10"/>
<path d="M287.714 434.017V166.472" stroke="#D9AF00" stroke-width="4.33" stroke-miterlimit="10"/>
<path d="M409.345 288.041H246.63" stroke="#D9AF00" stroke-width="4.33" stroke-miterlimit="10"/>
<path d="M409.345 275.043H246.63" stroke="#D9AF00" stroke-width="4.33" stroke-miterlimit="10"/>
<path d="M409.345 262.042H246.63" stroke="#D9AF00" stroke-width="4.33" stroke-miterlimit="10"/>
<path d="M409.345 249.044H246.63" stroke="#D9AF00" stroke-width="4.33" stroke-miterlimit="10"/>
<path d="M409.345 236.046H246.63" stroke="#D9AF00" stroke-width="4.33" stroke-miterlimit="10"/>
<path d="M409.345 223.048H246.63" stroke="#D9AF00" stroke-width="4.33" stroke-miterlimit="10"/>
<path d="M409.345 210.05H246.63" stroke="#D9AF00" stroke-width="4.33" stroke-miterlimit="10"/>
<path d="M409.345 197.052H247.396" stroke="#D9AF00" stroke-width="4.33" stroke-miterlimit="10"/>
<path d="M409.345 184.051H246.63" stroke="#D9AF00" stroke-width="4.33" stroke-miterlimit="10"/>
<path d="M409.345 392.104H246.63" stroke="#D9AF00" stroke-width="4.33" stroke-miterlimit="10"/>
<path d="M409.345 405.24H246.63" stroke="#D9AF00" stroke-width="4.33" stroke-miterlimit="10"/>
<path d="M409.345 379.106H246.63" stroke="#D9AF00" stroke-width="4.33" stroke-miterlimit="10"/>
<path d="M409.345 366.109H246.63" stroke="#D9AF00" stroke-width="4.33" stroke-miterlimit="10"/>
<path d="M409.345 353.11H246.63" stroke="#D9AF00" stroke-width="4.33" stroke-miterlimit="10"/>
<path d="M409.345 340.113H246.63" stroke="#D9AF00" stroke-width="4.33" stroke-miterlimit="10"/>
<path d="M409.345 327.112H246.63" stroke="#D9AF00" stroke-width="4.33" stroke-miterlimit="10"/>
<path d="M409.345 314.114H246.63" stroke="#D9AF00" stroke-width="4.33" stroke-miterlimit="10"/>
<path d="M409.345 301.116H247.396" stroke="#D9AF00" stroke-width="4.33" stroke-miterlimit="10"/>
<path d="M464.252 434.017V157.709" stroke="#D9AF00" stroke-width="4.33" stroke-miterlimit="10"/>
<path d="M451.03 434.017V162.091" stroke="#D9AF00" stroke-width="4.33" stroke-miterlimit="10"/>
<path d="M477.874 434.017V157.709" stroke="#D9AF00" stroke-width="4.33" stroke-miterlimit="10"/>
<path d="M491.497 434.017V157.709" stroke="#D9AF00" stroke-width="4.33" stroke-miterlimit="10"/>
<path d="M505.123 434.017V162.091" stroke="#D9AF00" stroke-width="4.33" stroke-miterlimit="10"/>
<path d="M518.745 434.017V167.349" stroke="#D9AF00" stroke-width="4.33" stroke-miterlimit="10"/>
<path d="M532.368 434.017V175.237" stroke="#D9AF00" stroke-width="4.33" stroke-miterlimit="10"/>
<path d="M545.991 434.017V175.237" stroke="#D9AF00" stroke-width="4.33" stroke-miterlimit="10"/>
<path d="M410.351 434.017V175.237" stroke="#D9AF00" stroke-width="4.33" stroke-miterlimit="10"/>
<path d="M423.973 434.017V175.237" stroke="#D9AF00" stroke-width="4.33" stroke-miterlimit="10"/>
<path d="M437.596 434.017V167.349" stroke="#D9AF00" stroke-width="4.33" stroke-miterlimit="10"/>
<path d="M559.227 288.041H396.512" stroke="#D9AF00" stroke-width="4.33" stroke-miterlimit="10"/>
<path d="M559.227 275.043H396.512" stroke="#D9AF00" stroke-width="4.33" stroke-miterlimit="10"/>
<path d="M559.227 262.042H396.512" stroke="#D9AF00" stroke-width="4.33" stroke-miterlimit="10"/>
<path d="M559.227 249.044H396.512" stroke="#D9AF00" stroke-width="4.33" stroke-miterlimit="10"/>
<path d="M559.227 236.046H396.512" stroke="#D9AF00" stroke-width="4.33" stroke-miterlimit="10"/>
<path d="M559.227 223.048H396.512" stroke="#D9AF00" stroke-width="4.33" stroke-miterlimit="10"/>
<path d="M559.227 210.05H396.512" stroke="#D9AF00" stroke-width="4.33" stroke-miterlimit="10"/>
<path d="M559.227 197.052H397.279" stroke="#D9AF00" stroke-width="4.33" stroke-miterlimit="10"/>
<path d="M559.227 184.051H396.512" stroke="#D9AF00" stroke-width="4.33" stroke-miterlimit="10"/>
<path d="M518.817 170.47H287.22" stroke="#D9AF00" stroke-width="4.33" stroke-miterlimit="10"/>
<path d="M559.227 392.104H396.512" stroke="#D9AF00" stroke-width="4.33" stroke-miterlimit="10"/>
<path d="M559.227 405.24H396.512" stroke="#D9AF00" stroke-width="4.33" stroke-miterlimit="10"/>
<path d="M522.49 417.946H359.775" stroke="#D9AF00" stroke-width="4.33" stroke-miterlimit="10"/>
<path d="M559.227 379.106H396.512" stroke="#D9AF00" stroke-width="4.33" stroke-miterlimit="10"/>
<path d="M559.227 366.109H396.512" stroke="#D9AF00" stroke-width="4.33" stroke-miterlimit="10"/>
<path d="M559.227 353.11H396.512" stroke="#D9AF00" stroke-width="4.33" stroke-miterlimit="10"/>
<path d="M559.227 340.113H396.512" stroke="#D9AF00" stroke-width="4.33" stroke-miterlimit="10"/>
<path d="M559.227 327.112H396.512" stroke="#D9AF00" stroke-width="4.33" stroke-miterlimit="10"/>
<path d="M559.227 314.114H396.512" stroke="#D9AF00" stroke-width="4.33" stroke-miterlimit="10"/>
<path d="M559.227 301.116H397.279" stroke="#D9AF00" stroke-width="4.33" stroke-miterlimit="10"/>
<path d="M550.559 292.202C544.207 311.006 534.095 327.383 521.655 340.424C519.773 342.4 517.838 344.298 515.851 346.116L504.111 355.164H419.735C390.672 355.164 375.796 321.916 395.899 301.89L451.416 246.57L556.967 246.133C558.293 261.673 555.8 276.668 550.559 292.202Z" fill="#56303C"/>
<path d="M473.767 323.47H512.118C519.798 323.471 527.307 321.309 533.704 317.255C540.101 313.201 545.102 307.436 548.08 300.682L550.062 296.189" stroke="#FFAFB1" stroke-width="5.41" stroke-miterlimit="10" stroke-linecap="round"/>
<path d="M539.585 320.514L523.535 349.146L533.517 353.645C539.306 356.429 543.886 361.065 546.458 366.743C546.553 366.957 546.728 367.13 546.949 367.228C547.17 367.327 547.422 367.345 547.655 367.277C547.889 367.21 548.088 367.063 548.215 366.864C548.342 366.665 548.388 366.429 548.343 366.2L539.585 320.514Z" fill="#A0D6FF"/>
<path d="M539.585 320.514L548.341 366.2" stroke="#56303C" stroke-width="8.12" stroke-miterlimit="10" stroke-linecap="round"/>
<path d="M527.618 358.311C526.744 358.311 525.907 357.98 525.289 357.391C524.672 356.802 524.325 356.003 524.325 355.17C524.325 354.337 524.672 353.537 525.289 352.948C525.907 352.359 526.744 352.028 527.618 352.028H530.012C530.132 352.026 530.25 352.047 530.361 352.089C530.471 352.131 530.572 352.194 530.657 352.274C530.742 352.354 530.81 352.449 530.856 352.554C530.902 352.659 530.925 352.771 530.925 352.885V355.17C530.925 355.584 530.84 355.993 530.673 356.375C530.507 356.757 530.263 357.104 529.956 357.396C529.648 357.688 529.284 357.919 528.882 358.076C528.481 358.233 528.051 358.313 527.618 358.311Z" stroke="white" stroke-width="5.41" stroke-miterlimit="10" stroke-linecap="round"/>
<path d="M530.482 347.575L530.913 352.891" stroke="white" stroke-width="5.41" stroke-miterlimit="10" stroke-linecap="round"/>
<path d="M556.261 235.109C561.302 261.671 547.419 279.781 525.705 289.34L453.078 321.308L444.996 300.702L510.002 254.296L485.87 261.528C479.216 263.52 472.034 263.167 465.631 260.532C459.227 257.898 454.028 253.157 450.979 247.173L436.013 217.798C435.651 217.145 435.141 216.578 434.52 216.138C433.898 215.698 433.181 215.397 432.421 215.257C431.661 215.116 430.878 215.141 430.13 215.327C429.381 215.514 428.686 215.859 428.095 216.336L412.23 229.76C411.332 223.679 410.021 217.601 408.528 211.481C407.361 203.547 404.469 195.933 400.036 189.129C425.982 162.413 464.692 149.627 497.469 159.712C527.645 168.988 548.706 192.022 555.474 224.296L556.261 235.109Z" fill="#D9AF00"/>
<path d="M400.901 188.764C400.901 188.764 408.115 198.089 409.363 211.058" stroke="#56303C" stroke-width="6.49" stroke-miterlimit="10" stroke-linecap="round"/>
<path d="M516.836 229.431L509.547 253.428" stroke="#56303C" stroke-width="6.49" stroke-miterlimit="10" stroke-linecap="round"/>
<path d="M455.837 177.933C455.837 164.37 466.892 156.65 482.227 156.65C497.562 156.65 505.398 170.316 505.398 182.315L509.99 254.288L478.431 264.13L484.118 192.102L455.837 177.933Z" fill="#56303C"/>
<path d="M486.486 187.424V182.886" stroke="#D9AF00" stroke-width="5.41" stroke-miterlimit="10" stroke-linecap="round"/>
<path d="M489.048 186.059L486.486 187.424C486.486 187.424 469.52 192.516 460.321 172.455L455.831 178.322L456.96 190.983C457.789 200.294 468.664 205.454 476.943 200.465L488.426 193.548C489.488 192.905 490.353 192.005 490.931 190.939C491.509 189.873 491.781 188.68 491.719 187.481C491.705 187.189 491.614 186.905 491.453 186.656C491.292 186.407 491.067 186.201 490.8 186.059C490.532 185.916 490.231 185.841 489.924 185.841C489.618 185.841 489.316 185.916 489.048 186.059Z" fill="#B4702F"/>
<path d="M456.358 184.174L459.6 185.651C460.617 186.197 461.474 186.976 462.095 187.919C462.715 188.862 463.079 189.938 463.153 191.049L463.569 197.26" stroke="#56303C" stroke-width="5.41" stroke-miterlimit="10" stroke-linecap="round"/>
<path d="M474.86 192.731C474.126 193.259 473.225 193.532 472.307 193.505C471.109 193.505 470.077 193.108 469.52 192.516" stroke="#56303C" stroke-width="5.41" stroke-miterlimit="10" stroke-linecap="round"/>
<path d="M460.342 190.532C460.108 190.78 459.82 190.977 459.499 191.111C459.178 191.244 458.831 191.311 458.481 191.306C458.084 191.313 457.691 191.227 457.337 191.055C456.983 190.883 456.679 190.631 456.451 190.32" stroke="#56303C" stroke-width="5.41" stroke-miterlimit="10" stroke-linecap="round"/>
<path d="M499.244 267.145L458.01 292.596L450.572 335.874L477.192 352.314C479.138 353.515 480.757 355.14 481.918 357.054C483.079 358.969 483.747 361.118 483.869 363.327C483.991 365.535 483.562 367.74 482.619 369.76C481.675 371.78 480.243 373.558 478.44 374.948L428.308 413.591C428.045 413.792 427.721 413.907 427.384 413.918C427.046 413.928 426.715 413.834 426.439 413.649C426.163 413.463 425.958 413.198 425.855 412.891C425.751 412.585 425.755 412.255 425.865 411.951L433.588 390.779C433.985 389.689 434.808 388.787 435.884 388.26C436.961 387.734 438.208 387.623 439.368 387.952L443.089 389.008L458.01 366.648L432.283 360.902L398.159 416.701L404.127 427.808C404.603 428.695 404.744 429.711 404.526 430.685C404.308 431.659 403.744 432.531 402.93 433.155L383.803 418.412C382.403 417.332 381.391 415.863 380.908 414.209C380.426 412.555 380.496 410.798 381.109 409.184L427.332 287.641C428.489 284.597 430.382 281.856 432.857 279.64C435.332 277.424 438.319 275.796 441.577 274.888L504.162 255.815C503.626 255.998 497.049 258.372 499.244 267.145Z" fill="#A0D6FF"/>
<path d="M461.929 367.445L458.013 366.654L459.654 364.398" stroke="white" stroke-width="5.41" stroke-miterlimit="10" stroke-linecap="round"/>
<path d="M432.28 360.907L430.879 360.453C429.117 359.881 427.543 358.878 426.315 357.544C425.087 356.21 424.247 354.591 423.88 352.85" stroke="white" stroke-width="5.41" stroke-miterlimit="10" stroke-linecap="round"/>
<path d="M431.082 274.931L428.089 285.924L428.505 285.159C430.941 280.664 435.105 277.242 440.125 275.611L455.209 270.756L453.553 268.579C453.142 268.039 452.563 267.637 451.898 267.428C451.234 267.22 450.517 267.217 449.851 267.42L433.669 272.341C433.044 272.53 432.479 272.866 432.027 273.319C431.575 273.772 431.25 274.326 431.082 274.931Z" fill="white"/>
<path d="M434.501 387.629L425.407 414.148" stroke="#56303C" stroke-width="6.49" stroke-miterlimit="10" stroke-linecap="round"/>
<path d="M379.013 414.727L402.927 433.16" stroke="#56303C" stroke-width="6.49" stroke-miterlimit="10" stroke-linecap="round"/>
<path d="M522.981 261.945C523.143 262.05 523.279 262.189 523.378 262.351C523.477 262.513 523.538 262.694 523.555 262.881C523.572 263.068 523.546 263.256 523.477 263.432C523.409 263.608 523.301 263.767 523.16 263.898L519.984 266.86C518.94 267.834 517.594 268.458 516.146 268.639C514.699 268.821 513.228 268.549 511.956 267.865L506.718 265.046C506.061 264.693 505.315 264.518 504.561 264.54C503.808 264.562 503.074 264.779 502.441 265.169L499.244 267.146C497.05 258.372 503.626 256.007 504.162 255.821H504.195L506.7 255.059C507.909 254.691 509.19 254.59 510.446 254.765C511.702 254.941 512.899 255.387 513.947 256.07L522.981 261.945Z" fill="#B4702F"/>
<path d="M517.015 261.673L521.314 264.327" stroke="#56303C" stroke-width="5.41" stroke-miterlimit="10" stroke-linecap="round"/>
<path d="M514.719 263.864L519.018 266.517" stroke="#56303C" stroke-width="5.41" stroke-miterlimit="10" stroke-linecap="round"/>
<path d="M449.647 267.802L431.624 272.943C430.409 273.291 429.111 273.274 427.906 272.895C426.701 272.516 425.647 271.793 424.886 270.824L419.839 264.407C418.536 262.749 417.65 260.828 417.25 258.792C416.849 256.756 416.945 254.659 417.529 252.663C418.113 250.668 419.17 248.828 420.619 247.284C422.067 245.741 423.868 244.536 425.883 243.763L437.129 239.444C439.328 238.6 441.776 238.554 444.008 239.316C446.24 240.079 448.102 241.596 449.24 243.58L452.12 248.595L455.577 249.664C455.716 249.706 455.844 249.774 455.955 249.864C456.066 249.954 456.157 250.064 456.224 250.187C456.29 250.311 456.331 250.446 456.342 250.584C456.354 250.723 456.337 250.862 456.292 250.994L455.254 254.062L455.427 254.347C456.131 255.569 456.539 256.926 456.622 258.318C456.705 259.71 456.461 261.102 455.906 262.393C455.352 263.683 454.502 264.838 453.419 265.774C452.336 266.71 451.047 267.403 449.647 267.802Z" fill="#B4702F"/>
<path d="M432.953 263.264C432.121 262.618 431.111 262.215 430.045 262.104C428.978 261.994 427.901 262.179 426.943 262.639L426.832 262.693C425.691 263.239 424.777 264.136 424.237 265.24C423.697 266.343 423.563 267.588 423.856 268.773L423.407 268.951L419.839 264.412C418.536 262.755 417.65 260.834 417.25 258.798C416.849 256.761 416.945 254.665 417.529 252.669C418.113 250.674 419.17 248.833 420.619 247.29C422.067 245.747 423.868 244.542 425.883 243.769L437.129 239.45C438.646 238.865 440.294 238.659 441.918 238.85C444.053 247.336 440.559 256.729 432.953 263.264Z" fill="#56303C"/>
<path d="M427.425 265.9C427.425 265.9 431.017 264.806 432.298 267.745" stroke="#56303C" stroke-width="5.41" stroke-miterlimit="10" stroke-linecap="round"/>
<path d="M428.954 268.074L429.861 265.777" stroke="#56303C" stroke-width="5.41" stroke-miterlimit="10" stroke-linecap="round"/>
<path d="M449.21 252.939C449.926 252.939 450.506 252.386 450.506 251.703C450.506 251.02 449.926 250.466 449.21 250.466C448.494 250.466 447.914 251.02 447.914 251.703C447.914 252.386 448.494 252.939 449.21 252.939Z" fill="#56303C"/>
<path d="M282.454 338.459C280.892 337.031 278.353 333.478 276.788 331.793C267.383 319.831 260.15 306.448 255.388 292.202C235.761 234.078 259.522 174.763 308.472 159.717C315.62 157.519 323.069 156.345 330.578 156.233C342.237 156.047 353.926 158.366 365.067 162.845C371.46 165.431 377.56 168.629 383.276 172.39C390.098 176.881 395.866 182.676 400.214 189.408C404.562 196.141 407.395 203.662 408.534 211.495C416.936 245.925 419.226 279.038 379.744 318.818L282.454 338.459Z" fill="#A0D6FF"/>
<path d="M357.141 184.339L355.153 205.217L337.424 194.864L319.982 204.249L318.724 184.339H357.141Z" fill="white"/>
<path d="M337.969 206.368C339.038 206.368 339.905 205.541 339.905 204.52C339.905 203.5 339.038 202.673 337.969 202.673C336.899 202.673 336.032 203.5 336.032 204.52C336.032 205.541 336.899 206.368 337.969 206.368Z" stroke="#D9AF00" stroke-width="5.41" stroke-miterlimit="10" stroke-linecap="round"/>
<path d="M337.969 219.309C339.038 219.309 339.905 218.482 339.905 217.461C339.905 216.441 339.038 215.613 337.969 215.613C336.899 215.613 336.032 216.441 336.032 217.461C336.032 218.482 336.899 219.309 337.969 219.309Z" stroke="white" stroke-width="5.41" stroke-miterlimit="10" stroke-linecap="round"/>
<path d="M364.214 178.128L363.49 180.478C363.168 181.522 362.5 182.439 361.587 183.091C360.673 183.742 359.563 184.094 358.422 184.094H357.078C356.518 187.325 354.774 190.262 352.157 192.381C349.539 194.5 346.218 195.664 342.785 195.664H333.158C329.786 195.665 326.52 194.543 323.922 192.493C321.323 190.442 319.556 187.591 318.925 184.431H317.518C316.378 184.431 315.268 184.079 314.355 183.427C313.442 182.775 312.775 181.859 312.453 180.815L311.729 178.465C311.58 177.983 311.551 177.475 311.644 176.981C311.737 176.487 311.949 176.02 312.264 175.618C312.579 175.216 312.988 174.89 313.458 174.665C313.929 174.44 314.448 174.323 314.974 174.323H315.638C316.125 174.323 316.601 174.456 317.01 174.706C317.42 174.956 317.746 175.313 317.949 175.734C320.942 173.512 322.924 169.514 322.924 164.944C322.926 164.385 322.893 163.826 322.825 163.27C329.83 167.129 340.294 169.665 347.158 169.302C349.154 169.231 351.133 168.917 353.046 168.368C353.779 171.559 355.519 174.238 357.82 175.871C357.926 175.34 358.223 174.86 358.661 174.516C359.098 174.171 359.648 173.984 360.215 173.986H360.981C361.506 173.988 362.023 174.107 362.492 174.333C362.961 174.559 363.368 174.885 363.681 175.287C363.995 175.689 364.206 176.154 364.299 176.647C364.391 177.14 364.362 177.647 364.214 178.128Z" fill="#B4702F"/>
<path d="M348.445 181.001C347.757 181.496 346.912 181.751 346.051 181.723C344.937 181.723 343.955 181.352 343.443 180.801" stroke="#56303C" stroke-width="5.41" stroke-miterlimit="10" stroke-linecap="round"/>
<path d="M331.913 181.001C331.225 181.496 330.38 181.751 329.518 181.723C328.405 181.723 327.423 181.352 326.911 180.801" stroke="#56303C" stroke-width="5.41" stroke-miterlimit="10" stroke-linecap="round"/>
<path d="M335.218 176.908L337.008 188.698H340.582" stroke="#56303C" stroke-width="5.41" stroke-miterlimit="10" stroke-linecap="round"/>
<path d="M335.344 177.668H322.472L323.67 175.428C323.865 175.059 324.165 174.749 324.535 174.532C324.905 174.316 325.331 174.202 325.765 174.203H332.859C333.568 174.207 334.255 174.435 334.813 174.851C335.371 175.268 335.768 175.85 335.942 176.505L336.029 176.828C336.055 176.927 336.058 177.031 336.036 177.132C336.014 177.232 335.968 177.327 335.902 177.408C335.835 177.489 335.751 177.554 335.654 177.599C335.557 177.644 335.451 177.668 335.344 177.668Z" fill="#56303C"/>
<path d="M353.63 177.668H340.842L341.944 175.428C342.111 175.069 342.383 174.763 342.726 174.546C343.07 174.329 343.471 174.21 343.883 174.203H350.469C351.151 174.22 351.807 174.457 352.329 174.875C352.852 175.293 353.211 175.868 353.348 176.505L353.63 177.668Z" fill="#56303C"/>
<path d="M360.46 154.948L357.976 175.983C355.581 174.36 353.785 171.633 353.04 168.368C351.127 168.917 349.148 169.231 347.152 169.302C340.288 169.665 329.824 167.129 322.819 163.27C322.887 163.826 322.92 164.385 322.918 164.944C322.918 169.514 320.924 173.512 317.934 175.743L315.498 154.582C315.797 146.939 325.759 144.109 337.984 144.109C350.391 144.1 360.46 147.022 360.46 154.948Z" fill="#56303C"/>
<path d="M330.659 348.635C317.419 347.735 305.533 334.143 301.124 304.74C296.978 277.105 295.296 252.645 313.097 247.904C321.853 245.568 330.782 248.721 338.54 255.73L347.544 239.91L359.006 244.131L350.75 271.835C353.489 276.995 355.681 282.403 357.294 287.978C358.054 290.574 358.668 293.162 359.138 295.721C362.762 295.827 366.312 296.726 369.515 298.348C377.72 302.632 381.118 308.987 379.869 318.321C380.551 318.906 381.191 319.534 381.785 320.2C392.459 332.127 389.595 347.584 362.559 363.684C358.198 366.283 351.744 370.187 346.769 373.203L354.899 391.065C355.017 391.512 354.984 391.983 354.806 392.412C354.628 392.84 354.312 393.204 353.905 393.452C353.498 393.7 353.019 393.82 352.537 393.794C352.054 393.767 351.593 393.597 351.217 393.307L327.624 375.119C325.732 373.663 324.435 371.621 323.957 369.347C323.479 367.074 323.851 364.712 325.008 362.673L330.659 348.635Z" fill="white"/>
<path d="M334.781 266.078L318.62 266.317" stroke="#D9AF00" stroke-width="4.85" stroke-miterlimit="10" stroke-linecap="round"/>
<path d="M311.008 285.993L336.451 285.681C339.364 285.646 342.19 284.725 344.518 283.053C346.845 281.381 348.554 279.044 349.394 276.382L358.823 244.748" stroke="#D9AF00" stroke-width="4.85" stroke-miterlimit="10" stroke-linecap="round"/>
<path d="M379.654 318.818C379.654 318.818 382.626 337.871 350.343 367.445" stroke="#D9AF00" stroke-width="5.41" stroke-miterlimit="10" stroke-linecap="round"/>
<path d="M330.659 348.635L346.503 328.625" stroke="#D9AF00" stroke-width="5.41" stroke-miterlimit="10" stroke-linecap="round"/>
<path d="M346.721 241.224L345.602 232.047C345.568 231.757 345.651 231.465 345.836 231.232C346.02 230.999 346.291 230.842 346.593 230.793C346.866 230.752 347.147 230.803 347.386 230.937C347.625 231.07 347.808 231.279 347.904 231.528L349.122 234.715C349.171 234.846 349.261 234.96 349.38 235.041C349.498 235.123 349.639 235.169 349.785 235.173C349.931 235.177 350.075 235.139 350.198 235.064C350.321 234.989 350.417 234.88 350.475 234.752L354.255 226.427C354.348 226.216 354.485 226.025 354.656 225.865C354.828 225.705 355.031 225.58 355.255 225.496C355.478 225.413 355.716 225.373 355.956 225.378C356.196 225.384 356.432 225.436 356.65 225.53L359.524 226.732C360.551 227.163 361.386 227.927 361.879 228.889C362.372 229.851 362.492 230.949 362.218 231.987L359.012 244.126C359.012 244.126 352.016 246.765 346.721 241.224Z" fill="#B4702F"/>
<path d="M356.797 226.429L354.734 231.562" stroke="#56303C" stroke-width="4.33" stroke-miterlimit="10" stroke-linecap="round"/>
<path d="M359.123 227.189L357.06 232.333" stroke="#56303C" stroke-width="4.33" stroke-miterlimit="10" stroke-linecap="round"/>
<path d="M360.928 228.423L359.167 232.804" stroke="#56303C" stroke-width="4.33" stroke-miterlimit="10" stroke-linecap="round"/>
<path d="M311.996 254.642C300.893 255.807 293.736 253.374 292.479 242.361C291.882 237.373 293.234 232.35 296.277 228.254C295.87 228.344 295.457 228.41 295.041 228.454C292.739 228.694 290.419 228.206 288.435 227.067C286.452 225.928 284.914 224.2 284.058 222.147C283.202 220.094 283.074 217.831 283.695 215.702C284.316 213.574 285.651 211.699 287.496 210.364C289.341 209.029 291.593 208.307 293.908 208.31C296.224 208.313 298.474 209.04 300.315 210.379C302.156 211.719 303.486 213.598 304.102 215.727C304.717 217.857 304.583 220.121 303.722 222.171C305.778 221.195 307.998 220.575 310.28 220.337C321.383 219.172 331.407 227.143 332.676 238.142C333.946 249.141 323.092 253.476 311.996 254.642Z" fill="#D9AF00"/>
<path d="M294.972 231.21C294.474 231.127 293.999 230.951 293.572 230.693C293.146 230.434 292.777 230.097 292.487 229.702C292.197 229.307 291.991 228.861 291.882 228.39C291.773 227.92 291.762 227.433 291.85 226.958V226.958C291.938 226.484 292.124 226.03 292.395 225.624C292.667 225.218 293.02 224.867 293.434 224.592C293.848 224.316 294.315 224.12 294.808 224.017C295.301 223.913 295.81 223.903 296.307 223.988L300.094 224.63L299.42 228.243C299.242 229.199 298.673 230.048 297.839 230.604C297.005 231.16 295.974 231.378 294.972 231.21V231.21Z" stroke="#56303C" stroke-width="5.41" stroke-miterlimit="10" stroke-linecap="round"/>
<path d="M308.089 221.434C308.137 220.954 308.084 220.469 307.935 220.008C307.786 219.547 307.543 219.119 307.22 218.747C306.898 218.376 306.501 218.069 306.054 217.844C305.607 217.619 305.117 217.48 304.614 217.436V217.436C304.11 217.39 303.602 217.44 303.119 217.582C302.636 217.724 302.187 217.956 301.797 218.264C301.408 218.572 301.086 218.95 300.85 219.377C300.615 219.804 300.469 220.271 300.423 220.752L300.07 224.404L303.899 224.741C304.914 224.832 305.925 224.535 306.711 223.915C307.496 223.295 307.992 222.403 308.089 221.434V221.434Z" stroke="#56303C" stroke-width="5.41" stroke-miterlimit="10" stroke-linecap="round"/>
<path d="M330.635 258.309C324.6 261.419 315.668 259.68 310.834 253.893L309.263 255.204C308.794 255.594 308.248 255.89 307.657 256.073C307.066 256.256 306.442 256.323 305.823 256.27C305.203 256.216 304.602 256.044 304.055 255.762C303.508 255.481 303.026 255.097 302.638 254.633L301.698 253.536C300.888 252.593 300.49 251.387 300.588 250.17C300.685 248.954 301.271 247.82 302.222 247.005C303.053 246.304 304.124 245.917 305.234 245.916C306.116 245.918 306.979 246.161 307.721 246.616C308.632 246.733 309.555 246.746 310.469 246.653C316.683 246.034 321.149 240.861 320.449 235.095C320.235 233.341 319.552 231.668 318.464 230.24C320.107 231.418 322.073 232.116 324.124 232.248C326.175 232.38 328.222 231.94 330.015 230.982C331.114 232.244 332.111 234.078 333.057 236.62C336.451 245.665 339.181 253.905 330.635 258.309Z" fill="#B4702F"/>
<path d="M307.631 251.597C307.631 251.597 306.613 248.635 303.228 250.74" stroke="#56303C" stroke-width="5.05" stroke-miterlimit="10" stroke-linecap="round"/>
<path d="M331.859 235.398C327.968 235.9 326.322 240.19 327.07 245.522C327.444 248.17 328.567 250.469 330.063 252.051" stroke="#56303C" stroke-width="5.41" stroke-miterlimit="10" stroke-linecap="round"/>
<path d="M321.356 247.687C321.236 248.884 319.763 249.729 318.063 249.578" stroke="#56303C" stroke-width="5.41" stroke-miterlimit="10" stroke-linecap="round"/>
<path d="M332.521 241.772C332.413 242.846 331.09 243.606 329.566 243.466" stroke="#56303C" stroke-width="5.41" stroke-miterlimit="10" stroke-linecap="round"/>
<path d="M296.795 351.348L302.51 341.989C303.518 340.338 304.919 338.937 306.6 337.898C308.28 336.859 310.193 336.212 312.184 336.009C314.176 335.805 316.189 336.052 318.062 336.728C319.935 337.404 321.615 338.491 322.966 339.901L343.393 361.216L342.195 361.953C341.069 362.655 339.758 363.039 338.413 363.061C337.068 363.084 335.744 362.745 334.592 362.081L329.566 359.183C329.315 359.039 329.021 358.979 328.73 359.012C328.44 359.045 328.169 359.17 327.96 359.366C327.752 359.562 327.618 359.819 327.579 360.096C327.54 360.373 327.599 360.655 327.746 360.896L339.468 379.812C340.525 381.526 338.313 383.339 336.7 382.097L296.795 351.348Z" fill="#B4702F"/>
<path d="M311.502 336.094L305.554 324.384C305.554 324.384 289.39 325.527 282.367 338.447L283.613 339.975C286.188 343.133 289.198 345.944 292.563 348.332L296.795 351.34L311.502 336.094Z" fill="#56303C"/>
<path d="M302.037 335.574C303.106 335.574 303.973 334.747 303.973 333.726C303.973 332.706 303.106 331.878 302.037 331.878C300.967 331.878 300.1 332.706 300.1 333.726C300.1 334.747 300.967 335.574 302.037 335.574Z" stroke="#D9AF00" stroke-width="4.33" stroke-miterlimit="10" stroke-linecap="round"/>
<path d="M380.327 228.2C383.156 242.509 381.725 255.516 371.719 266.512L353.974 286.007" stroke="white" stroke-width="5.41" stroke-miterlimit="10" stroke-linecap="round"/>
<path d="M356.345 284.019L365.57 274.594C365.57 274.594 381.609 271.021 388.041 293.13L373.413 301.107L356.345 284.019Z" fill="#56303C"/>
<path d="M373.829 299.913C373.033 302.701 371.228 305.054 369.015 307.031C360.88 314.285 350.52 321.674 345.368 324.593C344.108 325.304 342.872 323.576 343.961 322.639L351.445 315.367L336.367 321.594C334.631 322.311 333.182 320.166 334.592 318.946L336.349 317.45L331.5 319.163C329.315 319.931 327.576 317.307 329.246 315.753L331.695 313.468L329.506 314.236C327.267 315.025 325.702 312.109 327.681 310.835L342.845 301.081L343.099 300.916C343.242 300.817 343.349 300.679 343.406 300.52C343.463 300.361 343.467 300.189 343.417 300.028C343.367 299.867 343.266 299.724 343.128 299.62C342.989 299.516 342.82 299.456 342.644 299.448C342.561 299.445 342.477 299.454 342.396 299.473L335.409 301.15C334.768 301.303 334.098 301.315 333.451 301.184C332.804 301.053 332.197 300.782 331.677 300.393L330.797 299.733L350.852 286.438C353.881 284.245 355.812 282.917 359.865 283.297C368.459 284.128 374.712 291.579 373.826 299.91L373.829 299.913Z" fill="#B4702F"/>
<path d="M331.695 313.46L344.868 306.322" stroke="#56303C" stroke-width="6.49" stroke-miterlimit="10" stroke-linecap="round"/>
<path d="M336.349 317.432L348.224 311.106" stroke="#56303C" stroke-width="6.49" stroke-miterlimit="10" stroke-linecap="round"/>
<path d="M366.777 281.854C367.846 281.854 368.713 281.027 368.713 280.007C368.713 278.986 367.846 278.159 366.777 278.159C365.707 278.159 364.84 278.986 364.84 280.007C364.84 281.027 365.707 281.854 366.777 281.854Z" stroke="#D9AF00" stroke-width="4.33" stroke-miterlimit="10" stroke-linecap="round"/>
<path d="M467.942 314.762L453.077 321.308L444.995 300.701L457.352 293.061C459.639 291.648 464.581 295.729 467.502 301.761C470.424 307.793 470.418 313.668 467.942 314.762Z" fill="#D9AF00"/>
<path d="M444.983 300.699H427.323C426.764 300.699 426.226 300.905 425.822 301.273C425.418 301.642 425.178 302.145 425.153 302.678C425.13 303.16 425.284 303.634 425.588 304.02C425.892 304.405 426.328 304.677 426.82 304.789L433.127 306.217C433.385 306.275 433.62 306.407 433.799 306.594C433.979 306.781 434.095 307.015 434.134 307.266C434.173 307.517 434.132 307.773 434.016 308.001C433.901 308.23 433.716 308.42 433.486 308.547L418.48 316.83C418.105 317.037 417.775 317.313 417.511 317.641C417.247 317.97 417.054 318.345 416.943 318.746C416.832 319.146 416.805 319.563 416.863 319.974C416.921 320.384 417.064 320.779 417.283 321.137L420.169 325.846C421.201 327.532 422.827 328.815 424.756 329.465C426.686 330.116 428.795 330.092 430.708 329.399L453.059 321.302C453.059 321.302 456.595 308.699 444.983 300.699Z" fill="#B4702F"/>
<path d="M419.136 322.016L428.439 317.372" stroke="#56303C" stroke-width="5.41" stroke-miterlimit="10" stroke-linecap="round"/>
<path d="M420.974 325.084L430.292 320.431" stroke="#56303C" stroke-width="5.41" stroke-miterlimit="10" stroke-linecap="round"/>
<path d="M423.692 327.94L431.63 323.976" stroke="#56303C" stroke-width="5.41" stroke-miterlimit="10" stroke-linecap="round"/>
<path d="M380.333 184.699L369.704 177.185C369.444 176.999 369.227 176.764 369.065 176.495C368.903 176.226 368.801 175.928 368.764 175.62C368.726 175.312 368.755 175 368.848 174.703C368.942 174.406 369.097 174.13 369.306 173.892L373.293 169.402C374.091 168.739 375.064 168.298 376.107 168.128C377.15 167.957 378.222 168.064 379.205 168.437L392.768 173.578C393.929 174.017 394.915 174.796 395.585 175.802C396.255 176.809 396.574 177.991 396.497 179.181L396.174 184.217L395.156 182.594C394.836 182.083 394.402 181.645 393.884 181.311C393.367 180.977 392.779 180.756 392.163 180.662C391.546 180.568 390.915 180.605 390.315 180.769C389.714 180.933 389.159 181.221 388.688 181.612L385.542 184.237C384.833 184.823 383.95 185.183 383.016 185.266C382.081 185.349 381.143 185.151 380.333 184.699Z" fill="#B4702F"/>
<path d="M371.407 177.628L377.34 171.019" stroke="#56303C" stroke-width="6.49" stroke-miterlimit="10" stroke-linecap="round"/>
<path d="M375.37 180.27L381.303 173.661" stroke="#56303C" stroke-width="6.49" stroke-miterlimit="10" stroke-linecap="round"/>
<path d="M379.214 182.886L385.147 176.277" stroke="#56303C" stroke-width="6.49" stroke-miterlimit="10" stroke-linecap="round"/>
</svg>
