<svg width="705" height="522" viewBox="0 0 705 522" fill="none" xmlns="http://www.w3.org/2000/svg">
<path d="M685.753 88.158H436.959C426.86 88.158 418.673 96.2064 418.673 106.135V511.862C418.673 521.79 426.86 529.839 436.959 529.839H685.753C695.851 529.839 704.038 521.79 704.038 511.862V106.135C704.038 96.2064 695.851 88.158 685.753 88.158Z" fill="#EDE0C4"/>
<path d="M638.556 240.337C639.419 239.358 639.31 237.876 638.314 237.029C637.317 236.181 635.811 236.287 634.948 237.267C634.086 238.246 634.194 239.728 635.191 240.576C636.187 241.424 637.694 241.317 638.556 240.337Z" fill="#56303C"/>
<path d="M591.363 162.408C591.673 161.149 590.887 159.881 589.607 159.575C588.326 159.27 587.036 160.043 586.725 161.302C586.414 162.561 587.201 163.829 588.481 164.134C589.762 164.44 591.052 163.667 591.363 162.408Z" fill="#56303C"/>
<path d="M600.892 177.79C601.203 176.531 600.417 175.263 599.136 174.957C597.855 174.652 596.565 175.425 596.255 176.684C595.944 177.943 596.73 179.211 598.011 179.517C599.291 179.822 600.581 179.049 600.892 177.79Z" fill="#56303C"/>
<path d="M610.428 193.17C610.739 191.911 609.953 190.642 608.672 190.337C607.391 190.031 606.101 190.804 605.79 192.063C605.48 193.322 606.266 194.591 607.547 194.896C608.827 195.202 610.117 194.429 610.428 193.17Z" fill="#56303C"/>
<path d="M619.961 208.552C620.271 207.293 619.485 206.024 618.205 205.719C616.924 205.413 615.634 206.186 615.323 207.445C615.013 208.704 615.799 209.973 617.079 210.278C618.36 210.584 619.65 209.811 619.961 208.552Z" fill="#56303C"/>
<path d="M627.845 225.653C629.115 225.308 629.859 224.015 629.508 222.767C629.156 221.518 627.841 220.786 626.571 221.132C625.301 221.478 624.557 222.77 624.909 224.019C625.261 225.267 626.575 225.999 627.845 225.653Z" fill="#56303C"/>
<path d="M549.693 98.3404C549.29 98.5817 548.969 98.9351 548.77 99.3559C548.571 99.7767 548.504 100.246 548.576 100.705C548.649 101.163 548.858 101.59 549.177 101.932C549.497 102.273 549.912 102.514 550.371 102.623C550.829 102.733 551.311 102.706 551.754 102.547C552.197 102.387 552.582 102.102 552.86 101.728C553.139 101.353 553.298 100.906 553.318 100.442C553.338 99.9785 553.217 99.5196 552.972 99.1234C552.642 98.5928 552.111 98.2124 551.497 98.0657C550.882 97.9189 550.233 98.0177 549.693 98.3404Z" fill="#56303C"/>
<path d="M559.227 113.724C558.822 113.962 558.498 114.314 558.296 114.734C558.094 115.155 558.024 115.624 558.094 116.084C558.164 116.543 558.372 116.972 558.69 117.315C559.008 117.659 559.423 117.901 559.882 118.013C560.341 118.124 560.823 118.099 561.267 117.941C561.711 117.783 562.098 117.498 562.377 117.124C562.657 116.749 562.817 116.301 562.838 115.837C562.858 115.373 562.738 114.913 562.492 114.516C562.164 113.988 561.637 113.608 561.026 113.459C560.414 113.311 559.768 113.406 559.227 113.724Z" fill="#56303C"/>
<path d="M572.291 131.646C572.602 130.387 571.815 129.119 570.535 128.813C569.254 128.508 567.964 129.28 567.653 130.539C567.343 131.798 568.129 133.067 569.409 133.372C570.69 133.678 571.98 132.905 572.291 131.646Z" fill="#56303C"/>
<path d="M581.827 147.029C582.137 145.77 581.351 144.501 580.071 144.196C578.79 143.89 577.5 144.663 577.189 145.922C576.878 147.181 577.665 148.45 578.945 148.755C580.226 149.061 581.516 148.288 581.827 147.029Z" fill="#56303C"/>
<path d="M673.637 298.307C673.235 298.548 672.914 298.901 672.716 299.322C672.518 299.742 672.451 300.211 672.524 300.668C672.597 301.126 672.806 301.552 673.125 301.893C673.444 302.234 673.859 302.474 674.317 302.583C674.775 302.692 675.256 302.665 675.698 302.506C676.141 302.346 676.525 302.061 676.803 301.687C677.081 301.313 677.239 300.866 677.259 300.403C677.278 299.94 677.158 299.482 676.912 299.087C676.75 298.824 676.536 298.595 676.283 298.413C676.03 298.232 675.743 298.101 675.439 298.028C675.135 297.956 674.819 297.943 674.51 297.991C674.2 298.039 673.904 298.146 673.637 298.307Z" fill="#56303C"/>
<path d="M683.171 313.687C682.769 313.928 682.448 314.281 682.25 314.701C682.051 315.121 681.984 315.589 682.056 316.047C682.129 316.505 682.338 316.931 682.657 317.272C682.975 317.613 683.39 317.854 683.848 317.963C684.306 318.073 684.786 318.046 685.229 317.887C685.671 317.728 686.056 317.444 686.334 317.07C686.612 316.696 686.771 316.249 686.791 315.786C686.811 315.324 686.691 314.865 686.446 314.47C686.117 313.939 685.587 313.559 684.973 313.412C684.359 313.265 683.711 313.364 683.171 313.687Z" fill="#56303C"/>
<path d="M648.089 255.717C648.951 254.738 648.843 253.256 647.846 252.408C646.85 251.56 645.343 251.667 644.481 252.647C643.618 253.626 643.727 255.108 644.723 255.955C645.719 256.803 647.226 256.697 648.089 255.717Z" fill="#56303C"/>
<path d="M657.624 271.099C658.486 270.119 658.377 268.638 657.381 267.79C656.385 266.942 654.878 267.049 654.015 268.028C653.153 269.008 653.262 270.489 654.258 271.337C655.254 272.185 656.761 272.078 657.624 271.099Z" fill="#56303C"/>
<path d="M664.103 282.924C663.699 283.165 663.377 283.518 663.178 283.939C662.979 284.36 662.911 284.829 662.983 285.288C663.056 285.747 663.265 286.174 663.584 286.516C663.903 286.857 664.319 287.099 664.778 287.208C665.236 287.318 665.718 287.291 666.161 287.132C666.605 286.972 666.99 286.687 667.268 286.312C667.547 285.937 667.706 285.49 667.725 285.026C667.745 284.562 667.624 284.103 667.378 283.707C667.215 283.444 667.002 283.215 666.749 283.033C666.496 282.852 666.21 282.721 665.905 282.648C665.601 282.575 665.285 282.562 664.976 282.61C664.667 282.657 664.37 282.764 664.103 282.924Z" fill="#56303C"/>
<path d="M523.646 88.158L418.673 224.282V106.249C418.673 101.451 420.612 96.8505 424.062 93.4578C427.512 90.0652 432.192 88.1588 437.071 88.158H523.646Z" fill="#D9AF00"/>
<path d="M550.821 88.158L704.038 330.675V106.301C704.038 103.919 703.561 101.559 702.633 99.358C701.706 97.1568 700.346 95.1567 698.633 93.472C696.919 91.7872 694.885 90.4508 692.646 89.539C690.407 88.6272 688.007 88.158 685.584 88.158H550.821Z" fill="#D9AF00"/>
<path d="M477.72 161.774C479.038 161.753 480.088 160.686 480.067 159.39C480.045 158.095 478.959 157.062 477.642 157.083C476.324 157.105 475.274 158.172 475.295 159.467C475.317 160.763 476.402 161.796 477.72 161.774Z" fill="#56303C"/>
<path d="M468.96 174.513C469.359 173.278 468.665 171.959 467.409 171.566C466.154 171.173 464.812 171.856 464.412 173.09C464.013 174.325 464.707 175.644 465.963 176.037C467.218 176.43 468.56 175.747 468.96 174.513Z" fill="#56303C"/>
<path d="M456.762 190.205C457.925 189.596 458.366 188.175 457.747 187.031C457.127 185.888 455.682 185.455 454.519 186.064C453.356 186.673 452.915 188.093 453.535 189.237C454.154 190.38 455.599 190.814 456.762 190.205Z" fill="#56303C"/>
<path d="M444.945 204.918C446.25 204.737 447.159 203.551 446.975 202.268C446.792 200.985 445.585 200.091 444.28 200.272C442.975 200.452 442.066 201.639 442.25 202.922C442.434 204.204 443.64 205.098 444.945 204.918Z" fill="#56303C"/>
<path d="M433.694 218.173C434.893 217.642 435.427 216.255 434.887 215.076C434.347 213.897 432.937 213.372 431.738 213.903C430.538 214.435 430.004 215.821 430.545 217C431.085 218.179 432.495 218.704 433.694 218.173Z" fill="#56303C"/>
<path d="M523.255 103.677C524.289 102.874 524.465 101.399 523.648 100.382C522.83 99.3659 521.33 99.1931 520.296 99.9964C519.262 100.8 519.086 102.275 519.904 103.291C520.721 104.308 522.221 104.481 523.255 103.677Z" fill="#56303C"/>
<path d="M511.962 118.304C513.104 117.657 513.495 116.222 512.836 115.1C512.178 113.978 510.718 113.593 509.577 114.241C508.436 114.889 508.044 116.323 508.703 117.445C509.362 118.567 510.821 118.952 511.962 118.304Z" fill="#56303C"/>
<path d="M501.12 132.579C502.199 131.835 502.459 130.372 501.702 129.311C500.944 128.251 499.456 127.995 498.378 128.74C497.299 129.485 497.039 130.948 497.796 132.008C498.554 133.068 500.042 133.324 501.12 132.579Z" fill="#56303C"/>
<path d="M489.689 147.145C490.891 146.615 491.429 145.227 490.89 144.045C490.35 142.863 488.939 142.334 487.736 142.864C486.534 143.395 485.996 144.783 486.535 145.965C487.074 147.147 488.486 147.675 489.689 147.145Z" fill="#56303C"/>
<path d="M532.134 309.794H418.673V319.465H532.134V309.794Z" fill="#A0D6FF"/>
<path d="M526.095 323.807H418.673V496.048H526.095V323.807Z" fill="#A0D6FF"/>
<path d="M508.593 335.053H432.233V371.314H508.593V335.053Z" stroke="#EDE0C4" stroke-width="3.79" stroke-linejoin="round"/>
<path d="M508.593 384.853H432.233V421.114H508.593V384.853Z" stroke="#EDE0C4" stroke-width="3.79" stroke-linejoin="round"/>
<path d="M508.593 434.653H432.233V470.913H508.593V434.653Z" stroke="#EDE0C4" stroke-width="3.79" stroke-linejoin="round"/>
<path d="M470.652 356.759C472.884 356.759 474.694 354.98 474.694 352.785C474.694 350.591 472.884 348.812 470.652 348.812C468.42 348.812 466.61 350.591 466.61 352.785C466.61 354.98 468.42 356.759 470.652 356.759Z" stroke="#EDE0C4" stroke-width="4.33" stroke-linejoin="round"/>
<path d="M704.038 493.542H418.673V511.487C418.673 516.353 420.64 521.02 424.14 524.461C427.64 527.902 432.387 529.835 437.337 529.835H685.375C690.324 529.835 695.071 527.902 698.572 524.461C702.072 521.02 704.038 516.353 704.038 511.487V493.542Z" fill="#F5EFD9"/>
<path d="M479.049 265.457C479.68 261.639 477.042 258.041 473.158 257.421C469.274 256.801 465.614 259.394 464.984 263.213C464.353 267.031 466.991 270.629 470.875 271.249C474.759 271.869 478.419 269.276 479.049 265.457Z" stroke="#56303C" stroke-width="3.79" stroke-miterlimit="10" stroke-linecap="round"/>
<path d="M479.124 263.394L489.08 295.162C489.564 296.705 489.673 298.339 489.397 299.931C489.122 301.524 488.471 303.03 487.495 304.33C486.519 305.63 485.247 306.686 483.781 307.414C482.314 308.142 480.694 308.522 479.051 308.522H464.927C463.284 308.522 461.665 308.142 460.198 307.414C458.731 306.686 457.459 305.63 456.484 304.33C455.508 303.03 454.856 301.524 454.581 299.931C454.306 298.339 454.415 296.705 454.899 295.162L464.854 263.394" stroke="#56303C" stroke-width="3.79" stroke-miterlimit="10" stroke-linecap="round"/>
<path d="M463.391 242.204C462.989 243.143 459.186 247.257 459.186 247.257C459.186 247.257 459.518 241.711 459.933 240.768C460.139 240.337 460.508 240 460.961 239.83C461.414 239.659 461.916 239.667 462.363 239.853C462.81 240.038 463.167 240.387 463.358 240.825C463.55 241.263 463.562 241.757 463.391 242.204Z" fill="white"/>
<path d="M453.79 255.084C454.192 254.145 457.995 250.031 457.995 250.031C457.995 250.031 457.663 255.577 457.248 256.517C457.055 256.967 456.688 257.324 456.227 257.509C455.766 257.693 455.249 257.69 454.791 257.5C454.332 257.31 453.969 256.949 453.782 256.496C453.594 256.043 453.597 255.535 453.79 255.084Z" fill="white"/>
<path d="M450.658 247C451.693 246.974 457.072 248.683 457.072 248.683C457.072 248.683 451.789 250.66 450.767 250.687C450.27 250.699 449.788 250.517 449.427 250.18C449.067 249.843 448.857 249.379 448.844 248.89C448.831 248.402 449.017 247.928 449.359 247.573C449.702 247.219 450.174 247.012 450.671 247H450.658Z" fill="white"/>
<path d="M466.537 250.288C465.501 250.314 460.122 248.605 460.122 248.605C460.122 248.605 465.405 246.624 466.427 246.598C466.915 246.602 467.381 246.792 467.729 247.128C468.077 247.463 468.278 247.919 468.291 248.398C468.303 248.877 468.126 249.341 467.796 249.694C467.466 250.047 467.01 250.26 466.524 250.288H466.537Z" fill="white"/>
<path d="M452.124 243.812C452.788 244.602 457.62 247.479 457.62 247.479C457.62 247.479 455.682 242.259 455.022 241.47C454.865 241.283 454.673 241.128 454.455 241.014C454.238 240.9 454 240.829 453.755 240.806C453.51 240.782 453.262 240.807 453.027 240.877C452.791 240.948 452.572 241.063 452.382 241.217C452.191 241.371 452.034 241.56 451.918 241.774C451.802 241.987 451.73 242.221 451.706 242.462C451.682 242.703 451.707 242.946 451.779 243.178C451.85 243.41 451.968 243.625 452.124 243.812Z" fill="white"/>
<path d="M465.057 253.473C464.393 252.686 459.565 249.805 459.565 249.805C459.565 249.805 461.499 255.026 462.16 255.815C462.316 256.002 462.509 256.157 462.726 256.271C462.943 256.385 463.181 256.456 463.426 256.479C463.672 256.502 463.919 256.478 464.155 256.408C464.39 256.337 464.609 256.222 464.8 256.068C464.99 255.914 465.147 255.725 465.263 255.511C465.379 255.298 465.451 255.064 465.475 254.823C465.499 254.582 465.474 254.338 465.402 254.107C465.331 253.875 465.213 253.66 465.057 253.473Z" fill="white"/>
<path d="M458.579 251.489C460.161 251.489 461.443 250.228 461.443 248.673C461.443 247.118 460.161 245.858 458.579 245.858C456.997 245.858 455.715 247.118 455.715 248.673C455.715 250.228 456.997 251.489 458.579 251.489Z" fill="#FFAFB1"/>
<path d="M467.801 253.92L478.852 298.646" stroke="#D0B000" stroke-width="4.33" stroke-miterlimit="10"/>
<path d="M466.205 289.73L475.563 250.256" stroke="#D0B000" stroke-width="4.33" stroke-miterlimit="10"/>
<path d="M481.437 224.791C481.324 225.679 479.881 228.765 478.835 230.918C478.76 231.076 478.635 231.207 478.479 231.291C478.323 231.375 478.145 231.408 477.968 231.387C477.792 231.365 477.627 231.289 477.498 231.17C477.368 231.051 477.28 230.894 477.246 230.723C476.771 228.383 476.147 225.043 476.25 224.155C476.338 223.48 476.695 222.867 477.243 222.451C477.791 222.035 478.484 221.85 479.171 221.937C479.857 222.023 480.481 222.374 480.904 222.913C481.327 223.451 481.515 224.133 481.427 224.808L481.437 224.791Z" fill="white"/>
<path d="M473.529 245.584C473.642 244.696 475.085 241.61 476.134 239.457C476.211 239.3 476.335 239.171 476.49 239.088C476.646 239.004 476.823 238.971 476.999 238.993C477.174 239.015 477.338 239.09 477.468 239.208C477.597 239.327 477.686 239.482 477.72 239.652C478.195 241.992 478.819 245.332 478.716 246.223C478.628 246.898 478.271 247.511 477.723 247.927C477.175 248.343 476.482 248.528 475.796 248.442C475.109 248.355 474.486 248.004 474.062 247.466C473.639 246.927 473.451 246.245 473.539 245.571L473.529 245.584Z" fill="white"/>
<path d="M466.919 231.316C467.821 231.427 470.961 232.847 473.151 233.874C473.31 233.95 473.44 234.073 473.524 234.226C473.609 234.379 473.642 234.553 473.62 234.726C473.598 234.898 473.522 235.059 473.402 235.187C473.282 235.314 473.125 235.402 472.952 235.437C470.569 235.904 467.171 236.517 466.268 236.416C465.924 236.378 465.591 236.274 465.288 236.108C464.986 235.943 464.72 235.72 464.506 235.452C464.292 235.184 464.134 234.878 464.042 234.549C463.95 234.221 463.925 233.878 463.969 233.541C464.013 233.203 464.125 232.878 464.299 232.583C464.472 232.288 464.703 232.031 464.979 231.825C465.255 231.619 465.57 231.469 465.905 231.384C466.24 231.299 466.589 231.28 466.932 231.329L466.919 231.316Z" fill="white"/>
<path d="M488.058 239.075C487.152 238.964 484.012 237.548 481.825 236.517C481.666 236.442 481.535 236.319 481.45 236.167C481.366 236.014 481.332 235.839 481.354 235.667C481.376 235.494 481.453 235.333 481.573 235.206C481.693 235.079 481.851 234.992 482.025 234.958C484.404 234.491 487.802 233.878 488.705 233.979C489.049 234.016 489.382 234.121 489.685 234.287C489.987 234.452 490.253 234.675 490.467 234.943C490.681 235.21 490.839 235.517 490.931 235.845C491.023 236.173 491.048 236.516 491.004 236.854C490.96 237.191 490.848 237.517 490.674 237.812C490.501 238.106 490.27 238.364 489.994 238.57C489.718 238.776 489.403 238.926 489.068 239.011C488.733 239.096 488.384 239.114 488.041 239.065L488.058 239.075Z" fill="white"/>
<path d="M467.211 239.799C467.931 239.248 471.17 238.07 473.459 237.274C473.627 237.211 473.811 237.202 473.984 237.249C474.158 237.296 474.311 237.397 474.422 237.536C474.533 237.674 474.596 237.844 474.602 238.021C474.608 238.198 474.557 238.371 474.455 238.517C473.108 240.501 471.136 243.297 470.426 243.848C469.88 244.265 469.188 244.453 468.501 244.368C467.815 244.284 467.191 243.935 466.766 243.398C466.341 242.861 466.151 242.18 466.237 241.505C466.323 240.83 466.678 240.217 467.224 239.799H467.211Z" fill="white"/>
<path d="M487.756 230.589C487.036 231.137 483.797 232.318 481.507 233.111C481.339 233.174 481.155 233.182 480.982 233.135C480.809 233.088 480.655 232.988 480.544 232.849C480.433 232.71 480.37 232.54 480.364 232.364C480.358 232.187 480.41 232.013 480.511 231.868C481.859 229.884 483.83 227.088 484.54 226.54C484.81 226.333 485.12 226.181 485.45 226.092C485.78 226.002 486.125 225.978 486.465 226.02C486.805 226.062 487.133 226.169 487.431 226.335C487.729 226.502 487.99 226.724 488.2 226.99C488.411 227.256 488.566 227.56 488.656 227.885C488.747 228.21 488.772 228.549 488.729 228.883C488.687 229.217 488.578 229.54 488.409 229.832C488.239 230.125 488.013 230.382 487.742 230.589H487.756Z" fill="white"/>
<path d="M468.684 228.24C469.241 228.945 472.085 230.873 474.106 232.197C474.255 232.296 474.431 232.346 474.61 232.339C474.789 232.333 474.961 232.27 475.101 232.161C475.242 232.052 475.343 231.902 475.391 231.733C475.439 231.563 475.431 231.383 475.367 231.219C474.561 228.971 473.376 225.783 472.802 225.078C472.378 224.541 471.753 224.192 471.067 224.108C470.38 224.024 469.688 224.211 469.142 224.628C468.596 225.046 468.241 225.659 468.155 226.334C468.069 227.009 468.259 227.69 468.684 228.227V228.24Z" fill="white"/>
<path d="M486.282 242.142C485.725 241.43 482.881 239.505 480.856 238.168C480.708 238.068 480.531 238.017 480.352 238.023C480.172 238.029 479.999 238.091 479.858 238.2C479.717 238.309 479.615 238.46 479.567 238.63C479.519 238.801 479.528 238.982 479.592 239.147C480.398 241.394 481.583 244.582 482.157 245.287C482.364 245.563 482.624 245.796 482.923 245.971C483.222 246.147 483.554 246.261 483.9 246.309C484.245 246.356 484.596 246.335 484.933 246.246C485.269 246.158 485.585 246.004 485.86 245.794C486.135 245.584 486.365 245.322 486.535 245.023C486.705 244.724 486.813 244.395 486.852 244.054C486.891 243.714 486.86 243.369 486.761 243.041C486.662 242.712 486.497 242.406 486.276 242.142H486.282Z" fill="white"/>
<path d="M480.26 236.529C481.034 235.006 480.406 233.154 478.857 232.393C477.308 231.631 475.424 232.249 474.65 233.772C473.875 235.295 474.503 237.147 476.053 237.908C477.602 238.67 479.485 238.052 480.26 236.529Z" fill="#FFAFB1"/>
<path d="M479.124 264.321C479.124 266.181 478.372 267.965 477.034 269.281C475.696 270.596 473.881 271.335 471.989 271.335C470.097 271.335 468.282 270.596 466.944 269.281C465.606 267.965 464.854 266.181 464.854 264.321" stroke="#56303C" stroke-width="3.79" stroke-miterlimit="10" stroke-linecap="round"/>
<path d="M537.643 88.158V133.328" stroke="#8CD6FF" stroke-width="4.33" stroke-miterlimit="10"/>
<path d="M555.713 132.78H519.574C513.943 132.78 509.379 137.268 509.379 142.803V153.879C509.379 159.415 513.943 163.902 519.574 163.902H555.713C561.343 163.902 565.907 159.415 565.907 153.879V142.803C565.907 137.268 561.343 132.78 555.713 132.78Z" fill="#FFAFB1"/>
<path d="M556.801 166.398H518.485V170.283H556.801V166.398Z" fill="#FFAFB1"/>
<path d="M629.676 276.627L597.005 281.159L597.513 285.697C597.577 286.332 597.428 286.97 597.088 287.513C596.749 288.057 596.237 288.475 595.631 288.705L571.784 297.726C568.065 299.133 564.866 301.615 562.61 304.844C560.353 308.073 559.145 311.899 559.144 315.817V336.045H575.275L569.302 355.996L581.375 366.788L584.079 399.414L643.518 399.218L644.387 341.666H673V333.464L677.038 324.871C678.429 321.915 679.16 318.701 679.181 315.445C679.202 312.188 678.514 308.965 677.162 305.992C675.81 303.019 673.826 300.366 671.343 298.21C668.86 296.054 665.936 294.446 662.769 293.495L636.297 285.54L633.688 278.95C633.385 278.174 632.823 277.522 632.094 277.101C631.366 276.679 630.513 276.512 629.676 276.627Z" fill="white"/>
<path d="M673.511 333.487H644.162L641.54 323.174" stroke="#8CD6FF" stroke-width="4.33" stroke-miterlimit="10" stroke-linecap="round"/>
<path d="M667.219 316.603C667.219 317.305 665.009 327.618 665.009 327.618" stroke="#8CD6FF" stroke-width="4.33" stroke-miterlimit="10" stroke-linecap="round"/>
<path d="M656.935 327.618L653.838 316.603" stroke="#8CD6FF" stroke-width="4.33" stroke-miterlimit="10" stroke-linecap="round"/>
<path d="M644.162 333.487V341.187" stroke="#8CD6FF" stroke-width="4.33" stroke-miterlimit="10" stroke-linecap="round"/>
<path d="M636.987 285.384C636.987 291.769 630.214 296.943 622.482 296.943C614.749 296.943 608.487 292.77 608.487 286.385" stroke="#8CD6FF" stroke-width="4.33" stroke-miterlimit="10" stroke-linecap="round"/>
<path d="M608.487 286.385C608.487 291.733 604.356 296.069 599.259 296.069C597.78 296.055 596.327 295.686 595.027 294.993C593.727 294.299 592.62 293.303 591.802 292.092" stroke="#8CD6FF" stroke-width="4.33" stroke-miterlimit="10" stroke-linecap="round"/>
<path d="M597.901 354.296C600.018 356.8 602.67 358.816 605.668 360.2C608.667 361.584 611.938 362.301 615.251 362.302" stroke="#8CD6FF" stroke-width="4.33" stroke-miterlimit="10" stroke-linecap="round"/>
<path d="M629.497 276.666L597.005 281.159L595.651 270.448H590.7C589.445 270.445 588.204 270.193 587.051 269.707C585.897 269.221 584.856 268.512 583.988 267.621C583.12 266.73 582.445 265.675 582.001 264.521C581.558 263.367 581.356 262.137 581.408 260.905L582.404 236.683C584.1 234.585 585.228 232.097 585.682 229.454C588.765 237.251 597.443 243.323 608.348 245.222C609.77 245.47 611.083 246.132 612.12 247.12C613.156 248.108 613.869 249.379 614.165 250.768L614.68 253.176L614.766 252.044C614.884 250.453 615.625 248.969 616.833 247.905C618.042 246.84 619.623 246.278 621.244 246.336C622.865 246.394 624.4 247.069 625.526 248.217C626.652 249.366 627.281 250.899 627.28 252.494V253.146C627.28 254.78 626.62 256.347 625.445 257.502C624.27 258.657 622.677 259.306 621.015 259.306C620.923 259.305 620.831 259.322 620.746 259.356C620.66 259.391 620.583 259.442 620.518 259.506C620.453 259.571 620.402 259.648 620.368 259.732C620.335 259.817 620.319 259.907 620.321 259.998C620.319 260.134 620.36 260.267 620.439 260.378C620.517 260.49 620.629 260.575 620.759 260.621L625.896 262.624L629.497 276.666Z" fill="#B4702F"/>
<path d="M633.101 227.976C635.589 230.38 637.443 233.346 638.5 236.616C639.558 239.885 639.787 243.359 639.168 246.735C638.549 250.111 637.101 253.288 634.95 255.989C632.798 258.69 630.008 260.833 626.822 262.233L625.9 262.637L620.763 260.634C620.619 260.572 620.501 260.463 620.429 260.326C620.356 260.19 620.332 260.033 620.362 259.881C620.392 259.73 620.473 259.593 620.592 259.492C620.711 259.392 620.861 259.334 621.018 259.329C622.679 259.329 624.271 258.681 625.446 257.527C626.621 256.373 627.282 254.808 627.284 253.176V252.523C627.284 250.928 626.655 249.395 625.529 248.247C624.404 247.098 622.869 246.424 621.247 246.365C619.626 246.307 618.045 246.869 616.837 247.934C615.628 248.998 614.887 250.482 614.769 252.073L614.683 253.205L614.169 250.797C613.872 249.408 613.16 248.137 612.123 247.149C611.086 246.161 609.773 245.5 608.351 245.251C597.446 243.352 588.772 237.28 585.686 229.483C585.232 232.126 584.104 234.614 582.407 236.713L582.477 235.036C582.583 232.366 583.482 229.785 585.062 227.61C585.343 227.222 585.644 226.849 585.964 226.491C587.279 225.021 588.898 223.844 590.713 223.038C592.528 222.233 594.496 221.817 596.487 221.819H611.089C609 218.822 607.903 215.263 607.947 211.63C607.992 207.997 609.175 204.466 611.337 201.518C613.498 198.571 616.531 196.351 620.024 195.161C623.516 193.971 627.296 193.87 630.849 194.871C634.402 195.872 637.554 197.926 639.875 200.753C642.197 203.581 643.574 207.043 643.82 210.669C644.065 214.294 643.167 217.906 641.248 221.011C639.328 224.116 636.481 226.563 633.094 228.018L633.101 227.976Z" fill="#56303C"/>
<path d="M612.178 265.368L598.877 280.908L597.005 281.169L595.651 270.457H595.814C602.043 270.157 607.176 268.461 611.603 264.816C611.676 264.754 611.769 264.718 611.866 264.715C611.941 264.718 612.015 264.741 612.079 264.782C612.142 264.823 612.193 264.88 612.225 264.948C612.257 265.015 612.27 265.09 612.262 265.164C612.253 265.238 612.224 265.309 612.178 265.368Z" fill="#56303C"/>
<path d="M614.052 252.487C614.139 252.481 614.226 252.492 614.307 252.521C614.389 252.549 614.464 252.594 614.528 252.652C614.591 252.71 614.642 252.78 614.676 252.858C614.711 252.936 614.729 253.02 614.729 253.105C614.729 253.191 614.711 253.275 614.676 253.353C614.642 253.431 614.591 253.501 614.528 253.559C614.464 253.617 614.389 253.662 614.307 253.69C614.226 253.719 614.139 253.73 614.052 253.724H607.452V266.122L614.593 262.556C614.667 262.519 614.747 262.496 614.829 262.49C614.911 262.484 614.994 262.493 615.072 262.518C615.151 262.543 615.223 262.583 615.286 262.636C615.349 262.688 615.401 262.753 615.438 262.825C615.475 262.897 615.498 262.976 615.505 263.056C615.511 263.137 615.501 263.219 615.476 263.296C615.451 263.373 615.41 263.444 615.356 263.506C615.303 263.567 615.238 263.618 615.164 263.655L607.462 267.57C604.034 269.348 600.198 270.249 595.824 270.461H590.7C589.444 270.458 588.202 270.206 587.047 269.719C585.893 269.232 584.851 268.522 583.983 267.629C583.115 266.737 582.44 265.681 581.997 264.525C581.555 263.37 581.354 262.138 581.408 260.905L581.76 252.481L614.052 252.487Z" fill="white"/>
<path d="M581.899 244.217L583.605 243.926C584.435 243.786 585.286 243.825 586.099 244.041C586.912 244.258 587.666 244.646 588.311 245.18C588.955 245.713 589.473 246.378 589.828 247.129C590.184 247.879 590.368 248.697 590.368 249.525V257.231" stroke="#56303C" stroke-width="4.33" stroke-miterlimit="10" stroke-linecap="round"/>
<path d="M585.145 250.37C585.801 250.37 586.333 249.619 586.333 248.693C586.333 247.767 585.801 247.016 585.145 247.016C584.489 247.016 583.957 247.767 583.957 248.693C583.957 249.619 584.489 250.37 585.145 250.37Z" fill="#56303C"/>
<path d="M597.364 250.546C598.157 250.546 598.801 249.716 598.801 248.693C598.801 247.67 598.157 246.84 597.364 246.84C596.57 246.84 595.927 247.67 595.927 248.693C595.927 249.716 596.57 250.546 597.364 250.546Z" fill="#56303C"/>
<path d="M622.482 250.311C622.482 250.311 618.619 249.518 617.55 254.66" stroke="#56303C" stroke-width="4.33" stroke-miterlimit="10" stroke-linecap="round"/>
<path d="M621.728 253.72L619.488 251.476" stroke="#56303C" stroke-width="4.33" stroke-miterlimit="10" stroke-linecap="round"/>
<path d="M619.482 263.648C621.111 263.648 622.432 262.35 622.432 260.748C622.432 259.146 621.111 257.848 619.482 257.848C617.852 257.848 616.531 259.146 616.531 260.748C616.531 262.35 617.852 263.648 619.482 263.648Z" fill="#D9AF00"/>
<path d="M643.531 399.241L657.469 416.471C668.029 429.548 674.028 445.618 674.579 462.307L675.625 493.559H561.211L584.093 399.453L643.531 399.241Z" fill="#A0D6FF"/>
<path d="M609.032 439.24L648.655 405.58L653.825 411.981L609.032 439.24Z" fill="#56303C"/>
<path d="M549.57 395.731L581.388 366.808L570.812 357.288C570.351 356.743 570.035 356.094 569.892 355.399C569.749 354.704 569.783 353.986 569.992 353.307L575.275 336.065L587.766 335.301C589.762 335.178 591.683 334.508 593.31 333.365C594.937 332.223 596.206 330.654 596.972 328.838L600.254 322.189C600.41 321.872 600.481 321.52 600.461 321.168C600.441 320.817 600.33 320.475 600.139 320.177C599.948 319.879 599.682 319.634 599.368 319.464C599.054 319.294 598.701 319.206 598.343 319.207L569.846 319.331C566.389 319.344 562.989 320.191 559.942 321.797C556.895 323.403 554.296 325.718 552.371 328.541C544.629 339.915 532.864 359.598 523.145 374.87C521.514 377.43 520.617 380.376 520.549 383.396C520.48 386.416 521.243 389.398 522.756 392.028C524.045 394.267 525.841 396.186 528.005 397.634C530.168 399.082 532.642 400.022 535.234 400.38C537.826 400.738 540.468 400.505 542.954 399.698C545.439 398.892 547.703 397.535 549.57 395.731Z" fill="#B4702F"/>
<path d="M574.32 336.531H566.488L561.215 347.859" stroke="#56303C" stroke-width="4.33" stroke-miterlimit="10" stroke-linecap="round"/>
<path d="M583.854 322.61H599.029" stroke="#56303C" stroke-width="4.33" stroke-miterlimit="10" stroke-linecap="round"/>
<path d="M582.772 326.688H596.932" stroke="#56303C" stroke-width="4.33" stroke-miterlimit="10" stroke-linecap="round"/>
<path d="M580.801 331.119L594.503 330.691" stroke="#56303C" stroke-width="4.33" stroke-miterlimit="10" stroke-linecap="round"/>
<path d="M563.594 336.534H566.488" stroke="#56303C" stroke-width="4.33" stroke-miterlimit="10" stroke-linecap="round"/>
<path d="M660.721 486.6C661.641 488.79 662.109 491.137 662.098 493.507H657.213H643.757L624.725 493.526C624.713 491.068 625.207 488.633 626.178 486.368L624.187 476.672C624.18 476.24 624.283 475.813 624.487 475.43C624.691 475.047 624.989 474.72 625.355 474.48C625.72 474.239 626.141 474.093 626.579 474.053C627.016 474.014 627.457 474.083 627.861 474.254L635.324 477.34C638.15 476.156 641.212 475.615 644.281 475.758C647.349 475.9 650.345 476.722 653.045 478.163L658.936 475.726C659.339 475.554 659.78 475.485 660.218 475.525C660.656 475.564 661.077 475.711 661.442 475.951C661.807 476.192 662.106 476.518 662.309 476.901C662.513 477.284 662.616 477.711 662.609 478.143L660.721 486.6Z" fill="white"/>
<path d="M658.169 489.572C658.173 490.942 657.843 492.294 657.207 493.513H643.75C643.109 492.29 642.777 490.934 642.781 489.559C642.781 485.066 646.226 481.425 650.477 481.425C654.728 481.425 658.169 485.079 658.169 489.572Z" fill="#D9AF00"/>
<path d="M630.018 480.825C628.807 478.499 626.275 477.488 624.708 477.797" stroke="#56303C" stroke-width="3.79" stroke-miterlimit="10" stroke-linecap="round"/>
<path d="M628.906 483.68C629.618 482.247 630.748 481.056 632.152 480.257" stroke="#56303C" stroke-width="3.79" stroke-miterlimit="10" stroke-linecap="round"/>
<path d="M656.792 480.825C658.003 478.499 660.532 477.488 662.102 477.797" stroke="#56303C" stroke-width="3.79" stroke-miterlimit="10" stroke-linecap="round"/>
<path d="M658.567 483.775C657.904 482.796 656.553 481.197 654.559 480.567" stroke="#56303C" stroke-width="3.79" stroke-miterlimit="10" stroke-linecap="round"/>
<path d="M629.421 492.841C629.421 495.428 626.796 497.027 623.56 497.027C620.325 497.027 617.703 495.428 617.703 492.841C617.703 490.254 620.325 488.153 623.56 488.153C626.796 488.153 629.421 490.251 629.421 492.841Z" fill="white"/>
<path d="M626.646 488.27C628.608 489.105 629.915 491.034 629.829 492.913" stroke="#56303C" stroke-width="3.79" stroke-miterlimit="10" stroke-linecap="round"/>
<path d="M621.4 493.546V496.058" stroke="#56303C" stroke-width="3.79" stroke-miterlimit="10" stroke-linecap="round"/>
<path d="M625.472 493.546V496.058" stroke="#56303C" stroke-width="3.79" stroke-miterlimit="10" stroke-linecap="round"/>
<path d="M676.766 492.841C676.766 495.428 674.141 497.027 670.909 497.027C667.677 497.027 665.048 495.428 665.048 492.841C665.048 490.254 667.673 488.153 670.909 488.153C674.145 488.153 676.766 490.251 676.766 492.841Z" fill="white"/>
<path d="M668.745 493.546V496.058" stroke="#56303C" stroke-width="3.79" stroke-miterlimit="10" stroke-linecap="round"/>
<path d="M672.82 493.546V496.058" stroke="#56303C" stroke-width="3.79" stroke-miterlimit="10" stroke-linecap="round"/>
<path d="M636.725 491.722C637.469 491.722 638.072 491.129 638.072 490.397C638.072 489.666 637.469 489.073 636.725 489.073C635.981 489.073 635.377 489.666 635.377 490.397C635.377 491.129 635.981 491.722 636.725 491.722Z" fill="#56303C"/>
<path d="M650.361 491.722C651.105 491.722 651.708 491.129 651.708 490.397C651.708 489.666 651.105 489.073 650.361 489.073C649.616 489.073 649.013 489.666 649.013 490.397C649.013 491.129 649.616 491.722 650.361 491.722Z" fill="#56303C"/>
<path d="M549.945 409.075L566.212 415.799L575.328 493.543H502.994L525.076 412.001L549.945 409.075Z" fill="#D9AF00"/>
<path d="M549.338 494.169V408.791" stroke="white" stroke-width="3.05" stroke-miterlimit="10"/>
<path d="M539.1 494.169V408.791" stroke="white" stroke-width="3.05" stroke-miterlimit="10"/>
<path d="M559.891 494.169V408.791" stroke="white" stroke-width="3.05" stroke-miterlimit="10"/>
<path d="M570.44 494.169V408.791" stroke="white" stroke-width="3.05" stroke-miterlimit="10"/>
<path d="M507.594 494.169V408.791" stroke="white" stroke-width="3.05" stroke-miterlimit="10"/>
<path d="M518.143 494.169V408.791" stroke="white" stroke-width="3.05" stroke-miterlimit="10"/>
<path d="M528.696 494.169V408.791" stroke="white" stroke-width="3.05" stroke-miterlimit="10"/>
<path d="M574.529 486.434H504.003" stroke="white" stroke-width="3.05" stroke-miterlimit="10"/>
<path d="M572.999 476.062H504.003" stroke="white" stroke-width="3.05" stroke-miterlimit="10"/>
<path d="M572.999 465.687H504.003" stroke="white" stroke-width="3.05" stroke-miterlimit="10"/>
<path d="M572.999 455.315H504.003" stroke="white" stroke-width="3.05" stroke-miterlimit="10"/>
<path d="M572.999 444.943H504.003" stroke="white" stroke-width="3.05" stroke-miterlimit="10"/>
<path d="M572.999 434.572H504.003" stroke="white" stroke-width="3.05" stroke-miterlimit="10"/>
<path d="M572.999 424.197H504.6" stroke="white" stroke-width="3.05" stroke-miterlimit="10"/>
<path d="M572.999 413.825H504.003" stroke="white" stroke-width="3.05" stroke-miterlimit="10"/>
<path d="M537.51 493.543L573.516 478.088L574.366 485.341L537.51 493.543Z" fill="#56303C"/>
<path d="M525.076 411.998L502.994 493.543L500.057 474.114C498.918 466.552 499.717 458.83 502.38 451.648L512.887 423.28C513.634 421.165 514.802 419.216 516.322 417.549C517.842 415.881 519.684 414.526 521.741 413.564L525.076 411.998Z" fill="#B4702F"/>
<path d="M504.564 488.176L517.533 494.195C520.583 495.611 519.461 499.742 516.029 499.742H467.227C463.826 499.742 462.714 495.601 465.737 494.195L478.623 488.156L478.045 482.205H469.812C466.772 482.205 465.78 478.506 468.485 477.24L480.1 471.794C476.449 469.08 474.153 465.103 474.153 460.666C474.156 458.475 474.72 456.319 475.792 454.398C474.9 454.128 474.096 453.633 473.458 452.962C472.821 452.292 472.372 451.47 472.157 450.577C471.941 449.684 471.967 448.752 472.231 447.871C472.494 446.991 472.987 446.194 473.66 445.558C474.334 444.922 475.164 444.471 476.069 444.247C476.975 444.024 477.924 444.037 478.822 444.284C479.721 444.532 480.539 445.006 481.194 445.659C481.849 446.313 482.32 447.123 482.559 448.01C485.266 446.652 488.254 445.922 491.293 445.876C494.333 445.83 497.342 446.47 500.091 447.746C500.365 446.905 500.851 446.145 501.502 445.536C502.153 444.928 502.95 444.49 503.819 444.262C504.687 444.035 505.6 444.027 506.473 444.237C507.346 444.447 508.151 444.87 508.814 445.466C509.478 446.062 509.978 446.812 510.269 447.648C510.561 448.484 510.634 449.378 510.482 450.249C510.33 451.12 509.958 451.939 509.4 452.632C508.842 453.324 508.116 453.868 507.288 454.212C508.429 456.179 509.03 458.402 509.034 460.666C509.034 465.106 506.711 469.09 503.061 471.801L514.772 477.24C517.5 478.506 516.497 482.205 513.444 482.205H505.148L504.564 488.176Z" fill="#FFAFB1"/>
<path d="M503.88 450.297C504.135 449.529 504.63 448.858 505.294 448.381C505.958 447.903 506.758 447.644 507.581 447.638C508.245 447.638 508.898 447.808 509.475 448.131" stroke="#56303C" stroke-width="3.52" stroke-miterlimit="10" stroke-linecap="round"/>
<path d="M478.829 450.297C478.578 449.531 478.088 448.862 477.429 448.385C476.769 447.907 475.974 447.646 475.155 447.638C474.495 447.639 473.846 447.808 473.273 448.131" stroke="#56303C" stroke-width="3.52" stroke-miterlimit="10" stroke-linecap="round"/>
<path d="M498.883 466.711C498.883 470.228 495.62 473.08 491.582 473.08C487.543 473.08 484.298 470.228 484.298 466.711C484.298 463.194 487.56 461.974 491.582 461.974C495.604 461.974 498.883 463.198 498.883 466.711Z" fill="white"/>
<path d="M498.318 462.594C498.855 462.594 499.291 462.166 499.291 461.638C499.291 461.11 498.855 460.682 498.318 460.682C497.781 460.682 497.346 461.11 497.346 461.638C497.346 462.166 497.781 462.594 498.318 462.594Z" fill="#56303C"/>
<path d="M485.077 462.594C485.614 462.594 486.05 462.166 486.05 461.638C486.05 461.11 485.614 460.682 485.077 460.682C484.541 460.682 484.105 461.11 484.105 461.638C484.105 462.166 484.541 462.594 485.077 462.594Z" fill="#56303C"/>
<path d="M494.154 464.786C494.154 465.439 493.311 466.489 492.162 466.773V467.87C492.162 468.022 492.101 468.168 491.991 468.276C491.882 468.383 491.733 468.444 491.578 468.444C491.424 468.444 491.275 468.383 491.165 468.276C491.056 468.168 490.994 468.022 490.994 467.87V466.773C489.863 466.489 489.023 465.439 489.023 464.786C489.023 464.023 490.165 463.403 491.578 463.403C492.992 463.403 494.154 464.023 494.154 464.786Z" fill="#56303C"/>
<path d="M570.457 479.951L537.517 493.543H510.849C510.536 493.542 510.229 493.448 509.971 493.273C509.713 493.098 509.515 492.85 509.403 492.562C509.291 492.274 509.271 491.959 509.345 491.66C509.419 491.36 509.583 491.089 509.817 490.884L513.136 487.964C514.714 486.577 516.757 485.81 518.873 485.81H526.702C538.214 477.256 555.593 464.656 555.593 464.656V422.947C555.588 420.94 556.363 419.007 557.759 417.542C559.155 416.078 561.068 415.192 563.105 415.068C565.143 414.943 567.152 415.587 568.723 416.87C570.293 418.152 571.306 419.976 571.555 421.968L577.446 468.052C577.761 470.513 577.249 473.009 575.987 475.157C574.725 477.305 572.783 478.989 570.457 479.951Z" fill="#B4702F"/>
<path d="M555.596 464.659L558.809 462.493" stroke="#56303C" stroke-width="4.33" stroke-miterlimit="10" stroke-linecap="round"/>
<path d="M514.755 489.817L511.533 492.952" stroke="#56303C" stroke-width="3.79" stroke-miterlimit="10" stroke-linecap="round"/>
<path d="M518.575 489.817L515.353 492.952" stroke="#56303C" stroke-width="3.79" stroke-miterlimit="10" stroke-linecap="round"/>
<path d="M522.391 489.817L519.169 492.952" stroke="#56303C" stroke-width="3.79" stroke-miterlimit="10" stroke-linecap="round"/>
<path d="M526.941 485.314H529.712" stroke="#56303C" stroke-width="3.79" stroke-miterlimit="10" stroke-linecap="round"/>
<path d="M549.945 391.682V411.998C549.945 414.54 544.377 416.601 537.507 416.601C530.638 416.601 525.076 414.54 525.076 411.998V391.682H549.945Z" fill="#B4702F"/>
<path d="M539.07 403.884L525.076 411.998V403.306L538.606 402.412C538.786 402.401 538.965 402.45 539.114 402.551C539.262 402.652 539.372 402.799 539.426 402.969C539.48 403.138 539.474 403.321 539.409 403.487C539.345 403.653 539.225 403.793 539.07 403.884Z" fill="#56303C"/>
<path d="M515.907 368.459L512.29 392.452C512.083 393.818 512.182 395.212 512.579 396.537C512.976 397.862 513.662 399.086 514.589 400.124C515.516 401.162 516.661 401.989 517.946 402.548C519.231 403.106 520.625 403.383 522.029 403.359L534.308 403.146C536.065 403.115 537.793 402.701 539.367 401.933C540.942 401.165 542.323 400.063 543.411 398.706L551.667 388.409C553.56 386.049 554.772 383.232 555.178 380.253L555.444 378.328C555.775 375.918 555.57 373.467 554.843 371.142C554.116 368.818 552.885 366.677 551.233 364.866C549.582 363.056 547.55 361.62 545.279 360.657C543.007 359.695 540.551 359.228 538.078 359.291L526.088 359.591C523.6 359.653 521.215 360.577 519.352 362.199C517.49 363.822 516.269 366.038 515.907 368.459Z" fill="#B4702F"/>
<path d="M516.255 360.802C520.322 360.802 523.619 357.56 523.619 353.562C523.619 349.564 520.322 346.322 516.255 346.322C512.188 346.322 508.891 349.564 508.891 353.562C508.891 357.56 512.188 360.802 516.255 360.802Z" fill="#56303C"/>
<path d="M553.97 368.935C555.382 371.862 555.894 375.13 555.444 378.338L555.175 380.263C554.77 383.242 553.558 386.06 551.664 388.419L549.457 391.173L546.139 387.63C546.139 380.716 536.757 379.855 536.757 379.855C527.269 377.744 519.856 372.162 516.77 365.647C517.596 363.886 518.907 362.387 520.554 361.321C522.202 360.254 524.12 359.662 526.091 359.611L538.085 359.311C539.522 359.271 540.958 359.411 542.359 359.728C541.886 357.414 542.151 355.014 543.116 352.853C544.081 350.692 545.7 348.877 547.753 347.653C549.806 346.43 552.192 345.858 554.587 346.017C556.982 346.175 559.27 347.055 561.138 348.537C563.005 350.019 564.363 352.032 565.026 354.3C565.689 356.568 565.624 358.982 564.841 361.213C564.058 363.444 562.594 365.383 560.65 366.767C558.705 368.15 556.374 368.911 553.974 368.945L553.97 368.935Z" fill="#56303C"/>
<path d="M542.123 359.878L546.474 364.727" stroke="#FFAFB1" stroke-width="4.33" stroke-miterlimit="10" stroke-linecap="round"/>
<path d="M538.851 388.165V402.168C537.415 402.786 535.869 403.118 534.302 403.147L522.023 403.359H521.85C520.46 403.358 519.086 403.063 517.822 402.493C516.558 401.923 515.434 401.093 514.526 400.057C513.618 399.022 512.948 397.806 512.561 396.493C512.174 395.18 512.079 393.801 512.283 392.449L513.219 386.25L538.851 388.165Z" fill="white"/>
<path d="M537.51 388.791H545.256" stroke="white" stroke-width="3.79" stroke-miterlimit="10" stroke-linecap="round"/>
<path d="M538.343 401.665L547.144 396.266" stroke="white" stroke-width="3.79" stroke-miterlimit="10" stroke-linecap="round"/>
<path d="M551.365 384.465H551.588C553.07 384.465 554.491 385.044 555.539 386.074C556.587 387.105 557.176 388.502 557.176 389.959V390.178C557.176 391.635 556.587 393.032 555.539 394.063C554.491 395.093 553.07 395.672 551.588 395.672H545.777V389.959C545.777 388.502 546.366 387.105 547.414 386.074C548.462 385.044 549.883 384.465 551.365 384.465Z" fill="#B4702F"/>
<path d="M548.923 391.268C548.923 391.268 548.837 387.679 552.796 388.034" stroke="#56303C" stroke-width="3.79" stroke-miterlimit="10" stroke-linecap="round"/>
<path d="M551.857 390.928L550.698 388.958" stroke="#56303C" stroke-width="3.79" stroke-miterlimit="10" stroke-linecap="round"/>
<path d="M514.632 376.919H516.478C517.345 376.918 518.202 377.1 518.992 377.45C519.782 377.801 520.488 378.313 521.061 378.953C521.634 379.592 522.062 380.345 522.317 381.159C522.571 381.974 522.646 382.833 522.537 383.679L521.578 391.183" stroke="#56303C" stroke-width="4.33" stroke-miterlimit="10" stroke-linecap="round"/>
<path d="M517.812 384.334C518.433 384.334 518.937 383.623 518.937 382.746C518.937 381.868 518.433 381.157 517.812 381.157C517.19 381.157 516.687 381.868 516.687 382.746C516.687 383.623 517.19 384.334 517.812 384.334Z" fill="#56303C"/>
<path d="M529.682 385.894C530.408 385.894 530.996 385.064 530.996 384.041C530.996 383.017 530.408 382.188 529.682 382.188C528.956 382.188 528.368 383.017 528.368 384.041C528.368 385.064 528.956 385.894 529.682 385.894Z" fill="#56303C"/>
<path d="M673 341.689V378.883C672.999 380.768 672.587 382.632 671.789 384.346C670.991 386.061 669.828 387.587 668.377 388.821L609.035 439.24C608.014 440.104 606.712 440.58 605.365 440.581H594.838C594.068 440.58 593.308 440.744 592.609 441.06C591.91 441.377 591.289 441.839 590.79 442.415L581.859 452.669C581.163 453.469 580.192 453.988 579.13 454.127C578.069 454.266 576.993 454.015 576.108 453.423L568.837 448.549L573.327 434.891C573.706 433.739 574.368 432.696 575.255 431.856C576.142 431.016 577.226 430.404 578.411 430.076L597.745 424.709L643.873 376.152L644.394 341.689H673Z" fill="#B4702F"/>
<path d="M571.685 450.039L575.066 439.749" stroke="#56303C" stroke-width="4.33" stroke-miterlimit="10" stroke-linecap="round"/>
<path d="M575.249 452.043L578.63 441.753" stroke="#56303C" stroke-width="4.33" stroke-miterlimit="10" stroke-linecap="round"/>
<path d="M578.813 453.544L581.846 444.314" stroke="#56303C" stroke-width="4.33" stroke-miterlimit="10" stroke-linecap="round"/>
<path d="M572.342 434.976L570.278 440.992" stroke="#56303C" stroke-width="4.33" stroke-miterlimit="10" stroke-linecap="round"/>
<path d="M685.451 92.6995H437.257C429.963 92.6995 424.05 98.5131 424.05 105.684V512.315C424.05 519.487 429.963 525.3 437.257 525.3H685.451C692.745 525.3 698.659 519.487 698.659 512.315V105.684C698.659 98.5131 692.745 92.6995 685.451 92.6995Z" stroke="white" stroke-width="3.8" stroke-miterlimit="10" stroke-linecap="round"/>
<path d="M424.05 182.505H698.659" stroke="white" stroke-width="3.8" stroke-miterlimit="10" stroke-linecap="round"/>
<path d="M377.875 340.048L409.577 379.088L468.691 380.589V406.363L400.14 407.701C397.461 407.753 394.8 407.271 392.317 406.283C389.834 405.295 387.581 403.822 385.694 401.952L345.337 361.989L377.875 340.048Z" fill="#FFAFB1"/>
<path d="M377.875 340.048L345.337 361.992L348.231 364.857L377.875 340.048Z" fill="#56303C"/>
<path d="M456.94 361.131H374.61C368.12 361.131 362.859 366.303 362.859 372.684V423.404C362.859 429.784 368.12 434.957 374.61 434.957H456.94C463.429 434.957 468.691 429.784 468.691 423.404V372.684C468.691 366.303 463.429 361.131 456.94 361.131Z" fill="#56303C"/>
<path d="M405.001 366.739V359.976C405.001 358.551 405.286 357.14 405.84 355.824C406.394 354.507 407.207 353.311 408.232 352.303C409.256 351.296 410.473 350.496 411.812 349.951C413.151 349.405 414.586 349.125 416.035 349.125V349.125C418.963 349.125 421.77 350.268 423.84 352.303C425.91 354.338 427.073 357.098 427.073 359.976V366.739" stroke="#D0B000" stroke-width="4.33" stroke-miterlimit="10"/>
<path d="M438.489 388.07V408.376H426.363V420.294H405.711V408.376H393.585V388.07H405.711V376.152H426.363V388.07H438.489Z" fill="#D9AF00"/>
<path d="M466.338 374.99L470.755 376.449C472.133 376.905 473.331 377.774 474.179 378.935C475.027 380.096 475.484 381.489 475.484 382.919V401.075C475.484 402.901 474.816 404.667 473.602 406.05L468.691 411.639V401.969C468.69 401.371 468.5 400.788 468.149 400.301C467.797 399.814 467.3 399.446 466.726 399.248L464.765 398.595C464.24 398.416 463.786 398.08 463.464 397.635C463.142 397.191 462.97 396.658 462.969 396.112V377.388C462.967 376.989 463.061 376.594 463.245 376.237C463.429 375.88 463.697 375.572 464.026 375.337C464.355 375.103 464.737 374.949 465.139 374.889C465.541 374.828 465.952 374.863 466.338 374.99Z" fill="#FFAFB1"/>
<path d="M461.941 382.876C461.941 381.16 463.932 379.94 465.84 380.498L470.951 381.956C472.669 382.418 474.178 383.436 475.235 384.847" stroke="#56303C" stroke-width="3.79" stroke-miterlimit="10" stroke-linecap="round"/>
<path d="M461.941 388.383C461.941 386.667 463.932 385.447 465.84 386.002L470.95 387.46C472.706 387.931 474.242 388.984 475.298 390.442" stroke="#56303C" stroke-width="3.79" stroke-miterlimit="10" stroke-linecap="round"/>
<path d="M461.941 393.887C461.941 392.171 463.932 390.951 465.84 391.509L470.95 392.967C472.606 393.414 474.07 394.376 475.125 395.708" stroke="#56303C" stroke-width="3.79" stroke-miterlimit="10" stroke-linecap="round"/>
<path d="M314.946 529.842L294.447 436.598L225.8 431.909L203.934 461.328C197.394 470.132 193.904 480.768 193.979 491.67L194.218 529.842H314.946Z" fill="#D9AF00"/>
<path d="M226.341 431.867L294.447 436.598L298.164 453.508L224.516 433.639L226.341 431.867Z" fill="#56303C"/>
<path d="M257.529 528.841L263.91 497.275L276.308 495.06" stroke="#56303C" stroke-width="4.33" stroke-miterlimit="10" stroke-linecap="round"/>
<path d="M276.799 442.757C277.823 441.751 277.823 440.119 276.799 439.112C275.775 438.106 274.115 438.106 273.091 439.112C272.068 440.119 272.068 441.751 273.091 442.757C274.115 443.764 275.775 443.764 276.799 442.757Z" stroke="#D0B000" stroke-width="4.33" stroke-miterlimit="10"/>
<path d="M279.66 446.392V471.047" stroke="#56303C" stroke-width="4.33" stroke-miterlimit="10" stroke-linecap="round"/>
<path d="M268.825 292.594L273.829 285.616L321.178 290.483V296.108H331.253C335.797 296.107 340.275 297.172 344.315 299.215C348.356 301.257 351.841 304.219 354.483 307.853L377.872 340.039L345.35 361.983L338.199 355.154L304.287 431.313C303.535 433.001 302.271 434.42 300.667 435.375C299.062 436.329 297.197 436.772 295.327 436.644L226.341 431.887C224.538 431.759 222.851 430.964 221.619 429.663C220.388 428.361 219.703 426.65 219.704 424.872V333.396C219.703 324.517 222.85 315.915 228.604 309.071C234.358 302.227 242.359 297.569 251.23 295.899L268.825 292.594Z" fill="#A0D6FF"/>
<path d="M332.388 334.606H317.82C316.401 334.606 315.251 335.737 315.251 337.132V344.267C315.251 345.662 316.401 346.792 317.82 346.792H332.388C333.807 346.792 334.957 345.662 334.957 344.267V337.132C334.957 335.737 333.807 334.606 332.388 334.606Z" fill="white"/>
<path d="M325.615 330.665V336.623" stroke="#D0B000" stroke-width="4.33" stroke-miterlimit="10"/>
<path d="M306.683 304.206C307.737 304.206 308.591 303.366 308.591 302.33C308.591 301.294 307.737 300.454 306.683 300.454C305.629 300.454 304.775 301.294 304.775 302.33C304.775 303.366 305.629 304.206 306.683 304.206Z" stroke="white" stroke-width="3.79" stroke-miterlimit="10" stroke-linecap="round"/>
<path d="M306.683 318.268C307.737 318.268 308.591 317.428 308.591 316.392C308.591 315.356 307.737 314.516 306.683 314.516C305.629 314.516 304.775 315.356 304.775 316.392C304.775 317.428 305.629 318.268 306.683 318.268Z" stroke="white" stroke-width="3.79" stroke-miterlimit="10" stroke-linecap="round"/>
<path d="M297.009 299.88L305.402 291.325C305.631 291.095 305.907 290.914 306.212 290.796C306.517 290.677 306.844 290.624 307.172 290.638C307.499 290.653 307.82 290.736 308.113 290.881C308.405 291.027 308.663 291.231 308.87 291.482L316.476 300.829" stroke="white" stroke-width="3.79" stroke-miterlimit="10" stroke-linecap="round"/>
<path d="M321.829 296.108V300.327" stroke="white" stroke-width="3.79" stroke-miterlimit="10" stroke-linecap="round"/>
<path d="M298.665 359.079L273.255 321.269" stroke="white" stroke-width="3.79" stroke-miterlimit="10" stroke-linecap="round"/>
<path d="M338.697 355.663L345.848 339.259" stroke="white" stroke-width="3.79" stroke-miterlimit="10" stroke-linecap="round"/>
<path d="M250.41 365.787L293.575 351.572" stroke="white" stroke-width="3.79" stroke-miterlimit="10" stroke-linecap="round"/>
<path d="M339.739 355.986L364.246 339.455" stroke="white" stroke-width="3.79" stroke-miterlimit="10" stroke-linecap="round"/>
<path d="M297.65 359.578L322.449 390.511L404.231 427.544C405.005 427.894 405.694 428.402 406.252 429.035L411.482 434.957H425.42L423.429 438.64C422.638 440.108 421.287 441.208 419.672 441.697L404.862 446.193C402.151 447.017 399.263 447.104 396.506 446.444L311.694 426.177C306.174 424.856 301.156 422.004 297.238 417.959L254.482 373.793L297.65 359.578Z" fill="#FFAFB1"/>
<path d="M411.482 434.957H400.398" stroke="#56303C" stroke-width="3.79" stroke-miterlimit="10" stroke-linecap="round"/>
<path d="M297.65 359.578L254.482 373.793L259.407 378.879L297.65 359.578Z" fill="#56303C"/>
<path d="M337.127 231.688V268.653C337.128 269.879 336.882 271.094 336.405 272.226C335.928 273.359 335.229 274.389 334.347 275.256C333.466 276.123 332.419 276.811 331.267 277.28C330.115 277.749 328.88 277.991 327.633 277.991H321.178V290.483L316.589 290.013L276.395 285.88L287.386 266.043C286.22 265.583 285.222 264.79 284.517 263.768C283.813 262.745 283.436 261.539 283.433 260.304V258.999C283.44 257.367 284.104 255.804 285.28 254.652C286.456 253.499 288.048 252.851 289.708 252.85H291.036C291.749 252.849 292.457 252.968 293.13 253.202C299.893 251.13 304.854 244.318 304.854 236.237C304.855 235.08 304.752 233.926 304.546 232.788C309.346 234.744 314.498 235.73 319.695 235.685C326.325 235.672 332.408 234.175 337.127 231.688Z" fill="#FFAFB1"/>
<path d="M321.178 277.991V290.483L316.589 290.013L301.074 276.252C302.581 277.557 305.637 277.991 307.648 277.991H321.178Z" fill="#56303C"/>
<path d="M307.008 277.991C304.879 277.988 302.799 277.368 301.028 276.207C299.256 275.046 297.874 273.397 297.052 271.466L294.968 266.572" stroke="#56303C" stroke-width="3.79" stroke-miterlimit="10" stroke-linecap="round"/>
<path d="M337.127 256.974V268.611C337.127 271.099 336.122 273.485 334.333 275.244C332.543 277.003 330.117 277.991 327.586 277.991H306.912C305.724 277.991 304.585 277.527 303.745 276.702C302.905 275.877 302.433 274.757 302.432 273.59V258.115L290.817 252.419C290.668 252.346 290.554 252.217 290.501 252.062C290.448 251.907 290.46 251.737 290.535 251.59C290.609 251.444 290.74 251.332 290.898 251.28C291.056 251.228 291.229 251.24 291.378 251.313L302.906 256.974H337.127Z" fill="#A0D6FF"/>
<path d="M326.538 262.527V246.338" stroke="#56303C" stroke-width="3.79" stroke-miterlimit="10" stroke-linecap="round"/>
<path d="M317.156 247.482H306.65L307.456 245.319C307.667 244.755 308.049 244.268 308.55 243.923C309.052 243.579 309.649 243.394 310.26 243.395H321.178L320.873 244.615C320.669 245.433 320.192 246.16 319.518 246.68C318.845 247.2 318.013 247.483 317.156 247.482Z" fill="#56303C"/>
<path d="M329.073 243.388H337.127V247.476H325.91V246.497C325.91 245.673 326.244 244.882 326.837 244.299C327.43 243.716 328.234 243.388 329.073 243.388Z" fill="#56303C"/>
<path d="M311.943 252.497C312.801 251.685 313.947 251.231 315.138 251.231C316.33 251.231 317.475 251.685 318.334 252.497" stroke="#56303C" stroke-width="4.33" stroke-miterlimit="10" stroke-linecap="round"/>
<path d="M328.744 252.497C329.069 252.102 329.479 251.784 329.945 251.565C330.411 251.346 330.921 251.232 331.437 251.232C331.954 251.232 332.464 251.346 332.93 251.565C333.396 251.784 333.806 252.102 334.13 252.497" stroke="#56303C" stroke-width="4.33" stroke-miterlimit="10" stroke-linecap="round"/>
<path d="M288.836 256.673C288.836 256.673 292.738 256.122 293.482 261.319" stroke="#56303C" stroke-width="4.33" stroke-miterlimit="10" stroke-linecap="round"/>
<path d="M288.836 260.138L292.144 258.021" stroke="#56303C" stroke-width="4.33" stroke-miterlimit="10" stroke-linecap="round"/>
<path d="M337.127 229.092V243.388C336.052 241.499 335.391 238.951 335.391 236.142C335.388 234.859 335.533 233.579 335.823 232.328C331.31 234.426 325.728 235.666 319.685 235.666C314.488 235.71 309.336 234.725 304.536 232.768C304.742 233.907 304.845 235.061 304.844 236.217C304.844 244.298 299.867 251.111 293.12 253.182C292.449 252.956 291.745 252.844 291.036 252.85H289.708C288.889 252.849 288.077 253.007 287.319 253.313L285.026 245.274C284.063 241.934 283.975 238.408 284.77 235.026C285.565 231.643 287.217 228.513 289.572 225.927H285.258C285.136 225.934 285.013 225.917 284.898 225.876C284.782 225.835 284.677 225.771 284.587 225.688C284.498 225.606 284.427 225.506 284.378 225.395C284.33 225.284 284.304 225.165 284.304 225.044C284.304 224.924 284.33 224.804 284.378 224.694C284.427 224.583 284.498 224.483 284.587 224.4C284.677 224.318 284.782 224.254 284.898 224.213C285.013 224.172 285.136 224.154 285.258 224.162H290.12V219.986C290.113 219.865 290.13 219.745 290.172 219.631C290.214 219.518 290.279 219.414 290.363 219.326C290.447 219.238 290.548 219.168 290.661 219.12C290.774 219.073 290.895 219.048 291.018 219.048C291.14 219.048 291.262 219.073 291.374 219.12C291.487 219.168 291.589 219.238 291.673 219.326C291.757 219.414 291.822 219.518 291.863 219.631C291.905 219.745 291.923 219.865 291.915 219.986V223.698C292.36 223.336 292.821 222.991 293.296 222.668C296.817 220.253 301.012 218.966 305.306 218.984H326.856C329.551 218.984 332.138 220.023 334.062 221.878C335.986 223.733 337.092 226.257 337.144 228.906L337.127 229.092Z" fill="#56303C"/>
<path d="M306.238 234.905C306.107 234.906 305.979 234.866 305.873 234.791L301.357 231.627C301.231 231.527 301.15 231.385 301.128 231.229C301.106 231.072 301.146 230.913 301.239 230.785C301.332 230.656 301.472 230.567 301.629 230.536C301.787 230.505 301.95 230.535 302.087 230.618L306.603 233.786C306.712 233.862 306.793 233.97 306.835 234.094C306.877 234.218 306.877 234.353 306.837 234.477C306.796 234.602 306.716 234.71 306.609 234.787C306.501 234.864 306.371 234.906 306.238 234.905Z" fill="#FFAFB1"/>
</svg>
