<svg width="418" height="346" viewBox="0 0 418 346" fill="none" xmlns="http://www.w3.org/2000/svg">
<path d="M391.054 263.39V292.855L42.863 278.909C41.5701 278.769 41.6645 276.589 42.9638 276.592L303.227 277.459C311.266 277.487 314.314 265.513 307.51 260.641L281.327 241.889C278.317 240.393 278.842 235.924 282.075 235.272L330.058 226.347H337.511L298.266 237.007C297.074 237.268 297.065 239.208 298.255 239.481L391.054 263.39Z" fill="#F5EFD9"/>
<path d="M374.281 128.346H357.267V141.813H374.281V128.346Z" fill="#F6EED6"/>
<path d="M357.345 226.087V127.427" stroke="#56303C" stroke-width="5.41" stroke-miterlimit="10"/>
<path d="M368.906 133.462V136.418H367.178V138.385H364.581V136.418H362.853V133.462H364.581V131.495H367.178V133.462H368.906Z" fill="#FFAFB1"/>
<path d="M362.069 226.752H310.687V164.58H347.34L362.069 226.752Z" fill="#EDE0C4"/>
<path d="M325.414 226.752H244.305L256.58 164.58L283.633 150.609L310.687 164.58L325.414 226.752Z" fill="#F5EFD9"/>
<path d="M310.687 164.58L283.633 150.609H320.286L347.34 164.58H310.687Z" fill="#EDE0C4"/>
<path d="M283.633 150.609L310.687 164.58H347.34" stroke="#F6EED6" stroke-width="4.33" stroke-miterlimit="10"/>
<path d="M298.607 150.609L325.661 164.58" stroke="#F6EED6" stroke-width="4.33" stroke-miterlimit="10"/>
<path d="M311.127 150.609L338.18 164.58" stroke="#F6EED6" stroke-width="4.33" stroke-miterlimit="10"/>
<path d="M300.062 183.934H265.731V226.75H300.062V183.934Z" fill="#B4702F"/>
<path d="M265.812 176.758H299.575V183.934H265.812C265.009 183.934 264.239 183.571 263.672 182.924C263.104 182.278 262.785 181.402 262.785 180.488V180.202C262.785 179.288 263.104 178.412 263.672 177.766C264.24 177.12 265.01 176.758 265.812 176.758Z" fill="white"/>
<path d="M299.547 183.934C301.152 183.934 302.454 182.327 302.454 180.346C302.454 178.364 301.152 176.758 299.547 176.758C297.941 176.758 296.639 178.364 296.639 180.346C296.639 182.327 297.941 183.934 299.547 183.934Z" fill="#A0D6FF"/>
<path d="M269.539 183.934H300.062V206.083L269.539 183.934Z" fill="#56303C"/>
<path d="M294.407 183.934V191.716" stroke="#F6EED6" stroke-width="3.79" stroke-miterlimit="10"/>
<path d="M269.501 183.934V188.319" stroke="#F6EED6" stroke-width="3.79" stroke-miterlimit="10"/>
<path d="M334.806 181.251H371.751L391.054 226.799H354.11L334.806 181.251Z" fill="#F5EFD9"/>
<path d="M314.921 226.799H354.11L334.806 181.251H334.647L314.921 226.799Z" fill="#A0D6FF"/>
<path d="M334.892 181.251L314.674 226.799" stroke="white" stroke-width="4.33" stroke-miterlimit="10"/>
<path d="M328.637 226.799H342.512C338.785 224.606 335.59 221.403 333.207 217.473C330.825 213.542 329.329 209.004 328.852 204.26L328.637 202.129V226.799Z" fill="#56303C"/>
<path d="M342.093 226.799C334.526 222.346 329.292 212.279 328.332 202.646" stroke="white" stroke-width="5.41" stroke-miterlimit="10" stroke-linecap="round"/>
<path d="M342.093 226.799V203.198" stroke="#56303C" stroke-width="5.41" stroke-miterlimit="10"/>
<path d="M210.468 97.1429C221.29 97.1429 230.062 87.1579 230.062 74.8406C230.062 62.5234 221.29 52.5383 210.468 52.5383C199.647 52.5383 190.875 62.5234 190.875 74.8406C190.875 87.1579 199.647 97.1429 210.468 97.1429Z" fill="#F5EFD9"/>
<path d="M259.573 74.6129H218.61C218.61 70.4784 222.341 67.1272 226.943 67.1272C227.946 67.125 228.943 67.2888 229.904 67.6135C231.43 65.0636 233.773 63.439 236.4 63.439C240.345 63.439 243.649 67.1126 244.513 72.0503C246.028 70.8354 248.475 69.8756 251.234 69.8756C255.842 69.8756 259.573 72.5457 259.573 74.6129Z" fill="#EDE0C4"/>
<path d="M190.444 98.8697H147.976C147.976 93.0705 153.615 88.3696 160.569 88.3696C165.107 88.3696 169.085 90.3731 171.303 93.3729C173.42 92.6059 175.628 92.2181 177.849 92.2236C184.804 92.2254 190.444 95.9719 190.444 98.8697Z" fill="#EDE0C4"/>
<path d="M76.2372 272.702C76.237 274.286 75.7775 275.826 74.9301 277.082C74.0826 278.338 72.8947 279.241 71.5504 279.651" stroke="#D9AF00" stroke-width="5.41" stroke-miterlimit="10" stroke-linecap="round"/>
<path d="M199.203 189.159L180.235 256.78C179.872 258.075 179.156 259.206 178.192 260.008C177.227 260.81 176.063 261.242 174.868 261.242H49.8621" stroke="#56303C" stroke-width="5.41" stroke-miterlimit="10" stroke-linecap="round"/>
<path d="M190.067 189.439H207.134" stroke="#E2AD00" stroke-width="10.82" stroke-linecap="round" stroke-linejoin="round"/>
<path d="M68.0684 278.614C71.5565 278.614 74.3842 275.395 74.3842 271.425C74.3842 267.455 71.5565 264.236 68.0684 264.236C64.5803 264.236 61.7527 267.455 61.7527 271.425C61.7527 275.395 64.5803 278.614 68.0684 278.614Z" fill="#A0D6FF"/>
<path d="M68.0685 276.354C70.4599 276.354 72.3985 274.147 72.3985 271.425C72.3985 268.703 70.4599 266.497 68.0685 266.497C65.6771 266.497 63.7385 268.703 63.7385 271.425C63.7385 274.147 65.6771 276.354 68.0685 276.354Z" stroke="white" stroke-width="5.41" stroke-miterlimit="10"/>
<path d="M159.142 278.614C162.63 278.614 165.458 275.395 165.458 271.425C165.458 267.455 162.63 264.236 159.142 264.236C155.654 264.236 152.826 267.455 152.826 271.425C152.826 275.395 155.654 278.614 159.142 278.614Z" fill="#A0D6FF"/>
<path d="M159.142 276.354C161.533 276.354 163.472 274.147 163.472 271.425C163.472 268.703 161.533 266.497 159.142 266.497C156.751 266.497 154.812 268.703 154.812 271.425C154.812 274.147 156.751 276.354 159.142 276.354Z" stroke="#56303C" stroke-width="5.41" stroke-miterlimit="10" stroke-linecap="round"/>
<path d="M123.305 139.101H61.7576V258.412H123.305V139.101Z" fill="#EDE0C4"/>
<path d="M85.4253 258.485V139.34" stroke="#F6EED6" stroke-width="3.25" stroke-miterlimit="10"/>
<path d="M80.8248 258.485V139.34" stroke="#F6EED6" stroke-width="3.25" stroke-miterlimit="10"/>
<path d="M90.1649 258.485V139.34" stroke="#F6EED6" stroke-width="3.25" stroke-miterlimit="10"/>
<path d="M94.9045 258.485V139.34" stroke="#F6EED6" stroke-width="3.25" stroke-miterlimit="10"/>
<path d="M99.6442 258.485V139.34" stroke="#F6EED6" stroke-width="3.25" stroke-miterlimit="10"/>
<path d="M104.384 258.485V139.34" stroke="#F6EED6" stroke-width="3.25" stroke-miterlimit="10"/>
<path d="M109.123 258.485V139.34" stroke="#F6EED6" stroke-width="3.25" stroke-miterlimit="10"/>
<path d="M113.863 258.485V139.34" stroke="#F6EED6" stroke-width="3.25" stroke-miterlimit="10"/>
<path d="M66.67 258.485V139.34" stroke="#F6EED6" stroke-width="3.25" stroke-miterlimit="10"/>
<path d="M71.4113 258.485V139.34" stroke="#F6EED6" stroke-width="3.25" stroke-miterlimit="10"/>
<path d="M76.1509 258.485V139.34" stroke="#F6EED6" stroke-width="3.25" stroke-miterlimit="10"/>
<path d="M123.133 186.161H61.8552" stroke="#F6EED6" stroke-width="3.25" stroke-miterlimit="10"/>
<path d="M123.133 180.765H61.8552" stroke="#F6EED6" stroke-width="3.25" stroke-miterlimit="10"/>
<path d="M123.133 175.37H61.8552" stroke="#F6EED6" stroke-width="3.25" stroke-miterlimit="10"/>
<path d="M123.133 169.975H61.8552" stroke="#F6EED6" stroke-width="3.25" stroke-miterlimit="10"/>
<path d="M123.133 164.58H61.8552" stroke="#F6EED6" stroke-width="3.25" stroke-miterlimit="10"/>
<path d="M123.133 159.185H61.8552" stroke="#F6EED6" stroke-width="3.25" stroke-miterlimit="10"/>
<path d="M123.133 153.791H61.8552" stroke="#F6EED6" stroke-width="3.25" stroke-miterlimit="10"/>
<path d="M123.133 148.396H62.1224" stroke="#F6EED6" stroke-width="3.25" stroke-miterlimit="10"/>
<path d="M123.133 142.999H61.8552" stroke="#F6EED6" stroke-width="3.25" stroke-miterlimit="10"/>
<path d="M123.133 229.353H61.8552" stroke="#F6EED6" stroke-width="3.25" stroke-miterlimit="10"/>
<path d="M123.133 234.804H61.8552" stroke="#F6EED6" stroke-width="3.25" stroke-miterlimit="10"/>
<path d="M123.133 223.958H61.8552" stroke="#F6EED6" stroke-width="3.25" stroke-miterlimit="10"/>
<path d="M123.133 218.563H61.8552" stroke="#F6EED6" stroke-width="3.25" stroke-miterlimit="10"/>
<path d="M123.133 250.309L61.8552 250.589" stroke="#F6EED6" stroke-width="3.25" stroke-miterlimit="10"/>
<path d="M123.133 256.041H61.8552" stroke="#F6EED6" stroke-width="3.25" stroke-miterlimit="10"/>
<path d="M123.133 245.194H61.8552" stroke="#F6EED6" stroke-width="3.25" stroke-miterlimit="10"/>
<path d="M123.133 239.798H61.8552" stroke="#F6EED6" stroke-width="3.25" stroke-miterlimit="10"/>
<path d="M123.133 213.168H61.8552" stroke="#F6EED6" stroke-width="3.25" stroke-miterlimit="10"/>
<path d="M123.133 207.773H61.8552" stroke="#F6EED6" stroke-width="3.25" stroke-miterlimit="10"/>
<path d="M123.133 202.378H61.8552" stroke="#F6EED6" stroke-width="3.25" stroke-miterlimit="10"/>
<path d="M123.133 196.983H61.8552" stroke="#F6EED6" stroke-width="3.25" stroke-miterlimit="10"/>
<path d="M123.133 191.587H62.1224" stroke="#F6EED6" stroke-width="3.25" stroke-miterlimit="10"/>
<path d="M118.819 258.485V139.34" stroke="#F6EED6" stroke-width="3.25" stroke-miterlimit="10"/>
<path d="M107.08 167.737C107.905 167.737 108.575 165.863 108.575 163.551C108.575 161.24 107.905 159.366 107.08 159.366C106.255 159.366 105.585 161.24 105.585 163.551C105.585 165.863 106.255 167.737 107.08 167.737Z" fill="#D9AF00"/>
<path d="M111.411 171.722C112.498 169.769 112.814 167.779 112.116 167.276C111.419 166.773 109.973 167.948 108.886 169.901C107.799 171.853 107.483 173.844 108.18 174.347C108.877 174.849 110.324 173.674 111.411 171.722Z" fill="#D9AF00"/>
<path d="M105.979 174.35C106.677 173.847 106.361 171.856 105.274 169.904C104.187 167.951 102.74 166.776 102.043 167.279C101.346 167.782 101.662 169.772 102.749 171.725C103.836 173.677 105.282 174.852 105.979 174.35Z" fill="#D9AF00"/>
<path d="M111.412 180.943C112.499 178.99 112.815 177 112.117 176.497C111.42 175.994 109.974 177.169 108.887 179.122C107.8 181.075 107.484 183.065 108.181 183.568C108.878 184.071 110.325 182.896 111.412 180.943Z" fill="#D9AF00"/>
<path d="M105.979 183.571C106.676 183.068 106.361 181.077 105.274 179.125C104.187 177.172 102.74 175.997 102.043 176.5C101.346 177.003 101.662 178.993 102.749 180.946C103.836 182.898 105.282 184.073 105.979 183.571Z" fill="#D9AF00"/>
<path d="M107.08 166.043V190.835" stroke="#D9AF00" stroke-width="4.33" stroke-miterlimit="10" stroke-linecap="round"/>
<path d="M107.08 157.797V156.561" stroke="#D9AF00" stroke-width="4.33" stroke-miterlimit="10" stroke-linecap="round"/>
<path d="M78.1814 173.906C79.0068 173.906 79.676 172.032 79.676 169.72C79.676 167.409 79.0068 165.535 78.1814 165.535C77.356 165.535 76.6869 167.409 76.6869 169.72C76.6869 172.032 77.356 173.906 78.1814 173.906Z" fill="#D9AF00"/>
<path d="M82.1674 178.055C83.264 176.113 83.5909 174.128 82.8976 173.62C82.2043 173.113 80.7532 174.276 79.6565 176.218C78.5599 178.159 78.233 180.145 78.9263 180.652C79.6196 181.159 81.0707 179.997 82.1674 178.055Z" fill="#D9AF00"/>
<path d="M77.4801 178.15C78.1735 177.643 77.8465 175.657 76.7499 173.716C75.6532 171.774 74.2022 170.611 73.5088 171.118C72.8155 171.626 73.1424 173.611 74.2391 175.553C75.3357 177.495 76.7868 178.657 77.4801 178.15Z" fill="#D9AF00"/>
<path d="M82.5135 185.157C83.6005 183.205 83.9164 181.214 83.2192 180.711C82.522 180.209 81.0756 181.384 79.9886 183.336C78.9017 185.289 78.5857 187.279 79.2829 187.782C79.9802 188.285 81.4265 187.11 82.5135 185.157Z" fill="#D9AF00"/>
<path d="M77.081 187.785C77.7783 187.282 77.4623 185.292 76.3753 183.339C75.2884 181.387 73.842 180.211 73.1448 180.714C72.4475 181.217 72.7635 183.208 73.8505 185.16C74.9374 187.113 76.3838 188.288 77.081 187.785Z" fill="#D9AF00"/>
<path d="M78.1814 172.213V190.858" stroke="#D9AF00" stroke-width="4.33" stroke-miterlimit="10" stroke-linecap="round"/>
<path d="M78.1814 163.968V162.731" stroke="#D9AF00" stroke-width="4.33" stroke-miterlimit="10" stroke-linecap="round"/>
<path d="M93.6068 160.278C94.4322 160.278 95.1014 158.404 95.1014 156.093C95.1014 153.781 94.4322 151.907 93.6068 151.907C92.7814 151.907 92.1123 153.781 92.1123 156.093C92.1123 158.404 92.7814 160.278 93.6068 160.278Z" fill="#D9AF00"/>
<path d="M97.9381 163.146C99.025 161.193 99.341 159.203 98.6438 158.7C97.9465 158.197 96.5002 159.372 95.4132 161.325C94.3262 163.277 94.0103 165.268 94.7075 165.771C95.4047 166.274 96.8511 165.098 97.9381 163.146Z" fill="#D9AF00"/>
<path d="M97.937 171.528C99.0239 169.575 99.3399 167.585 98.6427 167.082C97.9454 166.579 96.4991 167.754 95.4121 169.707C94.3251 171.66 94.0092 173.65 94.7064 174.153C95.4036 174.656 96.85 173.481 97.937 171.528Z" fill="#D9AF00"/>
<path d="M92.506 165.775C93.2032 165.273 92.8872 163.282 91.8003 161.329C90.7133 159.377 89.2669 158.202 88.5697 158.704C87.8725 159.207 88.1884 161.198 89.2754 163.15C90.3624 165.103 91.8087 166.278 92.506 165.775Z" fill="#D9AF00"/>
<path d="M92.5046 174.158C93.2018 173.655 92.8859 171.665 91.7989 169.712C90.712 167.759 89.2656 166.584 88.5683 167.087C87.8711 167.59 88.1871 169.58 89.274 171.533C90.361 173.486 91.8074 174.661 92.5046 174.158Z" fill="#D9AF00"/>
<path d="M97.9382 180.749C99.0252 178.797 99.3411 176.806 98.6439 176.303C97.9467 175.8 96.5003 176.976 95.4133 178.928C94.3264 180.881 94.0104 182.871 94.7076 183.374C95.4049 183.877 96.8512 182.702 97.9382 180.749Z" fill="#D9AF00"/>
<path d="M92.5061 183.379C93.2033 182.876 92.8874 180.886 91.8004 178.933C90.7134 176.98 89.267 175.805 88.5698 176.308C87.8726 176.811 88.1885 178.801 89.2755 180.754C90.3625 182.707 91.8089 183.882 92.5061 183.379Z" fill="#D9AF00"/>
<path d="M93.6068 158.586V190.642" stroke="#D9AF00" stroke-width="4.33" stroke-miterlimit="10" stroke-linecap="round"/>
<path d="M102.553 139.076H83.2618V148.691H102.553V139.076Z" fill="white"/>
<path d="M102.553 248.797H83.2618V258.412H102.553V248.797Z" fill="white"/>
<path d="M137.052 139.101H123.305V258.412H137.052V139.101Z" fill="#D9AF00"/>
<path d="M109.92 191.667H75.3892C73.7375 191.667 72.3986 193.191 72.3986 195.071V205.46C72.3986 207.34 73.7375 208.864 75.3892 208.864H109.92C111.572 208.864 112.911 207.34 112.911 205.46V195.071C112.911 193.191 111.572 191.667 109.92 191.667Z" fill="white"/>
<path d="M107.395 197.142H78.0806V203.451H107.395V197.142Z" fill="#A0D6FF"/>
<path d="M85.8237 200.789L86.6238 199.878C86.8179 199.657 87.0809 199.534 87.3551 199.534C87.6293 199.534 87.8922 199.657 88.0863 199.878L88.7552 200.639C88.8913 200.793 89.0754 200.88 89.2672 200.88C89.4591 200.88 89.6432 200.793 89.7793 200.639L90.4465 199.878C90.6406 199.657 90.9036 199.534 91.1778 199.534C91.452 199.534 91.715 199.657 91.9091 199.878L92.6323 200.701C92.6997 200.778 92.7796 200.839 92.8676 200.88C92.9556 200.922 93.0499 200.943 93.1452 200.943C93.2404 200.943 93.3348 200.922 93.4228 200.88C93.5108 200.839 93.5907 200.778 93.658 200.701L94.3797 199.878C94.5738 199.657 94.8368 199.534 95.111 199.534C95.3851 199.534 95.6481 199.657 95.8422 199.878L96.5111 200.639C96.6472 200.793 96.8313 200.88 97.0231 200.88C97.215 200.88 97.3991 200.793 97.5352 200.639L98.2024 199.878C98.3965 199.657 98.6595 199.534 98.9337 199.534C99.2079 199.534 99.4709 199.657 99.6649 199.878L100.625 200.982" stroke="#C06C18" stroke-width="4.33" stroke-miterlimit="10"/>
<path d="M137.052 139.101C137.052 142.478 133.975 145.217 130.172 145.217C126.368 145.217 123.299 142.485 123.299 139.101" stroke="white" stroke-width="5.41" stroke-miterlimit="10"/>
<path d="M61.7576 143.365L91.181 139.076L61.7576 149.995V143.365Z" fill="#56303C"/>
<path d="M85.8237 144.066L86.6238 143.156C86.7197 143.046 86.8337 142.959 86.9591 142.9C87.0846 142.841 87.2192 142.81 87.3551 142.81C87.491 142.81 87.6255 142.841 87.751 142.9C87.8765 142.959 87.9904 143.046 88.0863 143.156L88.7552 143.915C88.8224 143.992 88.9022 144.053 88.9901 144.094C89.0779 144.136 89.1721 144.157 89.2672 144.157C89.3624 144.157 89.4566 144.136 89.5444 144.094C89.6323 144.053 89.7121 143.992 89.7793 143.915L90.4465 143.156C90.5424 143.046 90.6564 142.959 90.7819 142.9C90.9074 142.841 91.0419 142.81 91.1778 142.81C91.3137 142.81 91.4482 142.841 91.5737 142.9C91.6992 142.959 91.8132 143.046 91.9091 143.156L92.6323 143.979C92.6997 144.056 92.7796 144.117 92.8676 144.158C92.9556 144.2 93.0499 144.221 93.1452 144.221C93.2404 144.221 93.3348 144.2 93.4228 144.158C93.5108 144.117 93.5907 144.056 93.658 143.979L94.3797 143.156C94.4756 143.046 94.5895 142.959 94.715 142.9C94.8405 142.841 94.9751 142.81 95.111 142.81C95.2468 142.81 95.3814 142.841 95.5069 142.9C95.6324 142.959 95.7463 143.046 95.8422 143.156L96.5111 143.915C96.5783 143.992 96.6581 144.053 96.7459 144.094C96.8338 144.136 96.928 144.157 97.0231 144.157C97.1182 144.157 97.2124 144.136 97.3003 144.094C97.3882 144.053 97.468 143.992 97.5352 143.915L98.2024 143.156C98.2983 143.046 98.4123 142.959 98.5378 142.9C98.6633 142.841 98.7978 142.81 98.9337 142.81C99.0696 142.81 99.2041 142.841 99.3296 142.9C99.4551 142.959 99.5691 143.046 99.6649 143.156L100.625 144.258" stroke="#C06C18" stroke-width="4.33" stroke-miterlimit="10"/>
<path d="M93.6068 151V150.366" stroke="#D9AF00" stroke-width="4.33" stroke-miterlimit="10" stroke-linecap="round"/>
<path d="M174.91 138.801V152.218C174.91 153.41 174.609 154.576 174.044 155.579C173.479 156.582 172.672 157.379 171.721 157.875C171.419 158.033 171.167 158.291 170.997 158.616C170.828 158.941 170.749 159.317 170.771 159.694C170.794 160.071 170.917 160.431 171.124 160.727C171.33 161.022 171.611 161.239 171.929 161.349L172.172 161.433C172.963 161.705 173.655 162.259 174.148 163.013C174.641 163.767 174.908 164.682 174.91 165.622V165.707C174.909 166.645 174.645 167.557 174.155 168.311C173.666 169.065 172.977 169.62 172.19 169.896C171.785 170.038 171.425 170.31 171.153 170.68C170.881 171.049 170.709 171.5 170.657 171.978C170.604 172.456 170.674 172.941 170.858 173.375C171.042 173.809 171.332 174.173 171.694 174.424L171.854 174.535C172.786 175.184 173.556 176.094 174.09 177.178C174.624 178.262 174.905 179.485 174.905 180.728V251.31C174.905 251.354 174.905 251.396 174.905 251.438C174.843 253.377 173.372 254.929 171.566 254.929C170.85 254.942 170.15 254.69 169.57 254.213C168.99 253.736 168.561 253.058 168.346 252.281C168.195 251.664 167.893 251.109 167.476 250.68L167.346 250.551C166.823 250.023 166.149 249.731 165.45 249.727C164.751 249.723 164.075 250.009 163.547 250.531L163.407 250.671C162.989 251.074 162.681 251.605 162.518 252.201C162.072 253.922 160.353 255.204 158.302 255.204C156.251 255.204 154.534 253.929 154.086 252.201C153.924 251.603 153.617 251.07 153.199 250.664L152.999 250.463C152.489 249.954 151.837 249.667 151.158 249.651C150.479 249.636 149.818 249.894 149.29 250.38L148.994 250.653C148.531 251.07 148.192 251.638 148.021 252.281C147.808 253.058 147.381 253.735 146.803 254.214C146.226 254.692 145.527 254.946 144.813 254.937C143.006 254.937 141.536 253.385 141.473 251.445C141.473 251.403 141.473 251.361 141.473 251.318V181.056C141.474 179.838 141.743 178.64 142.256 177.572C142.769 176.504 143.511 175.6 144.411 174.943L145.101 174.441C145.446 174.189 145.723 173.833 145.9 173.413C146.077 172.992 146.147 172.523 146.102 172.06C146.058 171.596 145.9 171.156 145.647 170.789C145.395 170.422 145.057 170.142 144.672 169.982L144.002 169.701C143.26 169.392 142.621 168.832 142.168 168.095C141.716 167.359 141.474 166.482 141.473 165.583C141.474 164.692 141.712 163.822 142.158 163.088C142.604 162.355 143.235 161.794 143.968 161.48L144.358 161.312C144.649 161.187 144.901 160.971 145.088 160.689C145.274 160.407 145.386 160.07 145.411 159.718C145.435 159.366 145.372 159.013 145.227 158.701C145.082 158.389 144.863 158.13 144.594 157.954L144.227 157.717C143.391 157.172 142.696 156.386 142.212 155.437C141.729 154.489 141.474 153.412 141.473 152.315V138.801L143.618 137.245C144.243 136.79 144.97 136.548 145.712 136.548C146.455 136.548 147.181 136.79 147.807 137.245L148.456 137.721C148.868 138.02 149.347 138.18 149.836 138.18C150.325 138.18 150.803 138.02 151.215 137.721L151.855 137.245C152.481 136.79 153.208 136.548 153.95 136.548C154.693 136.548 155.42 136.79 156.046 137.245L156.817 137.806C157.227 138.102 157.703 138.259 158.188 138.259C158.674 138.259 159.15 138.102 159.56 137.806L160.333 137.245C160.958 136.79 161.685 136.548 162.427 136.548C163.17 136.548 163.896 136.79 164.522 137.245L165.171 137.721C165.583 138.02 166.062 138.18 166.551 138.18C167.04 138.18 167.518 138.02 167.93 137.721L168.58 137.245C169.205 136.789 169.932 136.547 170.674 136.547C171.417 136.547 172.144 136.789 172.769 137.245L174.91 138.801Z" fill="#A0D6FF"/>
<path d="M143.608 141.715C144.233 141.26 144.96 141.018 145.703 141.018C146.445 141.018 147.172 141.26 147.797 141.715L148.447 142.19C148.859 142.49 149.337 142.649 149.826 142.649C150.315 142.649 150.794 142.49 151.206 142.19L151.846 141.715C152.471 141.26 153.198 141.018 153.941 141.018C154.684 141.018 155.411 141.26 156.036 141.715L156.808 142.276C157.218 142.572 157.693 142.729 158.179 142.729C158.665 142.729 159.14 142.572 159.55 142.276L160.334 141.715C160.96 141.26 161.687 141.018 162.429 141.018C163.171 141.018 163.898 141.26 164.524 141.715L165.173 142.19C165.585 142.49 166.064 142.649 166.552 142.649C167.041 142.649 167.52 142.49 167.932 142.19L168.581 141.715C169.207 141.26 169.934 141.018 170.676 141.018C171.418 141.018 172.145 141.26 172.771 141.715" stroke="white" stroke-width="5.41" stroke-miterlimit="10" stroke-linecap="round"/>
<path d="M143.608 146.184C144.234 145.73 144.961 145.49 145.704 145.491C146.446 145.493 147.173 145.737 147.797 146.193L148.447 146.669C148.859 146.969 149.337 147.128 149.826 147.128C150.315 147.128 150.794 146.969 151.206 146.669L151.846 146.193C152.47 145.737 153.197 145.493 153.94 145.492C154.682 145.49 155.41 145.73 156.036 146.184L156.808 146.745C157.218 147.041 157.693 147.199 158.179 147.199C158.665 147.199 159.14 147.041 159.55 146.745L160.323 146.184C160.949 145.73 161.676 145.49 162.419 145.491C163.161 145.493 163.888 145.737 164.512 146.193L165.162 146.669C165.574 146.969 166.052 147.128 166.541 147.128C167.03 147.128 167.509 146.969 167.921 146.669L168.57 146.193C169.195 145.738 169.922 145.495 170.665 145.495C171.407 145.495 172.134 145.738 172.759 146.193" stroke="white" stroke-width="5.41" stroke-miterlimit="10" stroke-linecap="round"/>
<path d="M177.136 180.748V252.396C177.14 253.863 176.672 255.282 175.821 256.384C174.97 257.486 173.793 258.196 172.514 258.379C171.235 258.562 169.941 258.206 168.876 257.378C167.811 256.55 167.05 255.307 166.735 253.884V253.884C166.383 252.312 164.421 252.312 164.069 253.884C163.779 255.179 163.119 256.328 162.191 257.148C161.264 257.968 160.123 258.412 158.949 258.412H157.774C156.6 258.412 155.459 257.968 154.531 257.148C153.604 256.328 152.943 255.179 152.654 253.884L152.642 253.831C152.29 252.259 150.329 252.259 149.977 253.831L149.965 253.884C149.65 255.307 148.889 256.55 147.824 257.378C146.76 258.206 145.466 258.562 144.186 258.379C142.907 258.196 141.731 257.486 140.879 256.384C140.028 255.282 139.56 253.863 139.564 252.396V180.748C139.564 178.342 140.404 176.034 141.899 174.333C143.394 172.632 145.421 171.676 147.535 171.676H169.177C171.289 171.679 173.313 172.636 174.805 174.337C176.298 176.038 177.136 178.344 177.136 180.748V180.748Z" stroke="#FFAFB1" stroke-width="5.41" stroke-miterlimit="10"/>
<path d="M172.324 160.032H144.363C141.706 160.032 139.552 162.484 139.552 165.509V166.199C139.552 169.224 141.706 171.676 144.363 171.676H172.324C174.982 171.676 177.136 169.224 177.136 166.199V165.509C177.136 162.484 174.982 160.032 172.324 160.032Z" stroke="#FFAFB1" stroke-width="5.41" stroke-miterlimit="10"/>
<path d="M154.915 122.684H161.774C165.848 122.684 169.756 124.526 172.637 127.805C175.517 131.084 177.136 135.531 177.136 140.168V152.697C177.136 154.643 176.457 156.509 175.248 157.885C174.039 159.261 172.4 160.034 170.69 160.034H145.997C144.288 160.034 142.648 159.261 141.439 157.885C140.231 156.509 139.552 154.643 139.552 152.697V140.168C139.552 137.872 139.949 135.598 140.721 133.477C141.493 131.355 142.625 129.428 144.051 127.804C145.478 126.18 147.172 124.893 149.036 124.014C150.899 123.135 152.897 122.683 154.915 122.684V122.684Z" stroke="#FFAFB1" stroke-width="5.41" stroke-miterlimit="10"/>
<path d="M152.252 115.535V124.476C152.252 127.006 154.972 129.055 158.344 129.055C161.715 129.055 164.435 127.006 164.435 124.476V115.535H152.252Z" fill="white" stroke="#FFAFB1" stroke-width="5.41" stroke-miterlimit="10"/>
<path d="M158.344 120.114C161.708 120.114 164.435 118.064 164.435 115.535C164.435 113.006 161.708 110.956 158.344 110.956C154.979 110.956 152.252 113.006 152.252 115.535C152.252 118.064 154.979 120.114 158.344 120.114Z" fill="white" stroke="#FFA9AE" stroke-width="5.41" stroke-miterlimit="10"/>
<path d="M164.435 115.535V118.609C164.435 121.137 161.707 123.188 158.344 123.188C154.98 123.188 152.252 121.134 152.252 118.609V115.535" stroke="#A0D6FF" stroke-width="5.41" stroke-miterlimit="10"/>
<path d="M158.344 120.114C161.708 120.114 164.435 118.064 164.435 115.535C164.435 113.006 161.708 110.956 158.344 110.956C154.979 110.956 152.252 113.006 152.252 115.535C152.252 118.064 154.979 120.114 158.344 120.114Z" fill="white" stroke="#A0D6FF" stroke-width="5.41" stroke-miterlimit="10"/>
<path d="M165.764 154.952H150.124C148.385 154.952 146.975 156.557 146.975 158.537V174.311C146.975 176.291 148.385 177.896 150.124 177.896H165.764C167.503 177.896 168.913 176.291 168.913 174.311V158.537C168.913 156.557 167.503 154.952 165.764 154.952Z" fill="white"/>
<path d="M161.109 167.234C161.118 167.714 161.043 168.191 160.889 168.638C160.734 169.084 160.502 169.491 160.207 169.835C159.912 170.178 159.56 170.451 159.171 170.637C158.782 170.823 158.365 170.919 157.943 170.919C157.521 170.919 157.103 170.823 156.715 170.637C156.326 170.451 155.974 170.178 155.679 169.835C155.384 169.491 155.152 169.084 154.997 168.638C154.842 168.191 154.768 167.714 154.777 167.234C154.777 165.243 157.944 160.544 157.944 160.544C157.944 160.544 161.109 165.243 161.109 167.234Z" fill="#A0D6FF"/>
<path d="M159.785 167.064C159.785 167.362 159.734 167.657 159.634 167.932C159.534 168.207 159.387 168.457 159.202 168.668C159.017 168.878 158.797 169.045 158.556 169.159C158.314 169.273 158.055 169.332 157.793 169.332" stroke="white" stroke-width="5.41" stroke-miterlimit="10" stroke-linecap="round"/>
<path d="M113.996 183.606V250.065C113.996 254.671 104.579 258.405 92.9636 258.405C81.3481 258.405 71.9297 254.671 71.9297 250.065V183.606C71.9297 179 81.3465 175.266 92.9636 175.266C104.581 175.266 113.996 179.007 113.996 183.606Z" fill="#A0D6FF"/>
<path d="M92.7171 195.865C81.1017 195.865 71.6848 192.132 71.6848 187.525" stroke="white" stroke-width="5.41" stroke-miterlimit="10" stroke-linecap="round"/>
<path d="M92.7171 218.499C81.1017 218.499 71.6848 214.763 71.6848 210.157" stroke="white" stroke-width="5.41" stroke-miterlimit="10" stroke-linecap="round"/>
<path d="M92.7171 241.131C81.1017 241.131 71.6848 237.397 71.6848 232.791" stroke="white" stroke-width="5.41" stroke-miterlimit="10" stroke-linecap="round"/>
<path d="M86.6173 199.42C77.9766 198.384 71.6848 195.202 71.6848 191.438" stroke="white" stroke-width="5.41" stroke-miterlimit="10" stroke-linecap="round"/>
<path d="M92.7171 199.777C91.4866 199.777 90.2817 199.735 89.1088 199.655" stroke="white" stroke-width="5.41" stroke-miterlimit="10" stroke-linecap="round"/>
<path d="M76.1668 202.449C73.3617 201.032 71.6864 199.245 71.6864 197.306" stroke="white" stroke-width="5.41" stroke-miterlimit="10" stroke-linecap="round"/>
<path d="M92.7171 205.644C87.0285 205.644 81.8681 204.748 78.0822 203.292" stroke="white" stroke-width="5.41" stroke-miterlimit="10" stroke-linecap="round"/>
<path d="M76.1668 233.465C73.3617 232.048 71.6864 230.261 71.6864 228.32" stroke="white" stroke-width="5.41" stroke-miterlimit="10" stroke-linecap="round"/>
<path d="M92.7171 236.66C87.0285 236.66 81.8681 235.765 78.0822 234.31" stroke="white" stroke-width="5.41" stroke-miterlimit="10" stroke-linecap="round"/>
<path d="M113.996 183.606C113.996 188.212 104.579 191.946 92.9636 191.946C81.3481 191.946 71.9297 188.212 71.9297 183.606C71.9297 179 81.3465 175.273 92.9684 175.273C104.59 175.273 113.996 179.007 113.996 183.606Z" fill="white"/>
<path d="M112.144 183.606C112.144 187.445 103.556 190.556 92.9635 190.556C82.3706 190.556 73.781 187.452 73.781 183.606C73.781 179.759 82.369 176.665 92.9683 176.665C103.568 176.665 112.144 179.781 112.144 183.606Z" stroke="#D9AF00" stroke-width="4.33" stroke-miterlimit="10" stroke-linecap="round"/>
<path d="M108.819 183.14C108.819 183.14 101.895 186.923 100.06 186.923C99.1786 186.923 98.3333 186.524 97.71 185.815C97.0867 185.105 96.7366 184.143 96.7366 183.14C96.7366 182.136 97.0867 181.174 97.71 180.465C98.3333 179.755 99.1786 179.357 100.06 179.357C101.895 179.357 108.819 183.14 108.819 183.14Z" fill="#D9AF00"/>
<path d="M100.967 185.661C102.191 185.084 102.771 183.488 102.265 182.096C101.758 180.704 100.356 180.043 99.1329 180.62C97.9098 181.196 97.329 182.792 97.8356 184.184C98.3422 185.577 99.7444 186.238 100.967 185.661Z" fill="white"/>
<path d="M108.819 181.457V184.715" stroke="#6DD7FF" stroke-width="4.87" stroke-miterlimit="10" stroke-linecap="round"/>
<path d="M113.996 203.968V228.556C113.996 232.175 108.179 235.257 100.051 236.412V211.824C108.179 210.669 113.996 207.587 113.996 203.968Z" fill="#D9AF00"/>
<path d="M120.892 180.411L124.081 191.696" stroke="#56303C" stroke-width="10.82" stroke-miterlimit="10" stroke-linecap="round"/>
<path d="M126.315 258.412C142.188 258.412 155.055 243.297 155.055 224.651C155.055 206.006 142.188 190.891 126.315 190.891C110.442 190.891 97.5751 206.006 97.5751 224.651C97.5751 243.297 110.442 258.412 126.315 258.412Z" fill="#FFAFB1"/>
<path d="M155.742 211.509C157.581 216.644 158.314 222.205 157.88 227.729C157.445 233.252 155.856 238.577 153.246 243.258" stroke="white" stroke-width="5.41" stroke-miterlimit="10" stroke-linecap="round"/>
<path d="M101.023 207.303C103.955 201.401 108.403 196.66 113.769 193.716" stroke="white" stroke-width="5.41" stroke-miterlimit="10" stroke-linecap="round"/>
<path d="M136.972 200.797C143.501 205.016 147.925 213.173 147.925 222.544" stroke="#6DD7FF" stroke-width="13.53" stroke-miterlimit="10" stroke-linecap="round"/>
<path d="M130.178 197.974C130.754 198.065 131.322 198.187 131.882 198.338" stroke="#6DD7FF" stroke-width="13.53" stroke-miterlimit="10" stroke-linecap="round"/>
<path d="M135.276 251.42C135.276 251.746 135.161 252.059 134.958 252.29C134.755 252.521 134.48 252.651 134.193 252.651H132.492V253.773C132.497 253.939 132.473 254.104 132.422 254.259C132.37 254.414 132.291 254.556 132.19 254.675C132.089 254.795 131.968 254.89 131.833 254.955C131.699 255.02 131.555 255.053 131.409 255.053C131.263 255.053 131.119 255.02 130.985 254.955C130.851 254.89 130.73 254.795 130.629 254.675C130.528 254.556 130.449 254.414 130.397 254.259C130.345 254.104 130.321 253.939 130.327 253.773V252.651H128.624C128.479 252.657 128.333 252.63 128.197 252.571C128.061 252.512 127.936 252.422 127.831 252.307C127.726 252.192 127.643 252.054 127.586 251.901C127.529 251.749 127.499 251.585 127.499 251.419C127.499 251.253 127.529 251.089 127.586 250.936C127.643 250.783 127.726 250.645 127.831 250.53C127.936 250.415 128.061 250.325 128.197 250.266C128.333 250.207 128.479 250.18 128.624 250.187H130.325V248.558C130.336 248.24 130.455 247.938 130.656 247.717C130.858 247.496 131.128 247.373 131.408 247.373C131.688 247.373 131.957 247.496 132.159 247.717C132.361 247.938 132.479 248.24 132.49 248.558V250.187H134.193C134.48 250.187 134.756 250.316 134.959 250.548C135.162 250.779 135.276 251.093 135.276 251.42Z" fill="#B4702F"/>
<path d="M133.54 181.371C131.949 186.565 126.282 189.041 126.282 189.041C126.282 189.041 123.192 183.094 124.781 177.899C126.37 172.705 132.037 170.23 132.037 170.23C132.037 170.23 135.129 176.176 133.54 181.371Z" fill="#B4702F"/>
<path d="M132.037 170.23C132.037 170.23 135.129 176.176 133.54 181.371C131.951 186.565 126.282 189.041 126.282 189.041L132.037 170.23Z" fill="#56303C"/>
<path d="M97.3127 208.195H62.2008C60.5977 208.195 59.2981 209.675 59.2981 211.499V213.539C59.2981 215.364 60.5977 216.843 62.2008 216.843H97.3127C98.9157 216.843 100.215 215.364 100.215 213.539V211.499C100.215 209.675 98.9157 208.195 97.3127 208.195Z" fill="#56303C"/>
<path d="M101.919 216.843H57.5924C53.323 216.843 49.8621 220.783 49.8621 225.642V249.585C49.8621 254.445 53.323 258.384 57.5924 258.384H101.919C106.189 258.384 109.65 254.445 109.65 249.585V225.642C109.65 220.783 106.189 216.843 101.919 216.843Z" fill="white" stroke="#B4702F" stroke-width="5.41" stroke-miterlimit="10"/>
<path d="M101.492 255.75H58.0196C56.4734 255.75 54.9907 255.051 53.8976 253.806C52.8044 252.561 52.1903 250.873 52.1903 249.114V226.112C52.1903 222.447 54.8001 220.314 58.0196 220.314H101.492C104.712 220.314 107.322 222.447 107.322 226.112V249.114C107.322 250.873 106.707 252.561 105.614 253.806C104.521 255.051 103.038 255.75 101.492 255.75Z" fill="#D9AF00"/>
<path d="M98.0583 248.919C98.9429 248.919 99.66 248.103 99.66 247.096C99.66 246.089 98.9429 245.272 98.0583 245.272C97.1737 245.272 96.4565 246.089 96.4565 247.096C96.4565 248.103 97.1737 248.919 98.0583 248.919Z" fill="white"/>
<path d="M95.5126 250.416C95.8714 250.416 96.1622 250.085 96.1622 249.676C96.1622 249.268 95.8714 248.937 95.5126 248.937C95.1538 248.937 94.8629 249.268 94.8629 249.676C94.8629 250.085 95.1538 250.416 95.5126 250.416Z" fill="white"/>
<path d="M91.877 229.909C92.4753 229.909 92.9603 229.357 92.9603 228.676C92.9603 227.995 92.4753 227.443 91.877 227.443C91.2787 227.443 90.7937 227.995 90.7937 228.676C90.7937 229.357 91.2787 229.909 91.877 229.909Z" fill="white"/>
<path d="M63.8809 245.935C64.5984 245.935 65.1802 245.273 65.1802 244.456C65.1802 243.64 64.5984 242.978 63.8809 242.978C63.1633 242.978 62.5815 243.64 62.5815 244.456C62.5815 245.273 63.1633 245.935 63.8809 245.935Z" fill="white"/>
<path d="M59.9462 242.544C60.305 242.544 60.5958 242.213 60.5958 241.805C60.5958 241.397 60.305 241.065 59.9462 241.065C59.5874 241.065 59.2965 241.397 59.2965 241.805C59.2965 242.213 59.5874 242.544 59.9462 242.544Z" fill="white"/>
<path d="M87.4413 207.915V241.12L85.4748 238.88L83.5626 241.056L81.652 238.88L79.6855 241.12L77.7189 238.88L75.8067 241.056L73.8961 238.88L71.9296 241.12V207.915H87.4413Z" fill="#FFAFB1"/>
<path d="M83.2122 221.715H80.2279L78.735 224.659L80.2279 227.6H83.2122L84.7051 224.659L83.2122 221.715Z" fill="white"/>
<path d="M77.8197 225.365H74.8355L73.3425 228.308L74.8355 231.25H77.8197L79.3127 228.308L77.8197 225.365Z" fill="white"/>
<path d="M83.2122 228.955H80.2279L78.735 231.898L80.2279 234.84H83.2122L84.7051 231.898L83.2122 228.955Z" fill="white"/>
<path d="M71.9296 241.12L73.5137 239.317C73.6151 239.201 73.7527 239.136 73.8961 239.136C74.0396 239.136 74.1771 239.201 74.2786 239.317L75.8067 241.056L77.3364 239.317C77.4379 239.201 77.5754 239.136 77.7189 239.136C77.8623 239.136 77.9999 239.201 78.1013 239.317L79.6855 241.12L81.2696 239.317C81.371 239.201 81.5086 239.136 81.652 239.136C81.7955 239.136 81.933 239.201 82.0345 239.317L83.5626 241.056L85.0923 239.317C85.1938 239.201 85.3313 239.136 85.4748 239.136C85.6182 239.136 85.7558 239.201 85.8572 239.317L87.4413 241.12" stroke="white" stroke-width="3.79" stroke-linejoin="round"/>
<path d="M112.911 135.908L61.6583 143.376L59.6981 143.66L50.7245 144.971H50.6829L47.297 145.465L43.2502 109.459L107.752 100.055C108.044 100.014 108.34 100.105 108.573 100.31C108.807 100.515 108.96 100.816 109 101.148L112.911 135.908Z" fill="#D9AF00"/>
<path d="M108.911 99.3267L91.2067 101.973L95.3535 137.918L113.058 135.272L108.911 99.3267Z" fill="#B4702F"/>
<path d="M91.1169 102.45C91.5842 106.599 81.2456 111.526 68.0269 113.453C54.8081 115.38 43.7127 113.579 43.2455 109.428L91.1169 102.45Z" fill="#A0D6FF"/>
<path d="M78.6726 130.264C77.1397 133.996 73.3074 135.816 71.864 136.384L75.1491 128.388C75.1912 128.271 75.1921 128.14 75.1517 128.022C75.1112 127.904 75.0326 127.808 74.9319 127.755C74.8313 127.701 74.7164 127.693 74.6109 127.733C74.5054 127.773 74.4174 127.858 74.365 127.969L71.08 135.967C70.5391 134.342 69.3086 129.829 70.8415 126.095C72.7489 121.451 78.2118 119.77 78.2118 119.77C78.2118 119.77 80.58 125.62 78.6726 130.264Z" fill="white"/>
<path d="M64.6954 130.863L68.8061 134.883C67.6044 134.983 64.8282 134.985 62.9576 133.16C60.5142 130.774 60.543 126.17 60.543 126.17C60.543 126.17 64.5433 125.441 66.982 127.82C68.8509 129.641 69.2734 132.765 69.3694 134.135L65.2522 130.115C65.2096 130.068 65.1592 130.032 65.1039 130.009C65.0486 129.985 64.9897 129.975 64.9308 129.978C64.8718 129.981 64.8141 129.998 64.7611 130.028C64.7081 130.057 64.661 130.099 64.6226 130.15C64.5842 130.201 64.5554 130.26 64.5379 130.324C64.5204 130.389 64.5145 130.456 64.5207 130.523C64.5269 130.59 64.5451 130.654 64.574 130.713C64.6029 130.771 64.642 130.823 64.689 130.863H64.6954Z" fill="white"/>
<path d="M65.2619 124.043C66.0555 124.043 66.6988 123.31 66.6988 122.407C66.6988 121.504 66.0555 120.771 65.2619 120.771C64.4683 120.771 63.825 121.504 63.825 122.407C63.825 123.31 64.4683 124.043 65.2619 124.043Z" stroke="#56303C" stroke-width="5.41" stroke-miterlimit="10" stroke-linecap="round"/>
<path d="M70.9033 122.967C71.6352 122.618 71.9798 121.659 71.6731 120.826C71.3663 119.993 70.5243 119.601 69.7924 119.95C69.0605 120.299 68.7158 121.258 69.0226 122.091C69.3294 122.924 70.1714 123.316 70.9033 122.967Z" stroke="#56303C" stroke-width="5.41" stroke-miterlimit="10" stroke-linecap="round"/>
<path d="M67.2748 119.405C68.0684 119.405 68.7117 118.673 68.7117 117.77C68.7117 116.867 68.0684 116.134 67.2748 116.134C66.4812 116.134 65.8379 116.867 65.8379 117.77C65.8379 118.673 66.4812 119.405 67.2748 119.405Z" stroke="#56303C" stroke-width="5.41" stroke-miterlimit="10" stroke-linecap="round"/>
<path d="M95.7253 137.95L103.289 130.514L112.463 135.377" stroke="#56303C" stroke-width="5.41" stroke-miterlimit="10" stroke-linecap="round"/>
<path d="M91.6082 102.729L100.91 109.375L103.289 130.514" stroke="#56303C" stroke-width="5.41" stroke-miterlimit="10" stroke-linecap="round"/>
<path d="M108.488 100.334L100.91 109.375" stroke="#56303C" stroke-width="5.41" stroke-miterlimit="10" stroke-linecap="round"/>
<path d="M279.023 265.315L278.767 270.89L273.866 270.828L269.337 267.251L275.692 261.24L276.706 263.014C277.275 264.011 278.078 264.808 279.023 265.315Z" fill="#B4702F"/>
<path d="M275.692 261.242L269.336 267.254L271.288 268.795L275.692 261.242Z" fill="#56303C"/>
<path d="M292.106 264.713L277.21 278.173C276.959 278.402 276.658 278.549 276.339 278.599C276.021 278.648 275.696 278.598 275.4 278.454C275.104 278.31 274.849 278.077 274.66 277.78C274.472 277.483 274.358 277.134 274.33 276.769L273.861 270.83L278.762 270.891L279.018 265.316C280.161 265.931 281.452 266.09 282.684 265.768L291.568 263.453C291.708 263.415 291.855 263.433 291.984 263.503C292.114 263.573 292.219 263.691 292.281 263.838C292.344 263.985 292.361 264.151 292.329 264.311C292.297 264.47 292.218 264.612 292.106 264.713Z" fill="#D9AF00"/>
<path d="M276.095 279.173L292.844 264.007" stroke="#56303C" stroke-width="5.41" stroke-miterlimit="10" stroke-linecap="round"/>
<path d="M282.673 264.537L281.665 265.511L280.811 264.364C280.698 264.214 280.613 264.039 280.559 263.851C280.506 263.663 280.486 263.465 280.5 263.268C280.514 263.071 280.562 262.879 280.642 262.704C280.721 262.528 280.83 262.372 280.963 262.244V262.244C281.095 262.117 281.249 262.02 281.414 261.96C281.58 261.9 281.754 261.878 281.927 261.895C282.1 261.912 282.268 261.968 282.423 262.059C282.577 262.15 282.713 262.275 282.825 262.426V262.426C283.049 262.73 283.159 263.122 283.131 263.517C283.102 263.913 282.938 264.279 282.673 264.537Z" stroke="#56303C" stroke-width="5.41" stroke-miterlimit="10" stroke-linecap="round"/>
<path d="M210.294 265.034L208.971 269.229H203.671L202.82 264.007L202.925 263.894L205.41 261.242L210.294 265.034Z" fill="#B4702F"/>
<path d="M205.409 261.242L210.294 265.034L209.388 267.905L205.409 261.242Z" fill="#56303C"/>
<path d="M202.82 264.007L203.671 269.229H208.951L208.827 269.617C208.574 272.134 209.583 275.372 211.651 276.315L214.225 277.379C214.346 277.435 214.446 277.537 214.508 277.667C214.57 277.798 214.591 277.949 214.566 278.095C214.541 278.24 214.473 278.372 214.373 278.466C214.272 278.561 214.146 278.613 214.016 278.614H205.909L197.992 268.551C197.293 267.66 197.619 265.967 198.613 265.584L202.82 264.007Z" fill="#D9AF00"/>
<path d="M197.033 267.457L205.913 278.616H214.704" stroke="#56303C" stroke-width="5.41" stroke-miterlimit="10" stroke-linecap="round"/>
<path d="M210.379 272.74L209.159 272.163L209.667 270.773C209.733 270.591 209.831 270.425 209.954 270.285C210.076 270.146 210.222 270.035 210.383 269.96C210.543 269.885 210.715 269.846 210.889 269.847C211.063 269.847 211.234 269.887 211.395 269.963V269.963C211.555 270.039 211.701 270.15 211.823 270.289C211.946 270.429 212.043 270.595 212.109 270.778C212.175 270.961 212.209 271.157 212.209 271.354C212.208 271.552 212.174 271.747 212.107 271.93V271.93C211.972 272.298 211.714 272.59 211.39 272.742C211.066 272.894 210.702 272.894 210.379 272.74Z" stroke="#56303C" stroke-width="5.41" stroke-miterlimit="10" stroke-linecap="round"/>
<path d="M275.692 261.242L265.492 270.895L237.071 214.434L233.288 232.465L212.233 266.193L202.368 258.889L218.978 219.388L222.881 182.679C223.067 180.931 223.809 179.322 224.966 178.155C226.124 176.988 227.616 176.343 229.163 176.342H244.618C244.701 176.342 244.782 176.37 244.851 176.423C244.92 176.475 244.974 176.55 245.006 176.637L275.692 261.242Z" fill="#EDE0C4"/>
<path d="M232.581 233.235V176.122" stroke="#F6EED6" stroke-width="3.25" stroke-miterlimit="10"/>
<path d="M227.98 241.617V176.122" stroke="#F6EED6" stroke-width="3.25" stroke-miterlimit="10"/>
<path d="M237.32 214.235V176.122" stroke="#F6EED6" stroke-width="3.25" stroke-miterlimit="10"/>
<path d="M242.06 222.617V176.122" stroke="#F6EED6" stroke-width="3.25" stroke-miterlimit="10"/>
<path d="M246.801 233.235V179.475" stroke="#F6EED6" stroke-width="3.25" stroke-miterlimit="10"/>
<path d="M251.541 243.295V192.607" stroke="#F6EED6" stroke-width="3.25" stroke-miterlimit="10"/>
<path d="M256.28 254.749V206.578" stroke="#F6EED6" stroke-width="3.25" stroke-miterlimit="10"/>
<path d="M261.02 262.573V220.548" stroke="#F6EED6" stroke-width="3.25" stroke-miterlimit="10"/>
<path d="M213.827 264.249V231.167" stroke="#F6EED6" stroke-width="3.25" stroke-miterlimit="10"/>
<path d="M218.567 254.749V219.989" stroke="#F6EED6" stroke-width="3.25" stroke-miterlimit="10"/>
<path d="M208.993 263.97V244.02" stroke="#F6EED6" stroke-width="3.25" stroke-miterlimit="10"/>
<path d="M223.306 249.161V179.475" stroke="#F6EED6" stroke-width="3.25" stroke-miterlimit="10"/>
<path d="M259.733 217.073H219.077" stroke="#F6EED6" stroke-width="3.25" stroke-miterlimit="10"/>
<path d="M258.015 211.678H219.813" stroke="#F6EED6" stroke-width="3.25" stroke-miterlimit="10"/>
<path d="M256.296 206.283H219.813" stroke="#F6EED6" stroke-width="3.25" stroke-miterlimit="10"/>
<path d="M253.842 200.888H220.796" stroke="#F6EED6" stroke-width="3.25" stroke-miterlimit="10"/>
<path d="M251.632 195.494H221.285" stroke="#F6EED6" stroke-width="3.25" stroke-miterlimit="10"/>
<path d="M249.915 190.099H221.776" stroke="#F6EED6" stroke-width="3.25" stroke-miterlimit="10"/>
<path d="M247.95 184.704H222.759" stroke="#F6EED6" stroke-width="3.25" stroke-miterlimit="10"/>
<path d="M245.987 179.307H223.762" stroke="#F6EED6" stroke-width="3.25" stroke-miterlimit="10"/>
<path d="M275.199 260.266H201.648" stroke="#F6EED6" stroke-width="3.25" stroke-miterlimit="10"/>
<path d="M277.653 265.717H201.648" stroke="#F6EED6" stroke-width="3.25" stroke-miterlimit="10"/>
<path d="M273.971 254.871H203.856" stroke="#F6EED6" stroke-width="3.25" stroke-miterlimit="10"/>
<path d="M272.253 249.476H205.575" stroke="#F6EED6" stroke-width="3.25" stroke-miterlimit="10"/>
<path d="M270.29 244.082H208.03" stroke="#F6EED6" stroke-width="3.25" stroke-miterlimit="10"/>
<path d="M267.589 238.687H210.484" stroke="#F6EED6" stroke-width="3.25" stroke-miterlimit="10"/>
<path d="M265.38 233.292H212.939" stroke="#F6EED6" stroke-width="3.25" stroke-miterlimit="10"/>
<path d="M263.662 227.895H215.395" stroke="#F6EED6" stroke-width="3.25" stroke-miterlimit="10"/>
<path d="M261.207 222.5H217.626" stroke="#F6EED6" stroke-width="3.25" stroke-miterlimit="10"/>
<path d="M265.974 269.839V233.401" stroke="#F6EED6" stroke-width="3.25" stroke-miterlimit="10"/>
<path d="M270.885 265.367V249.607" stroke="#F6EED6" stroke-width="3.25" stroke-miterlimit="10"/>
<path d="M237.071 214.435L226.67 192.909C225.515 190.523 224.91 187.843 224.91 185.119" stroke="#56303C" stroke-width="5.41" stroke-miterlimit="10" stroke-linecap="round"/>
<path d="M265.492 270.892L275.692 261.242" stroke="#56303C" stroke-width="5.41" stroke-miterlimit="10" stroke-linecap="round"/>
<path d="M202.368 258.885L212.233 266.189" stroke="#56303C" stroke-width="5.41" stroke-miterlimit="10" stroke-linecap="round"/>
<path d="M244.407 177.317L238.906 186.737" stroke="#56303C" stroke-width="5.41" stroke-miterlimit="10" stroke-linecap="round"/>
<path d="M244.201 115.305L238.533 113.205C238.533 113.205 236.959 108.372 237.821 106.803C238.684 105.235 248.1 103.683 248.1 103.683C250.808 103.082 253.16 103.711 253.474 105.179C253.81 106.743 251.714 108.67 248.782 109.483L244.201 115.305Z" fill="#56303C"/>
<path d="M252.707 114.983H251.907C251.859 114.982 251.811 114.993 251.767 115.016C251.724 115.039 251.685 115.072 251.654 115.115C251.623 115.157 251.601 115.206 251.59 115.26C251.578 115.313 251.577 115.368 251.587 115.422L252.158 118.668C252.197 118.887 252.192 119.114 252.144 119.331C252.096 119.548 252.007 119.75 251.882 119.923C251.757 120.096 251.6 120.235 251.423 120.331C251.245 120.427 251.051 120.476 250.854 120.476H249.813C249.422 120.477 249.047 120.654 248.77 120.969C248.494 121.284 248.339 121.71 248.339 122.156V126.756H233.195C233.978 126.757 234.747 126.521 235.422 126.07C236.097 125.619 236.654 124.972 237.035 124.194L239.501 117.914C238.98 117.768 238.516 117.428 238.185 116.947C237.853 116.466 237.673 115.873 237.672 115.262V115.245C237.672 114.885 237.734 114.527 237.855 114.194C237.977 113.86 238.154 113.557 238.378 113.302C238.603 113.047 238.869 112.844 239.161 112.706C239.454 112.568 239.768 112.497 240.085 112.497H240.364C240.848 112.497 241.321 112.655 241.729 112.952L242.713 113.681C245.358 112.371 244.338 108.614 244.338 108.614C249.51 109.268 251.166 105.929 251.166 105.929L253.072 114.466C253.085 114.528 253.086 114.593 253.073 114.656C253.061 114.718 253.037 114.777 253.001 114.827C252.966 114.876 252.921 114.917 252.87 114.944C252.819 114.971 252.763 114.984 252.707 114.983Z" fill="#B4702F"/>
<path d="M249.811 120.476C249.423 120.477 249.052 120.652 248.777 120.964C248.503 121.275 248.348 121.698 248.347 122.139L248.337 124.871L244.337 119.456C244.598 119.778 244.915 120.034 245.267 120.209C245.62 120.384 246 120.475 246.385 120.474L249.811 120.476Z" fill="#56303C"/>
<path d="M248.376 110.311L250.307 109.776L250.391 110.167C250.443 110.411 250.408 110.669 250.293 110.884C250.178 111.099 249.993 111.254 249.778 111.313L247.865 111.844L247.777 111.435C247.726 111.196 247.76 110.943 247.872 110.732C247.985 110.522 248.166 110.37 248.376 110.311Z" fill="#56303C"/>
<path d="M249.918 112.71C249.91 112.795 249.88 112.876 249.832 112.942C249.785 113.009 249.721 113.058 249.649 113.084C249.577 113.11 249.501 113.112 249.428 113.09C249.355 113.067 249.29 113.021 249.239 112.957C249.189 112.894 249.156 112.814 249.144 112.73C249.133 112.645 249.143 112.558 249.173 112.48C249.204 112.402 249.254 112.335 249.317 112.288C249.38 112.241 249.454 112.216 249.529 112.216C249.638 112.223 249.74 112.279 249.813 112.372C249.886 112.464 249.924 112.586 249.918 112.71Z" fill="#56303C"/>
<path d="M239.74 114.213C239.926 114.213 240.111 114.255 240.284 114.336C240.456 114.417 240.613 114.537 240.745 114.687C240.877 114.837 240.982 115.016 241.053 115.212C241.124 115.409 241.161 115.619 241.161 115.832" stroke="#56303C" stroke-width="4.33" stroke-miterlimit="10" stroke-linecap="round"/>
<path d="M240.765 114.706L239.904 115.621" stroke="#56303C" stroke-width="4.33" stroke-miterlimit="10" stroke-linecap="round"/>
<path d="M251.763 116.424C251.208 116.551 250.307 115.978 250.307 115.513" stroke="#56303C" stroke-width="4.33" stroke-miterlimit="10"/>
<path d="M250.918 103.337L237.736 110.441L237.634 109.885C237.278 107.965 237.534 105.963 238.354 104.237C239.175 102.511 240.507 101.173 242.114 100.461L246.212 98.651C246.729 98.4221 247.3 98.4096 247.824 98.6158C248.348 98.822 248.79 99.2334 249.072 99.7766L250.918 103.337Z" fill="#A0D6FF"/>
<path d="M237.736 110.448L254.245 101.775" stroke="#D9AF00" stroke-width="5.41" stroke-miterlimit="10" stroke-linecap="round"/>
<path d="M249.203 100.032L246.699 101.232L247.387 103.17L250.107 101.775L249.203 100.032Z" fill="#D9AF00"/>
<path d="M226.441 176.338H243.785C244.261 176.338 244.723 176.153 245.095 175.814C245.466 175.475 245.725 175.001 245.828 174.472L250.558 150.248C251.441 145.726 251.399 141.034 250.433 136.535L248.342 126.756H232.069C229.743 126.756 227.457 127.445 225.437 128.756C223.417 130.068 221.731 131.956 220.548 134.235L199.32 175.335C199.046 175.865 198.872 176.455 198.809 177.066C198.746 177.677 198.795 178.297 198.954 178.885C199.113 179.473 199.378 180.017 199.732 180.483C200.086 180.948 200.521 181.324 201.01 181.588L204.573 183.507C205.403 183.954 206.345 184.053 207.232 183.786C208.119 183.52 208.896 182.905 209.423 182.05L224.785 157.234L223.532 172.694C223.494 173.155 223.541 173.62 223.67 174.06C223.799 174.499 224.007 174.903 224.28 175.246C224.554 175.589 224.888 175.863 225.26 176.051C225.632 176.239 226.034 176.337 226.441 176.338Z" fill="#A0D6FF"/>
<path d="M245.86 129.885H247.228" stroke="#56303C" stroke-width="5.41" stroke-miterlimit="10" stroke-linecap="round"/>
<path d="M247.228 130.674C247.611 130.674 247.921 130.321 247.921 129.885C247.921 129.45 247.611 129.096 247.228 129.096C246.846 129.096 246.535 129.45 246.535 129.885C246.535 130.321 246.846 130.674 247.228 130.674Z" fill="#D9AF00"/>
<path d="M246.107 133.519H247.475" stroke="#56303C" stroke-width="5.41" stroke-miterlimit="10" stroke-linecap="round"/>
<path d="M247.475 134.302C247.857 134.302 248.168 133.949 248.168 133.513C248.168 133.078 247.857 132.725 247.475 132.725C247.092 132.725 246.782 133.078 246.782 133.513C246.782 133.949 247.092 134.302 247.475 134.302Z" fill="#D9AF00"/>
<path d="M230.78 144.285L230.289 148.368" stroke="white" stroke-width="4.87" stroke-miterlimit="10" stroke-linecap="round"/>
<path d="M224.777 157.238L232.821 144.68" stroke="#56303C" stroke-width="5.41" stroke-miterlimit="10" stroke-linecap="round"/>
<path d="M251.337 148.871H246.814C246.269 148.871 245.828 149.373 245.828 149.993V152.91C245.828 153.53 246.269 154.032 246.814 154.032H251.337C251.882 154.032 252.323 153.53 252.323 152.91V149.993C252.323 149.373 251.882 148.871 251.337 148.871Z" fill="#F6EED6"/>
<path d="M232.315 126.756L240.661 131.444C242.931 132.717 244.885 134.615 246.346 136.967C247.806 139.318 248.727 142.048 249.025 144.908L249.464 149.12L249.572 130.249" stroke="white" stroke-width="2.71" stroke-miterlimit="10" stroke-linecap="round"/>
<path d="M249.396 147.681V149.12" stroke="#56303C" stroke-width="5.41" stroke-miterlimit="10" stroke-linecap="round"/>
<path d="M246.782 154.032H249.819L249.625 155.025L246.782 154.032Z" fill="#56303C"/>
<path d="M250.998 150.938H247.526V151.841H250.998V150.938Z" fill="#D9AF00"/>
<path d="M247.276 126.554L248.339 125.472V123.745L249.801 126.113C249.967 126.383 250.069 126.696 250.097 127.024C250.125 127.351 250.078 127.681 249.961 127.982L249.08 130.248L248.342 126.756H245.254L243.804 129.614L232.069 126.756L235.563 121.78C235.8 121.444 236.127 121.206 236.495 121.104C236.863 121.002 237.25 121.042 237.595 121.217L247.276 126.554Z" fill="#D9AF00"/>
<path d="M243.804 129.335L245.583 126.144" stroke="white" stroke-width="4.87" stroke-miterlimit="10" stroke-linecap="round"/>
<path d="M199.509 188.705L202.287 188.631C204.828 188.396 207.212 185.777 205.967 182.83C205.439 181.582 203.652 180.743 202.085 179.974C200.466 179.18 199.006 179.009 197.653 180.293L194.726 182.58C194.237 182.961 193.88 183.524 193.716 184.172L192.052 190.35C191.99 190.581 191.976 190.826 192.01 191.064C192.044 191.303 192.127 191.529 192.251 191.725C192.375 191.921 192.537 192.082 192.724 192.195C192.912 192.308 193.12 192.371 193.332 192.377L198.304 192.507C198.615 192.514 198.922 192.422 199.189 192.241C199.456 192.06 199.673 191.796 199.814 191.481L199.954 191.172C199.993 191.085 200.012 190.988 200.009 190.891C200.007 190.794 199.982 190.699 199.938 190.615C199.894 190.531 199.833 190.462 199.759 190.413C199.685 190.364 199.601 190.337 199.515 190.336C199.4 190.333 199.288 190.298 199.187 190.235C199.086 190.173 199 190.083 198.936 189.974C198.872 189.865 198.832 189.74 198.82 189.61C198.807 189.48 198.822 189.348 198.864 189.226C198.915 189.077 199.003 188.948 199.117 188.855C199.232 188.763 199.368 188.711 199.509 188.705Z" fill="#B4702F"/>
<path d="M194.96 187.919L194.196 190.833C194.16 190.971 194.152 191.117 194.174 191.259C194.196 191.401 194.247 191.535 194.323 191.651C194.398 191.766 194.496 191.86 194.609 191.925C194.723 191.99 194.847 192.024 194.974 192.024H195.576L197.016 192.086H196.838C196.712 192.086 196.587 192.052 196.474 191.987C196.36 191.922 196.262 191.828 196.187 191.713C196.111 191.597 196.06 191.463 196.039 191.321C196.017 191.179 196.024 191.033 196.061 190.895L196.824 188.074" stroke="#56303C" stroke-width="4.33" stroke-linecap="round" stroke-linejoin="round"/>
<path d="M202.632 185.731L200.176 186.919C199.888 187.059 199.642 187.292 199.469 187.589C199.296 187.887 199.204 188.236 199.203 188.593" stroke="#56303C" stroke-width="4.33" stroke-miterlimit="10" stroke-linecap="round"/>
</svg>
