<svg width="461" height="350" viewBox="0 0 461 350" fill="none" xmlns="http://www.w3.org/2000/svg">
<path d="M349.853 96.0744H301.468C301.468 90.9703 307.922 86.8327 315.882 86.8327C318.516 86.8108 321.129 87.2931 323.567 88.251C325.309 85.8247 327.816 83.9956 330.722 83.0312C333.628 82.0669 336.78 82.0178 339.717 82.8913C342.654 83.7647 345.222 85.5149 347.046 87.8857C348.87 90.2566 349.854 93.1239 349.853 96.0683V96.0744Z" fill="#F7F2E1"/>
<path d="M69.2275 107.999H4.8295C4.8295 102.497 10.6943 98.0377 17.9305 98.0377C19.5074 98.0339 21.0763 98.2523 22.5867 98.6861C24.9868 95.2982 28.6716 93.1301 32.8008 93.1301C39.0021 93.1301 44.196 98.0195 45.5547 104.589C47.9379 102.968 51.7835 101.695 56.1223 101.695C63.3606 101.699 69.2275 105.253 69.2275 107.999Z" fill="#F7F2E1"/>
<path d="M58.4822 347.813C79.2815 347.813 96.1427 323.717 96.1427 293.992C96.1427 264.267 79.2815 240.171 58.4822 240.171C37.6828 240.171 20.8216 264.267 20.8216 293.992C20.8216 323.717 37.6828 347.813 58.4822 347.813Z" fill="#F5EFD9"/>
<path d="M351.153 347.815C351.153 314.198 331.446 286.945 307.13 286.945C282.814 286.945 263.107 314.198 263.107 347.815H351.153Z" fill="#EDE0C4"/>
<path d="M63.1934 347.815C63.1934 327.016 45.2859 310.155 23.192 310.155C1.09815 310.155 -16.8094 327.016 -16.8094 347.815H63.1934Z" fill="#EDE0C4"/>
<path d="M150.335 347.815H67.0941C74.9484 334.071 90.6399 324.698 108.715 324.698C126.789 324.698 142.481 334.071 150.335 347.815Z" fill="#F5EFD9"/>
<path d="M322.206 347.815H247.282C254.351 334.071 268.475 324.698 284.744 324.698C301.013 324.698 315.137 334.071 322.206 347.815Z" fill="#F5EFD9"/>
<path d="M54.8461 315.681V347.815" stroke="#D9AF00" stroke-width="3.74" stroke-miterlimit="10" stroke-linecap="round"/>
<path d="M60.5034 326.793L54.8461 333.816" stroke="#D9AF00" stroke-width="3.74" stroke-miterlimit="10" stroke-linecap="round"/>
<path d="M54.8461 347.815L44.5219 338.3" stroke="#D9AF00" stroke-width="3.74" stroke-miterlimit="10" stroke-linecap="round"/>
<path d="M54.8461 313.63C57.9705 313.63 60.5034 311.206 60.5034 308.214C60.5034 305.223 57.9705 302.798 54.8461 302.798C51.7216 302.798 49.1887 305.223 49.1887 308.214C49.1887 311.206 51.7216 313.63 54.8461 313.63Z" fill="white"/>
<path d="M54.8461 302.8V313.63" stroke="#D9AF00" stroke-width="2.14" stroke-miterlimit="10" stroke-linecap="round"/>
<path d="M49.1908 308.214H60.5034" stroke="#D9AF00" stroke-width="2.14" stroke-miterlimit="10" stroke-linecap="round"/>
<path d="M50.8459 304.385L58.8462 312.044" stroke="#D9AF00" stroke-width="2.14" stroke-miterlimit="10" stroke-linecap="round"/>
<path d="M50.8459 312.044L58.8462 304.385" stroke="#D9AF00" stroke-width="2.14" stroke-miterlimit="10" stroke-linecap="round"/>
<path d="M55.6463 310.067C56.7143 309.643 57.2215 308.471 56.7791 307.449C56.3367 306.426 55.1123 305.94 54.0442 306.364C52.9762 306.788 52.469 307.96 52.9114 308.982C53.3538 310.005 54.5783 310.49 55.6463 310.067Z" fill="white"/>
<path d="M54.8461 309.298C55.4714 309.298 55.9784 308.813 55.9784 308.214C55.9784 307.615 55.4714 307.13 54.8461 307.13C54.2207 307.13 53.7137 307.615 53.7137 308.214C53.7137 308.813 54.2207 309.298 54.8461 309.298Z" fill="#D9AF00"/>
<path d="M65.2824 327.224C68.4069 327.224 70.9397 324.799 70.9397 321.808C70.9397 318.817 68.4069 316.392 65.2824 316.392C62.1579 316.392 59.6251 318.817 59.6251 321.808C59.6251 324.799 62.1579 327.224 65.2824 327.224Z" fill="white"/>
<path d="M65.2824 316.392V327.224" stroke="#D9AF00" stroke-width="2.14" stroke-miterlimit="10" stroke-linecap="round"/>
<path d="M59.6251 321.808H70.9376" stroke="#D9AF00" stroke-width="2.14" stroke-miterlimit="10" stroke-linecap="round"/>
<path d="M61.2823 317.979L69.2805 325.638" stroke="#D9AF00" stroke-width="2.14" stroke-miterlimit="10" stroke-linecap="round"/>
<path d="M61.2823 325.638L69.2805 317.979" stroke="#D9AF00" stroke-width="2.14" stroke-miterlimit="10" stroke-linecap="round"/>
<path d="M67.3137 322.253C67.5793 321.176 66.8824 320.097 65.7573 319.843C64.6322 319.588 63.5048 320.255 63.2393 321.333C62.9737 322.41 63.6705 323.489 64.7957 323.743C65.9208 323.998 67.0482 323.33 67.3137 322.253Z" fill="white"/>
<path d="M65.2824 322.892C65.9078 322.892 66.4147 322.407 66.4147 321.808C66.4147 321.21 65.9078 320.724 65.2824 320.724C64.657 320.724 64.1501 321.21 64.1501 321.808C64.1501 322.407 64.657 322.892 65.2824 322.892Z" fill="#D9AF00"/>
<path d="M39.1227 338.484C42.2472 338.484 44.7801 336.059 44.7801 333.068C44.7801 330.077 42.2472 327.652 39.1227 327.652C35.9983 327.652 33.4654 330.077 33.4654 333.068C33.4654 336.059 35.9983 338.484 39.1227 338.484Z" fill="white"/>
<path d="M39.1228 327.654V338.484" stroke="#D9AF00" stroke-width="2.14" stroke-miterlimit="10" stroke-linecap="round"/>
<path d="M33.4675 333.068H44.7801" stroke="#D9AF00" stroke-width="2.14" stroke-miterlimit="10" stroke-linecap="round"/>
<path d="M35.1248 329.241L43.1229 336.898" stroke="#D9AF00" stroke-width="2.14" stroke-miterlimit="10" stroke-linecap="round"/>
<path d="M35.1248 336.898L43.1229 329.241" stroke="#D9AF00" stroke-width="2.14" stroke-miterlimit="10" stroke-linecap="round"/>
<path d="M41.1566 333.515C41.4221 332.438 40.7253 331.359 39.6002 331.105C38.4751 330.85 37.3477 331.517 37.0821 332.595C36.8166 333.672 37.5134 334.751 38.6385 335.005C39.7637 335.259 40.891 334.592 41.1566 333.515Z" fill="white"/>
<path d="M39.1228 334.152C39.7481 334.152 40.2551 333.667 40.2551 333.068C40.2551 332.469 39.7481 331.984 39.1228 331.984C38.4974 331.984 37.9905 332.469 37.9905 333.068C37.9905 333.667 38.4974 334.152 39.1228 334.152Z" fill="#D9AF00"/>
<path d="M313.132 326.517V347.38" stroke="#D9AF00" stroke-width="3.74" stroke-miterlimit="10" stroke-linecap="round"/>
<path d="M318.79 334.865L313.132 341.888" stroke="#D9AF00" stroke-width="3.74" stroke-miterlimit="10" stroke-linecap="round"/>
<path d="M313.132 324.467C316.257 324.467 318.79 322.042 318.79 319.051C318.79 316.059 316.257 313.635 313.132 313.635C310.008 313.635 307.475 316.059 307.475 319.051C307.475 322.042 310.008 324.467 313.132 324.467Z" fill="white"/>
<path d="M313.132 313.635V324.467" stroke="#D9AF00" stroke-width="2.14" stroke-miterlimit="10" stroke-linecap="round"/>
<path d="M307.477 319.051H318.79" stroke="#D9AF00" stroke-width="2.14" stroke-miterlimit="10" stroke-linecap="round"/>
<path d="M309.134 315.221L317.133 322.88" stroke="#D9AF00" stroke-width="2.14" stroke-miterlimit="10" stroke-linecap="round"/>
<path d="M309.134 322.88L317.133 315.221" stroke="#D9AF00" stroke-width="2.14" stroke-miterlimit="10" stroke-linecap="round"/>
<path d="M315.154 319.493C315.42 318.416 314.723 317.337 313.598 317.083C312.473 316.828 311.345 317.495 311.08 318.573C310.814 319.65 311.511 320.729 312.636 320.983C313.761 321.238 314.889 320.57 315.154 319.493Z" fill="white"/>
<path d="M313.132 320.135C313.758 320.135 314.265 319.649 314.265 319.051C314.265 318.452 313.758 317.967 313.132 317.967C312.507 317.967 312 318.452 312 319.051C312 319.649 312.507 320.135 313.132 320.135Z" fill="#D9AF00"/>
<path d="M329.17 330.765C329.67 327.813 327.576 325.031 324.492 324.551C321.408 324.072 318.502 326.077 318.001 329.03C317.501 331.982 319.595 334.765 322.679 335.244C325.763 335.723 328.669 333.718 329.17 330.765Z" fill="white"/>
<path d="M323.569 324.467V335.297" stroke="#D9AF00" stroke-width="2.14" stroke-miterlimit="10" stroke-linecap="round"/>
<path d="M317.911 329.881H329.224" stroke="#D9AF00" stroke-width="2.14" stroke-miterlimit="10" stroke-linecap="round"/>
<path d="M319.569 326.051L327.569 333.71" stroke="#D9AF00" stroke-width="2.14" stroke-miterlimit="10" stroke-linecap="round"/>
<path d="M319.569 333.71L327.569 326.051" stroke="#D9AF00" stroke-width="2.14" stroke-miterlimit="10" stroke-linecap="round"/>
<path d="M324.369 331.733C325.437 331.31 325.945 330.138 325.502 329.115C325.06 328.093 323.835 327.607 322.767 328.03C321.699 328.454 321.192 329.626 321.635 330.649C322.077 331.671 323.301 332.157 324.369 331.733Z" fill="white"/>
<path d="M323.569 330.965C324.194 330.965 324.701 330.48 324.701 329.881C324.701 329.282 324.194 328.797 323.569 328.797C322.943 328.797 322.436 329.282 322.436 329.881C322.436 330.48 322.943 330.965 323.569 330.965Z" fill="#D9AF00"/>
<path d="M369.268 347.815H320.883C320.883 342.711 327.336 338.574 335.294 338.574C337.929 338.552 340.543 339.035 342.981 339.992C344.724 337.567 347.232 335.739 350.138 334.775C353.043 333.812 356.195 333.764 359.131 334.637C362.068 335.511 364.635 337.26 366.459 339.631C368.283 342.001 369.267 344.867 369.268 347.811V347.815Z" fill="#F5EFD9"/>
<path d="M184.802 300.681L89.4758 212.592L186.91 115.954C212.308 90.7515 254.254 90.0423 280.579 114.367C306.901 138.692 307.644 178.841 282.234 204.043L184.802 300.681Z" fill="#A0D6FF"/>
<path d="M184.628 300.681L214.515 271.037C248.825 236.996 247.824 182.79 212.278 149.944L175.699 116.14C149.385 91.8153 107.438 92.5245 82.0301 117.725C56.6324 142.925 57.3626 183.075 83.6873 207.4L184.628 300.681Z" fill="#FFAFB1"/>
<path d="M77.9093 336.653L81.7507 344.32C81.8214 344.461 81.9305 344.581 82.0665 344.668C82.2025 344.754 82.3605 344.804 82.5236 344.812C82.6868 344.82 82.8492 344.786 82.9937 344.713C83.1381 344.639 83.2593 344.53 83.3444 344.397L87.6155 337.678C87.9065 337.22 88.3159 336.841 88.8041 336.579C89.2923 336.316 89.8429 336.178 90.4029 336.178H90.5277L101.059 298.217L82.3835 296.365L78.3347 334.503C78.258 335.23 78.1156 335.949 77.9093 336.653Z" fill="#B4702F"/>
<path d="M82.3835 296.365L101.059 298.217L99.6011 303.469L82.2142 297.961L82.3835 296.365Z" fill="#56303C"/>
<path d="M67.9005 347.221H82.3857C82.7101 347.221 83.0293 347.144 83.3145 346.996C83.5998 346.848 83.8421 346.634 84.0196 346.374L86.7054 341.967C86.834 341.771 87.0183 341.615 87.2367 341.516C87.4551 341.417 87.6984 341.379 87.9382 341.408C88.178 341.437 88.4043 341.53 88.5904 341.678C88.7766 341.825 88.9149 342.021 88.9891 342.241L90.7669 347.221H92.5596L93.7977 340.94C93.7975 339.929 93.4885 338.939 92.9086 338.093C92.3288 337.248 91.5035 336.583 90.5341 336.18H90.4092C89.8492 336.18 89.2987 336.318 88.8105 336.581C88.3223 336.843 87.9129 337.222 87.6218 337.68L83.3508 344.397C83.2657 344.53 83.1445 344.639 83 344.712C82.8556 344.786 82.6932 344.82 82.53 344.812C82.3668 344.804 82.2089 344.754 82.0729 344.668C81.9368 344.581 81.8277 344.461 81.7571 344.32L77.9157 336.653C77.4042 338.406 76.5067 340.035 75.2835 341.43C74.0602 342.824 72.5394 343.952 70.8233 344.737L67.6486 346.186C67.5325 346.24 67.4389 346.33 67.3833 346.442C67.3278 346.553 67.3134 346.68 67.3427 346.8C67.372 346.92 67.4432 347.028 67.5445 347.104C67.6459 347.181 67.7714 347.222 67.9005 347.221Z" fill="#FFAFB1"/>
<path d="M83.5053 347.221H67.037" stroke="#56303C" stroke-width="5.17" stroke-miterlimit="10" stroke-linecap="round"/>
<path d="M92.5532 347.221H90.7605" stroke="#56303C" stroke-width="5.17" stroke-miterlimit="10" stroke-linecap="round"/>
<path d="M90.4028 335.881H77.7612" stroke="#56303C" stroke-width="5.17" stroke-miterlimit="10" stroke-linecap="round"/>
<path d="M153.076 336.653L149.235 344.32C149.164 344.461 149.055 344.581 148.919 344.668C148.783 344.754 148.625 344.804 148.462 344.812C148.298 344.82 148.136 344.786 147.992 344.713C147.847 344.639 147.726 344.53 147.641 344.397L143.37 337.678C143.079 337.22 142.669 336.841 142.181 336.579C141.693 336.316 141.142 336.178 140.582 336.178H140.458L129.926 298.217L148.602 296.365L152.651 334.503C152.727 335.23 152.87 335.949 153.076 336.653Z" fill="#B4702F"/>
<path d="M148.602 296.365L129.926 298.217L131.382 303.469L148.78 298.04L148.602 296.365Z" fill="#56303C"/>
<path d="M163.091 347.221H148.606C148.282 347.221 147.962 347.144 147.677 346.996C147.392 346.848 147.15 346.634 146.972 346.374L144.286 341.967C144.158 341.771 143.973 341.615 143.755 341.516C143.537 341.417 143.293 341.379 143.053 341.408C142.814 341.437 142.587 341.53 142.401 341.678C142.215 341.825 142.077 342.021 142.003 342.241L140.225 347.221H138.432L137.194 340.94C137.194 339.929 137.503 338.939 138.083 338.093C138.663 337.248 139.488 336.583 140.458 336.18H140.582C141.142 336.18 141.693 336.318 142.181 336.581C142.669 336.843 143.079 337.222 143.37 337.68L147.641 344.399C147.726 344.532 147.847 344.641 147.992 344.714C148.136 344.788 148.298 344.822 148.462 344.814C148.625 344.806 148.783 344.756 148.919 344.67C149.055 344.583 149.164 344.463 149.235 344.322L153.076 336.655C153.587 338.408 154.485 340.037 155.708 341.432C156.931 342.826 158.452 343.954 160.168 344.739L163.343 346.188C163.458 346.243 163.55 346.333 163.605 346.444C163.66 346.555 163.674 346.681 163.645 346.8C163.615 346.92 163.545 347.027 163.444 347.103C163.344 347.179 163.219 347.221 163.091 347.221Z" fill="#FFAFB1"/>
<path d="M147.277 347.221H164.037" stroke="#56303C" stroke-width="5.17" stroke-miterlimit="10" stroke-linecap="round"/>
<path d="M138.432 347.221H140.225" stroke="#56303C" stroke-width="5.17" stroke-miterlimit="10" stroke-linecap="round"/>
<path d="M140.458 335.881H153.076" stroke="#56303C" stroke-width="5.17" stroke-miterlimit="10" stroke-linecap="round"/>
<path d="M156.331 295.129C145.249 297.084 134.026 298.223 122.762 298.535L114.66 235.855L107.364 298.529C86.8345 297.921 72.9864 295.123 72.9864 295.123L94.2612 173.467C94.7845 170.461 96.4061 167.732 98.8368 165.765C101.267 163.798 104.349 162.721 107.532 162.728L123.919 162.762C127.127 162.769 130.226 163.876 132.656 165.881C135.085 167.886 136.684 170.657 137.164 173.694L156.331 295.129Z" fill="#D9AF00"/>
<path d="M133.226 166.635C130.861 169.254 124.154 170.89 115.638 170.89C107.248 170.89 100.505 169.135 98.001 166.513" stroke="#56303C" stroke-width="4.13" stroke-miterlimit="10" stroke-linecap="round"/>
<path d="M136.976 179.525C134.369 179.525 131.864 178.558 129.987 176.827C128.109 175.097 127.005 172.737 126.906 170.243" stroke="#56303C" stroke-width="4.13" stroke-miterlimit="10" stroke-linecap="round"/>
<path d="M94.0559 179.525C96.6624 179.525 99.1674 178.558 101.045 176.827C102.923 175.097 104.027 172.737 104.126 170.243" stroke="#56303C" stroke-width="4.13" stroke-miterlimit="10" stroke-linecap="round"/>
<path d="M122.053 293.056C122.053 293.056 140.466 291.93 155.465 289.648" stroke="#56303C" stroke-width="4.13" stroke-miterlimit="10" stroke-linecap="round"/>
<path d="M108.001 292.758C108.001 292.758 85.5667 292.42 74.0362 289.123" stroke="#56303C" stroke-width="4.13" stroke-miterlimit="10" stroke-linecap="round"/>
<path d="M94.9596 142.344C91.5585 138.615 89.9118 134.895 90.4092 129.967L90.7584 126.62L71.7906 141.975L89.514 157.374C91.2911 158.874 92.3731 160.989 92.522 163.252C92.6708 165.516 91.8743 167.743 90.3076 169.445C88.741 171.146 86.5325 172.182 84.1681 172.325C81.8037 172.467 79.4769 171.704 77.6998 170.205L54.9223 151.543C53.6233 150.48 52.5669 149.172 51.8188 147.701C51.0707 146.23 50.6469 144.627 50.5738 142.992C50.5008 141.358 50.78 139.726 51.3941 138.199C52.0082 136.672 52.9441 135.283 54.1434 134.117L79.1051 111.038C85.0313 105.278 91.8717 102.023 100.314 102.003L128.709 101.938C138.176 101.916 146.064 104.775 151.874 113.397L158.325 113.328C164.939 113.257 168.41 119.001 167.167 125.224L163.078 153.413C162.7 155.31 161.658 157.027 160.124 158.281C158.59 159.535 156.655 160.251 154.639 160.312C152.623 160.372 150.645 159.773 149.032 158.613C147.419 157.454 146.267 155.802 145.766 153.932L138.951 136.83C138.89 136.676 138.778 136.546 138.632 136.461C138.485 136.375 138.313 136.339 138.143 136.358C137.972 136.376 137.813 136.449 137.691 136.565C137.569 136.68 137.491 136.832 137.469 136.994L134.146 160.606C134.146 164.456 126.315 167.036 115.638 167.036C104.96 167.036 96.9491 164.199 96.9491 160.337L94.9596 142.344Z" fill="#EDE0C4"/>
<path d="M146.767 138.919V119.109C146.767 118.313 146.934 117.525 147.258 116.792C147.582 116.059 148.057 115.396 148.654 114.842C149.251 114.288 149.959 113.855 150.735 113.568C151.51 113.281 152.338 113.146 153.169 113.172" stroke="#56303C" stroke-width="4.13" stroke-miterlimit="10" stroke-linecap="round"/>
<path d="M128.504 131.503L124.211 127.384C123.939 127.12 123.732 126.8 123.605 126.449C123.478 126.099 123.435 125.725 123.478 125.356C123.521 124.987 123.65 124.632 123.854 124.317C124.059 124.001 124.335 123.734 124.661 123.533C124.988 123.333 125.357 123.205 125.741 123.158C126.126 123.112 126.517 123.148 126.885 123.265C127.253 123.382 127.59 123.575 127.87 123.832C128.15 124.089 128.366 124.403 128.504 124.75C128.722 124.189 129.142 123.721 129.689 123.431C130.238 123.138 130.879 123.046 131.494 123.17C132.109 123.295 132.656 123.628 133.035 124.108C133.413 124.588 133.598 125.183 133.554 125.783C133.511 126.383 133.242 126.948 132.798 127.374L128.504 131.503Z" fill="white"/>
<path d="M72.4001 141.975L68.8783 139.144" stroke="#56303C" stroke-width="4.13" stroke-miterlimit="10" stroke-linecap="round"/>
<path d="M130.345 81.386C134.537 81.386 137.935 78.8522 137.935 75.7267C137.935 72.6011 134.537 70.0674 130.345 70.0674C126.153 70.0674 122.755 72.6011 122.755 75.7267C122.755 78.8522 126.153 81.386 130.345 81.386Z" fill="#56303C"/>
<path d="M119.077 93.2436C126.358 93.2436 132.26 88.0554 132.26 81.6555C132.26 75.2556 126.358 70.0674 119.077 70.0674C111.796 70.0674 105.893 75.2556 105.893 81.6555C105.893 88.0554 111.796 93.2436 119.077 93.2436Z" fill="#56303C"/>
<path d="M106.815 84.1091C108.801 79.506 106.514 74.2332 101.705 72.3319C96.8974 70.4307 91.3898 72.6209 89.4039 77.224C87.418 81.8271 89.7057 87.0999 94.5138 89.0011C99.3218 90.9024 104.829 88.7122 106.815 84.1091Z" fill="#56303C"/>
<path d="M93.1069 83.564C95.1069 78.9415 92.814 73.6421 87.9857 71.7274C83.1574 69.8127 77.6219 72.0078 75.622 76.6303C73.622 81.2527 75.9149 86.5522 80.7432 88.4669C85.5715 90.3816 91.107 88.1865 93.1069 83.564Z" fill="#56303C"/>
<path d="M74.3899 78.4277L76.1349 80.0983L74.3854 81.7732C73.8166 82.3177 73.0452 82.6237 72.2408 82.6237C71.4364 82.6237 70.665 82.3177 70.0962 81.7732L68.3512 80.1026L70.1007 78.4277C70.6695 77.8831 71.4409 77.5772 72.2453 77.5772C73.0497 77.5772 73.8211 77.8831 74.3899 78.4277Z" fill="#56303C"/>
<path d="M132.307 83.0922C132.353 83.6306 132.555 84.146 132.892 84.5795C133.229 85.013 133.686 85.3471 134.212 85.5439C134.31 85.5995 134.391 85.678 134.449 85.7719C134.506 85.8659 134.538 85.9723 134.541 86.0811C134.544 86.19 134.518 86.2978 134.466 86.3945C134.413 86.4912 134.336 86.5736 134.241 86.634L132.337 87.8498L132.383 92.4676C132.389 92.7635 132.332 93.0575 132.218 93.3324C132.103 93.6073 131.932 93.8575 131.716 94.0686C131.499 94.2797 131.24 94.4473 130.955 94.5617C130.67 94.6761 130.364 94.735 130.055 94.735H126.633V104.352L116.74 115.78L104.497 104.352L113.432 89.5599C112.63 89.5594 111.861 89.2539 111.294 88.7106C110.726 88.1672 110.408 87.4305 110.408 86.6624V86.2794C110.406 85.443 110.716 84.6334 111.281 83.9958C111.847 83.3583 112.631 82.9345 113.494 82.8006C114.356 82.6666 115.24 82.8313 115.987 83.265C116.734 83.6987 117.295 84.373 117.57 85.167L117.695 85.5237C117.695 85.5237 122.506 84.3383 124.294 79.994C124.886 78.6253 125.001 77.1104 124.622 75.6741L126.4 75.8382C127.994 75.9861 129.474 76.6928 130.556 77.8224C131.638 78.952 132.246 80.4247 132.263 81.9575L132.307 83.0922Z" fill="#B4702F"/>
<path d="M128.466 85.0211C128.816 85.0211 129.101 84.6147 129.101 84.1133C129.101 83.612 128.816 83.2056 128.466 83.2056C128.115 83.2056 127.831 83.612 127.831 84.1133C127.831 84.6147 128.115 85.0211 128.466 85.0211Z" fill="#56303C"/>
<path d="M126.487 82.1418C126.487 82.1418 127.841 81.2928 129.196 81.3435" stroke="#56303C" stroke-width="3.98" stroke-miterlimit="10" stroke-linecap="round"/>
<path d="M115.849 86.6036C115.849 86.6036 115.305 84.626 113.159 85.1974" stroke="#56303C" stroke-width="3.98" stroke-miterlimit="10" stroke-linecap="round"/>
<path d="M113.978 86.5002L114.789 85.479" stroke="#56303C" stroke-width="3.98" stroke-miterlimit="10" stroke-linecap="round"/>
<path d="M132.328 89.8275C132.328 89.8275 130.483 89.8701 129.943 88.5247" stroke="#56303C" stroke-width="3.98" stroke-miterlimit="10"/>
<path d="M126.633 94.7308C126.633 94.7308 123.606 94.4674 121.682 92.502L126.633 98.6314V94.7308Z" fill="#56303C"/>
<path d="M105.51 168.851L102.714 172.16C102.412 172.517 101.978 172.748 101.502 172.806C101.026 172.864 100.545 172.743 100.16 172.47L99.2646 171.826C98.6557 171.394 97.9182 171.162 97.1608 171.162C96.4033 171.162 95.6659 171.394 95.057 171.826L94.0559 172.533C92.24 173.921 88.2504 172.565 87.5689 170.12C87.1774 168.701 87.2112 167.252 88.1361 165.407C89.0907 163.5 90.1277 162.726 92.3373 162.681L95.838 162.302C96.5748 162.22 97.3186 162.385 97.9418 162.77L105.248 167.291C105.378 167.372 105.489 167.479 105.574 167.603C105.658 167.728 105.715 167.869 105.74 168.015C105.764 168.162 105.757 168.313 105.717 168.457C105.678 168.6 105.607 168.735 105.51 168.851Z" fill="#B4702F"/>
<path d="M99.8995 167.214L104.175 169.921" stroke="#56303C" stroke-width="4.13" stroke-miterlimit="10" stroke-linecap="round"/>
<path d="M101.045 165.86L105.318 168.567" stroke="#56303C" stroke-width="4.13" stroke-miterlimit="10" stroke-linecap="round"/>
<path d="M98.3714 168.752L102.833 171.427" stroke="#56303C" stroke-width="4.13" stroke-miterlimit="10" stroke-linecap="round"/>
<path d="M107.951 98.6233C102.74 98.6233 90.7161 101.938 87.5245 104.625L89.006 104.335C91.6773 103.812 94.4324 103.82 97.1003 104.359C99.7682 104.897 102.292 105.955 104.516 107.466L116.747 115.773L108.325 107.922C107.228 106.898 106.518 105.553 106.31 104.1C106.101 102.647 106.404 101.169 107.172 99.8998L107.951 98.6233Z" fill="#FFAFB1"/>
<path d="M116.74 115.769L123.966 107.421C125.689 105.431 126.632 102.927 126.633 100.342V98.6233L143.776 103.486L142.843 103.379C137.607 102.781 132.335 104.179 128.167 107.271L116.74 115.769Z" fill="#FFAFB1"/>
<path d="M89.0102 104.335C91.6809 103.813 94.4351 103.821 97.1023 104.36C99.7694 104.898 102.293 105.956 104.516 107.466L116.747 115.774" stroke="#56303C" stroke-width="4.13" stroke-miterlimit="10" stroke-linecap="round"/>
<path d="M138.591 103.338C134.802 103.681 131.192 105.049 128.184 107.281L116.755 115.769" stroke="#56303C" stroke-width="4.13" stroke-miterlimit="10" stroke-linecap="round"/>
<path d="M116.74 119.816C118.461 119.816 119.856 118.48 119.856 116.833C119.856 115.186 118.461 113.851 116.74 113.851C115.02 113.851 113.625 115.186 113.625 116.833C113.625 118.48 115.02 119.816 116.74 119.816Z" fill="#D9AF00"/>
<path d="M114.797 117.062C114.8 116.799 114.857 116.538 114.964 116.296C115.072 116.054 115.229 115.834 115.426 115.65C115.622 115.466 115.855 115.32 116.11 115.222C116.366 115.124 116.639 115.075 116.914 115.079" stroke="white" stroke-width="4.13" stroke-miterlimit="10" stroke-linecap="round"/>
<path d="M163.021 109.172L159.18 71.3359" stroke="#56303C" stroke-width="5.68" stroke-miterlimit="10" stroke-linecap="round"/>
<path d="M175.59 50.0342L139.182 53.4211L141.534 76.5855L177.941 73.1986L175.59 50.0342Z" fill="#EDE0C4"/>
<path d="M150.278 63.3303L153.484 66.3899C154.399 67.1113 155.006 68.4445 155.12 69.5732L155.419 72.5173L148.843 73.1252L148.631 70.8294L144.748 66.5622C144.565 66.2774 144.455 65.9557 144.426 65.6228C144.397 65.2899 144.45 64.9551 144.58 64.6453C145.374 62.765 146.839 59.4987 147.29 58.4308C147.303 58.3978 147.325 58.3682 147.352 58.3439C147.379 58.3196 147.411 58.3013 147.447 58.2903C147.482 58.2793 147.519 58.2758 147.556 58.2801C147.593 58.2845 147.628 58.2965 147.66 58.3153H147.677C147.943 58.4716 148.155 58.6994 148.287 58.9704C148.419 59.2414 148.464 59.5435 148.418 59.8391L147.994 63.2107C147.965 63.4018 148.012 63.5965 148.126 63.7558L148.496 64.2705L149.131 63.3951C149.195 63.31 149.279 63.2395 149.375 63.189C149.472 63.1384 149.579 63.109 149.688 63.1028C149.798 63.0966 149.908 63.1138 150.01 63.1531C150.112 63.1925 150.203 63.253 150.278 63.3303Z" fill="white"/>
<path d="M150.706 67.717C150.637 67.7167 150.57 67.6991 150.512 67.666C150.453 67.6329 150.404 67.5855 150.371 67.5285L148.087 63.6037C148.043 63.5192 148.034 63.4214 148.063 63.3308C148.092 63.2403 148.156 63.164 148.243 63.1179C148.329 63.0718 148.431 63.0595 148.527 63.0836C148.622 63.1077 148.705 63.1663 148.756 63.2471L151.04 67.1719C151.089 67.2568 151.101 67.357 151.074 67.4505C151.046 67.5439 150.98 67.623 150.892 67.6704C150.835 67.7004 150.771 67.7164 150.706 67.717Z" fill="#EDE0C4"/>
<path d="M166.317 61.839L163.777 65.4335C163.026 66.3089 162.697 67.7293 162.812 68.8579L163.11 71.802L169.686 71.1941L169.434 68.8923L172.397 63.9888C172.521 63.6764 172.566 63.3405 172.529 63.0083C172.493 62.6761 172.375 62.3567 172.186 62.076C171.03 60.378 168.935 57.442 168.279 56.4775C168.258 56.4476 168.231 56.4224 168.2 56.4035C168.168 56.3847 168.133 56.3727 168.096 56.3684C168.059 56.3642 168.021 56.3678 167.986 56.3789C167.951 56.39 167.918 56.4085 167.891 56.4329L167.876 56.4431C167.647 56.6453 167.484 56.9077 167.409 57.1977C167.333 57.4877 167.349 57.7925 167.453 58.0742L168.554 61.3061C168.622 61.4873 168.615 61.6867 168.535 61.8633L168.274 62.4367L167.47 61.6971C167.39 61.6222 167.293 61.5655 167.187 61.5315C167.081 61.4974 166.968 61.4868 166.857 61.5004C166.746 61.5141 166.64 61.5516 166.546 61.6103C166.453 61.6689 166.374 61.7471 166.317 61.839Z" fill="white"/>
<path d="M166.693 66.2298C166.653 66.2295 166.613 66.2234 166.575 66.2116C166.478 66.1814 166.398 66.1158 166.352 66.0292C166.306 65.9426 166.298 65.842 166.329 65.7496L167.781 61.4783C167.795 61.4309 167.819 61.3868 167.852 61.3485C167.884 61.3103 167.924 61.2786 167.97 61.2555C168.015 61.2324 168.065 61.2183 168.116 61.214C168.168 61.2098 168.219 61.2154 168.268 61.2307C168.317 61.2459 168.362 61.2704 168.401 61.3028C168.44 61.3351 168.471 61.3746 168.494 61.4189C168.516 61.4632 168.529 61.5114 168.532 61.5606C168.535 61.6097 168.527 61.6589 168.509 61.7052L167.057 65.9765C167.032 66.0501 166.984 66.1142 166.918 66.1597C166.853 66.2052 166.774 66.2298 166.693 66.2298Z" fill="#EDE0C4"/>
<path d="M158.685 66.4609L152.53 61.5979C152.137 61.2858 151.821 60.8933 151.607 60.4493C151.393 60.0053 151.286 59.521 151.293 59.032C151.3 58.543 151.421 58.0618 151.648 57.6236C151.875 57.1853 152.201 56.8013 152.603 56.4997C153.005 56.1981 153.473 55.9865 153.971 55.8805C154.47 55.7745 154.987 55.7768 155.485 55.8872C155.983 55.9976 156.448 56.2133 156.847 56.5185C157.246 56.8237 157.569 57.2106 157.791 57.6508C158 56.891 158.487 56.2281 159.163 55.7826C159.842 55.3362 160.666 55.1392 161.484 55.2278C162.302 55.3164 163.06 55.6846 163.617 56.2648C164.174 56.8451 164.495 57.5983 164.518 58.3863C164.542 59.1743 164.269 59.9441 163.747 60.5544L158.685 66.4609Z" fill="#FFAFB1"/>
<path d="M167.608 108.578C167.756 109.455 167.564 110.354 167.069 111.105C166.574 111.856 165.81 112.409 164.92 112.659L162.659 113.289L163.574 115.543C163.785 116.864 162.63 118.422 159.44 118.874C156.251 119.326 153.501 118.621 153.302 117.299L152.502 107.948C152.317 106.68 152.614 105.391 153.34 104.315C154.066 103.24 155.172 102.451 156.456 102.092L162.336 100.453C162.801 100.324 163.29 100.29 163.769 100.354C164.249 100.419 164.709 100.58 165.119 100.828C165.529 101.075 165.88 101.403 166.147 101.79C166.415 102.177 166.594 102.613 166.672 103.071L167.608 108.578Z" fill="#B4702F"/>
<path d="M156.841 109.028C156.841 109.028 159.656 107.665 158.473 104.824C158.473 104.824 162.439 103.061 162.071 100.741" stroke="#56303C" stroke-width="4.13" stroke-miterlimit="10" stroke-linecap="round"/>
<path d="M159.641 104.305L160.414 108.38C160.57 109.201 161.018 109.945 161.682 110.486C162.346 111.026 163.185 111.33 164.056 111.346L166.147 111.385" stroke="#56303C" stroke-width="4.13" stroke-miterlimit="10" stroke-linecap="round"/>
<path d="M161.089 109.174L166.412 107.997" stroke="#56303C" stroke-width="4.13" stroke-miterlimit="10" stroke-linecap="round"/>
<path d="M160.376 106.834L165.699 105.655" stroke="#56303C" stroke-width="4.13" stroke-miterlimit="10" stroke-linecap="round"/>
<path d="M159.665 104.491L164.988 103.314" stroke="#56303C" stroke-width="4.13" stroke-miterlimit="10" stroke-linecap="round"/>
<path d="M226.069 347.221H197.09C195.75 347.221 195.48 345.408 196.766 345.047L201.696 343.669C203.768 343.09 205.672 342.058 207.259 340.657C208.845 339.255 210.071 337.52 210.841 335.589L211.18 334.736L211.419 334.128L222.903 334.487L224.575 337.305L228.289 343.56C228.513 343.932 228.63 344.354 228.629 344.783C228.628 345.212 228.509 345.634 228.284 346.005C228.059 346.376 227.735 346.684 227.347 346.897C226.958 347.111 226.517 347.223 226.069 347.221Z" fill="#A0D6FF"/>
<path d="M195.85 347.221H229.477" stroke="#56303C" stroke-width="5.17" stroke-miterlimit="10" stroke-linecap="round"/>
<path d="M211.969 340.16L210.623 338.853C210.476 338.709 210.299 338.597 210.103 338.524C209.908 338.451 209.698 338.419 209.488 338.429C209.278 338.439 209.073 338.492 208.887 338.584C208.7 338.676 208.536 338.805 208.405 338.962L207.901 339.57C207.805 339.686 207.683 339.779 207.544 339.843C207.405 339.907 207.253 339.94 207.099 339.94C206.945 339.94 206.793 339.907 206.654 339.843C206.515 339.779 206.393 339.686 206.297 339.57" stroke="#56303C" stroke-width="5.17" stroke-miterlimit="10" stroke-linecap="round"/>
<path d="M224.575 337.315C224.575 337.315 218.414 339.86 211.18 334.736L211.419 334.128L222.903 334.487L224.575 337.315Z" fill="#B4702F"/>
<path d="M301.225 347.221H274.43C273.978 347.222 273.532 347.118 273.13 346.92C272.727 346.722 272.38 346.435 272.117 346.083C271.854 345.73 271.683 345.323 271.617 344.894C271.552 344.466 271.594 344.029 271.74 343.619L274.119 336.942L275.093 334.217L286.816 333.84C287.013 334.245 287.225 334.628 287.451 335.009C289.767 338.952 293.459 341.988 297.879 343.584L301.659 344.952C301.929 345.048 302.155 345.231 302.297 345.471C302.44 345.71 302.489 345.99 302.437 346.261C302.386 346.532 302.236 346.777 302.014 346.953C301.792 347.128 301.513 347.223 301.225 347.221Z" fill="#A0D6FF"/>
<path d="M270.684 347.221H303.187" stroke="#56303C" stroke-width="5.17" stroke-miterlimit="10" stroke-linecap="round"/>
<path d="M292.854 340.16L291.508 338.853C291.361 338.709 291.184 338.597 290.989 338.524C290.793 338.451 290.583 338.419 290.374 338.429C290.164 338.439 289.959 338.492 289.772 338.584C289.585 338.676 289.421 338.805 289.29 338.962L288.789 339.57C288.692 339.686 288.57 339.779 288.431 339.843C288.292 339.907 288.14 339.94 287.985 339.94C287.831 339.94 287.679 339.907 287.54 339.843C287.401 339.779 287.279 339.686 287.182 339.57" stroke="#56303C" stroke-width="5.17" stroke-miterlimit="10" stroke-linecap="round"/>
<path d="M287.462 335.034C287.462 335.034 277.749 339.998 274.128 336.942L275.101 334.217L286.825 333.84L287.459 335.009L287.462 335.034Z" fill="#B4702F"/>
<path d="M289.735 330.827C289.788 331.182 289.762 331.544 289.661 331.89C289.559 332.235 289.383 332.557 289.143 332.833C288.904 333.11 288.607 333.335 288.272 333.495C287.936 333.655 287.57 333.747 287.195 333.763L274.496 334.278C270.735 334.416 268.375 331.885 267.702 328.341L244.601 206.707L230.169 330.008C230.018 331.294 229.365 332.479 228.342 333.324C227.319 334.17 226 334.614 224.649 334.57L208.674 334.031C208.176 334.014 207.688 333.899 207.239 333.692C206.79 333.486 206.391 333.192 206.067 332.83C205.743 332.468 205.501 332.046 205.356 331.59C205.211 331.134 205.167 330.654 205.226 330.181L224.245 174.135C224.308 173.616 224.568 173.137 224.977 172.789C225.385 172.441 225.912 172.249 226.458 172.249H266.037L289.735 330.827Z" fill="#56303C"/>
<path d="M249.918 237.603L244.178 204.13L241.638 202.77C241.261 202.608 240.924 202.372 240.65 202.077C240.375 201.782 240.168 201.435 240.042 201.058" stroke="white" stroke-width="5.17" stroke-miterlimit="10" stroke-linecap="round"/>
<path d="M243.432 175.72C243.607 175.011 243.148 174.301 242.408 174.133C241.667 173.966 240.925 174.405 240.75 175.114C240.575 175.823 241.034 176.534 241.775 176.701C242.515 176.868 243.257 176.429 243.432 175.72Z" stroke="white" stroke-width="4.13" stroke-miterlimit="10" stroke-linecap="round"/>
<path d="M232.535 180.016H267.857" stroke="white" stroke-width="4.13" stroke-miterlimit="10" stroke-linecap="round"/>
<path d="M313.733 152.633C313.727 155.348 312.762 157.982 310.993 160.105C309.225 162.228 306.759 163.716 303.995 164.327C301.232 164.937 298.333 164.635 295.772 163.468C293.211 162.301 291.138 160.339 289.889 157.901L279.548 134.642C279.258 134.31 278.877 134.063 278.447 133.93C278.018 133.797 277.557 133.782 277.119 133.888C276.681 133.994 276.284 134.216 275.972 134.528C275.66 134.841 275.446 135.231 275.355 135.655L271.046 168.399C270.905 169.463 270.363 170.441 269.522 171.15C268.681 171.858 267.599 172.249 266.479 172.249H228.118C226.301 172.247 224.548 171.613 223.184 170.463C221.821 169.314 220.942 167.729 220.71 166.004L216.532 134.948C216.438 134.57 216.245 134.222 215.972 133.935C215.698 133.648 215.354 133.432 214.97 133.307C214.586 133.182 214.175 133.152 213.776 133.221C213.376 133.289 213.002 133.453 212.687 133.698L191.795 149.563L220.551 175.297L210.568 185.268L181.949 166.76C179.485 164.994 177.43 162.758 175.915 160.193C174.4 157.628 173.457 154.789 173.147 151.857C172.837 148.925 173.166 145.964 174.113 143.16C175.06 140.356 176.605 137.771 178.649 135.568L200.282 112.266C203.138 109.189 206.625 106.707 210.525 104.974C214.426 103.242 218.657 102.296 222.956 102.196L264.68 101.221C271.827 101.053 278.819 103.227 284.499 107.385C287.709 109.754 290.199 112.902 291.709 116.503L295.077 124.438L297.439 105.055L308.377 108.931L313.642 151.186C313.703 151.666 313.733 152.149 313.733 152.633Z" fill="#EDE0C4"/>
<path d="M189.039 146.668L191.71 149.257L188.518 149.553" stroke="white" stroke-width="5.17" stroke-linecap="round" stroke-linejoin="round"/>
<path d="M261.77 132.111L257.475 127.992C257.201 127.727 256.993 127.407 256.864 127.056C256.736 126.704 256.692 126.329 256.735 125.959C256.777 125.589 256.906 125.233 257.112 124.916C257.317 124.6 257.594 124.331 257.921 124.131C258.249 123.93 258.62 123.802 259.006 123.756C259.392 123.71 259.784 123.748 260.153 123.866C260.522 123.984 260.859 124.179 261.138 124.438C261.418 124.697 261.634 125.013 261.77 125.362C261.987 124.8 262.408 124.332 262.955 124.043C263.343 123.836 263.781 123.728 264.225 123.731C264.74 123.731 265.243 123.877 265.671 124.15C266.1 124.424 266.434 124.813 266.632 125.268C266.829 125.723 266.882 126.224 266.783 126.707C266.684 127.191 266.437 127.636 266.075 127.986L261.77 132.111Z" fill="white"/>
<path d="M219.485 174.18L214.926 170.261L209.751 184.753L219.485 174.18Z" fill="#A0D6FF"/>
<path d="M294.757 122.517L292.065 145.245" stroke="white" stroke-width="5.42" stroke-linecap="round" stroke-linejoin="round"/>
<path d="M309.888 109.745L312.423 71.6013" stroke="#56303C" stroke-width="5.68" stroke-miterlimit="10" stroke-linecap="round"/>
<path d="M333.334 52.7832L295.7 49.688L293.489 74.3357L331.123 77.4308L333.334 52.7832Z" fill="#EDE0C4"/>
<path d="M317.863 65.818C320.795 63.4556 321.171 59.2656 318.703 56.4592C316.236 53.6528 311.859 53.2929 308.928 55.6552C305.996 58.0176 305.62 62.2076 308.088 65.014C310.555 67.8204 314.932 68.1803 317.863 65.818Z" fill="#A0D6FF"/>
<path d="M312.737 56.9374L311.998 56.8766C311.88 56.8668 311.763 56.8984 311.669 56.9656C311.574 57.0328 311.508 57.1309 311.484 57.2414L311.187 58.5807C311.156 58.7215 311.081 58.85 310.972 58.9495C310.864 59.0489 310.726 59.1146 310.578 59.1379L309.022 59.3872C308.88 59.4096 308.749 59.4754 308.649 59.5747C308.549 59.674 308.486 59.8015 308.468 59.9383L308.408 60.3861C308.393 60.5189 308.427 60.6527 308.504 60.7639C308.582 60.8752 308.698 60.9566 308.832 60.994L309.255 61.1095C309.333 61.1308 309.405 61.17 309.465 61.2236C309.524 61.2772 309.569 61.3437 309.596 61.4175L309.712 61.7315L309.79 61.9483L309.64 61.772L309.429 61.5269C309.352 61.4358 309.244 61.3745 309.124 61.3546L307.987 61.152C307.909 61.1382 307.836 61.1075 307.772 61.0622C307.709 61.0169 307.657 60.9582 307.621 60.8906L306.667 59.1156C306.946 58.0575 307.493 57.0814 308.26 56.2736C309.026 55.4658 309.989 54.8511 311.062 54.4836L310.512 55.4076C310.489 55.448 310.477 55.4934 310.477 55.5396C310.477 55.5858 310.489 55.6312 310.512 55.6716C310.535 55.7121 310.569 55.7463 310.609 55.7709C310.65 55.7956 310.697 55.8101 310.745 55.8129L311.96 55.8757C312.072 55.8814 312.179 55.9244 312.262 55.9972L312.897 56.5605C312.95 56.581 312.991 56.6204 313.013 56.6702C313.035 56.72 313.035 56.776 313.014 56.826C312.992 56.876 312.951 56.9158 312.899 56.9367C312.847 56.9576 312.789 56.9578 312.737 56.9374Z" fill="#8BC2EB"/>
<path d="M313.835 63.6241L313.772 64.3414C313.762 64.4541 313.709 64.5594 313.623 64.6372L312.747 65.3849C312.69 65.4332 312.621 65.4654 312.546 65.478C312.471 65.4905 312.394 65.4828 312.324 65.4558L311.998 65.3302C311.975 65.3209 311.949 65.317 311.924 65.3187C311.899 65.3205 311.874 65.3278 311.852 65.3402C311.831 65.3526 311.812 65.3697 311.798 65.3901C311.785 65.4105 311.776 65.4337 311.774 65.4578L311.655 66.4426C311.646 66.5165 311.655 66.5913 311.681 66.6614C311.706 66.7316 311.748 66.7953 311.803 66.8478L312.275 67.2977C311.816 67.2255 311.365 67.1095 310.929 66.9512L310.237 66.2744C310.163 66.199 310.119 66.1005 310.114 65.9968L310.083 64.9229L308.861 64.2076C308.754 64.145 308.667 64.0548 308.611 63.9474C308.554 63.84 308.53 63.7196 308.542 63.5998L308.631 62.615C308.638 62.5235 308.669 62.4351 308.72 62.3574C308.772 62.2798 308.842 62.2152 308.925 62.1692L309.642 61.764L309.714 61.7235L310.447 61.3182C310.519 61.2793 310.602 61.2617 310.684 61.2674C310.767 61.2732 310.846 61.3021 310.912 61.3506L311.863 62.0841C311.968 62.1656 312.035 62.2837 312.049 62.4124L312.089 62.8035C312.095 62.8551 312.12 62.9032 312.158 62.94C312.196 62.9768 312.247 63.0001 312.301 63.0061L313.386 63.0952C313.453 63.1005 313.517 63.1185 313.576 63.1482C313.635 63.1779 313.687 63.2187 313.728 63.2681C313.77 63.3175 313.801 63.3745 313.82 63.4357C313.838 63.4968 313.843 63.5609 313.835 63.6241Z" fill="#8BC2EB"/>
<path d="M317.022 55.0754L316.548 55.1767C316.494 55.1892 316.439 55.1926 316.383 55.1868L315.395 55.1058C315.302 55.0978 315.209 55.1176 315.128 55.1625L313.987 55.7825C313.945 55.8053 313.899 55.8196 313.851 55.8247C313.803 55.8297 313.755 55.8254 313.709 55.8119C313.662 55.7985 313.62 55.7762 313.583 55.7464C313.546 55.7166 313.516 55.68 313.494 55.6387L313.283 55.2334C313.247 55.1661 313.231 55.091 313.236 55.0158C313.242 54.9406 313.268 54.8681 313.312 54.8059L313.414 54.662C313.432 54.6369 313.445 54.6086 313.451 54.5787C313.457 54.5488 313.457 54.5181 313.451 54.4882C313.445 54.4583 313.432 54.4299 313.414 54.4048C313.396 54.3797 313.373 54.3583 313.346 54.3419L312.967 54.1007C313.309 54.0816 313.651 54.0856 313.992 54.1129C315.067 54.2031 316.104 54.5327 317.022 55.0754Z" fill="#8BC2EB"/>
<path d="M320.311 61.308C320.225 62.274 319.918 63.2101 319.413 64.0503C318.907 64.8905 318.216 65.6144 317.386 66.171L317.772 64.9998L317.805 64.1994C317.811 64.0621 317.762 63.9278 317.667 63.8247C317.572 63.7216 317.439 63.6577 317.295 63.6463L316.415 63.5733C316.336 63.5666 316.259 63.5439 316.19 63.5069C316.121 63.4699 316.06 63.4194 316.013 63.3586L315.532 62.7507C315.449 62.6443 315.409 62.5124 315.42 62.3799L315.528 61.1844C315.543 61.0217 315.61 60.8675 315.722 60.7439C315.833 60.6202 315.982 60.5332 316.148 60.4955L318.265 60.0092C318.413 59.975 318.569 59.9968 318.701 60.07L320.051 60.8176C320.14 60.8664 320.212 60.9381 320.259 61.0246C320.307 61.111 320.328 61.2086 320.32 61.306L320.311 61.308Z" fill="#8BC2EB"/>
<path d="M305.077 63.4093L307.649 66.9775C308.413 67.8447 308.756 69.2611 308.656 70.3897L308.392 73.3359L301.807 72.7949L302.031 70.4991L299.02 65.6361C298.896 65.3234 298.851 64.9872 298.887 64.6546C298.924 64.322 299.042 64.0024 299.231 63.7213C300.368 62.0112 302.429 59.061 303.073 58.0823C303.093 58.0522 303.119 58.0267 303.151 58.0075C303.182 57.9883 303.217 57.9758 303.254 57.971C303.291 57.9662 303.329 57.9691 303.364 57.9796C303.4 57.9901 303.432 58.0078 303.46 58.0316L303.473 58.0418C303.704 58.241 303.869 58.5008 303.948 58.7888C304.026 59.0769 304.015 59.3807 303.915 59.6628L302.857 62.9048C302.791 63.0868 302.8 63.2861 302.882 63.462L303.149 64.0314L303.945 63.2837C304.023 63.2117 304.118 63.1572 304.221 63.1241C304.324 63.091 304.434 63.08 304.542 63.092C304.65 63.104 304.754 63.1386 304.846 63.1935C304.939 63.2483 305.018 63.322 305.077 63.4093Z" fill="white"/>
<path d="M304.734 67.8043C304.654 67.8038 304.577 67.7795 304.512 67.7349C304.447 67.6902 304.398 67.6274 304.372 67.555L302.872 63.2999C302.856 63.2544 302.849 63.2064 302.853 63.1585C302.856 63.1106 302.869 63.0638 302.892 63.0208C302.914 62.9778 302.945 62.9394 302.983 62.9079C303.02 62.8763 303.064 62.8522 303.112 62.8369C303.159 62.8216 303.21 62.8154 303.26 62.8187C303.31 62.822 303.359 62.8347 303.403 62.856C303.448 62.8774 303.488 62.907 303.521 62.9432C303.554 62.9794 303.58 63.0214 303.595 63.0669L305.098 67.322C305.114 67.3676 305.121 67.4159 305.118 67.464C305.114 67.5121 305.101 67.5591 305.079 67.6022C305.056 67.6453 305.025 67.6838 304.987 67.7154C304.949 67.7469 304.905 67.7709 304.857 67.786C304.817 67.7991 304.776 67.8053 304.734 67.8043Z" fill="#EDE0C4"/>
<path d="M321.122 64.7305L317.947 67.8245C317.044 68.554 316.451 69.8933 316.349 71.024L316.085 73.9701L322.669 74.5112L322.856 72.2134L326.691 67.9056C326.87 67.6185 326.976 67.2952 327.001 66.9615C327.026 66.6279 326.969 66.2933 326.834 65.9847C326.02 64.1145 324.517 60.8624 324.053 59.8006C324.039 59.7677 324.017 59.7382 323.99 59.7141C323.963 59.6901 323.93 59.672 323.895 59.6612C323.859 59.6504 323.822 59.6471 323.785 59.6516C323.748 59.6561 323.712 59.6682 323.681 59.6871H323.666C323.401 59.8465 323.192 60.0769 323.063 60.3497C322.934 60.6225 322.892 60.9255 322.942 61.221L323.41 64.5886C323.442 64.7786 323.399 64.9734 323.287 65.1337L322.921 65.6524L322.271 64.7831C322.206 64.6981 322.122 64.6281 322.025 64.5782C321.927 64.5283 321.82 64.4997 321.71 64.4947C321.6 64.4896 321.49 64.5082 321.388 64.549C321.286 64.5898 321.196 64.6518 321.122 64.7305Z" fill="white"/>
<path d="M320.739 69.1194C320.676 69.1192 320.613 69.1047 320.557 69.0768C320.468 69.0301 320.401 68.9515 320.372 68.8581C320.343 68.7647 320.354 68.6641 320.402 68.5784L322.642 64.6373C322.664 64.5924 322.696 64.5524 322.735 64.5196C322.774 64.4868 322.819 64.4619 322.869 64.4465C322.918 64.4311 322.97 64.4255 323.022 64.43C323.074 64.4345 323.124 64.449 323.17 64.4726C323.215 64.4963 323.256 64.5286 323.288 64.5676C323.32 64.6066 323.344 64.6514 323.357 64.6994C323.371 64.7474 323.374 64.7976 323.367 64.8468C323.359 64.896 323.342 64.9433 323.315 64.9858L321.076 68.935C321.042 68.9916 320.993 69.0385 320.933 69.0709C320.874 69.1033 320.807 69.1201 320.739 69.1194Z" fill="#EDE0C4"/>
<path d="M314.98 104.293C314.925 105.312 314.482 106.277 313.735 107.005C312.988 107.733 311.988 108.174 310.925 108.244L308.385 108.414L308.535 110.224C308.427 111.753 305.447 112.637 301.763 112.398C298.078 112.159 296.721 110.736 296.721 110.736L298.203 100.062C298.316 98.5961 298.978 97.2184 300.066 96.1815C301.155 95.1447 302.597 94.5182 304.129 94.4169L311.143 93.9509C311.696 93.9174 312.25 93.9961 312.769 94.1819C313.287 94.3678 313.759 94.6565 314.153 95.0292C314.548 95.4019 314.855 95.8502 315.055 96.3446C315.256 96.839 315.345 97.3684 315.317 97.898L314.98 104.293Z" fill="#B4702F"/>
<path d="M302.789 102.285C302.789 102.285 306.292 101.413 305.691 97.9506C305.691 97.9506 310.586 96.899 310.77 94.2122" stroke="#56303C" stroke-width="4.74" stroke-miterlimit="10" stroke-linecap="round"/>
<path d="M307.132 97.6428L306.963 102.39C306.928 103.347 307.24 104.287 307.847 105.048C308.453 105.81 309.317 106.347 310.29 106.568L312.618 107.099" stroke="#56303C" stroke-width="4.74" stroke-miterlimit="10" stroke-linecap="round"/>
<path d="M307.515 103.44L313.786 103.361" stroke="#56303C" stroke-width="4.74" stroke-miterlimit="10" stroke-linecap="round"/>
<path d="M307.312 100.648L313.583 100.569" stroke="#56303C" stroke-width="4.74" stroke-miterlimit="10" stroke-linecap="round"/>
<path d="M307.109 97.8558L313.38 97.7764" stroke="#56303C" stroke-width="4.74" stroke-miterlimit="10" stroke-linecap="round"/>
<path d="M230.581 76.5332L226.861 72.8373C225.871 71.8398 225.32 70.5169 225.32 69.1414C225.32 67.766 225.871 66.443 226.861 65.4456C227.34 64.9622 227.917 64.5773 228.557 64.3142C229.196 64.0512 229.885 63.9155 230.581 63.9155C231.277 63.9155 231.966 64.0512 232.606 64.3142C233.246 64.5773 233.823 64.9622 234.302 65.4456L235.333 66.4708L236.372 65.4476C236.851 64.9643 237.428 64.5794 238.067 64.3164C238.707 64.0533 239.396 63.9177 240.092 63.9177C240.788 63.9177 241.476 64.0533 242.116 64.3164C242.755 64.5794 243.332 64.9643 243.811 65.4476L244.842 66.4729L245.873 65.4496C246.352 64.966 246.929 64.5809 247.568 64.3177C248.208 64.0545 248.896 63.9188 249.593 63.9188C250.289 63.9188 250.977 64.0545 251.617 64.3177C252.256 64.5809 252.833 64.966 253.312 65.4496C254.406 66.5527 255.13 67.9438 255.392 69.444C255.654 70.9442 255.441 72.4851 254.781 73.8687L249.278 85.3939L230.581 76.5332Z" fill="#D9AF00"/>
<path d="M258.515 101.324C247.509 103.452 246.385 112.309 246.385 112.309C242.216 101.705 233.108 101.92 233.108 101.92V89.3857L232.6 89.3593C231.999 89.3267 231.411 89.1784 230.872 88.9231C230.332 88.6678 229.851 88.3109 229.459 87.8737C229.067 87.4365 228.771 86.928 228.589 86.3786C228.407 85.8293 228.342 85.2504 228.399 84.6767L229.504 73.6275C229.596 72.694 230.049 71.8269 230.773 71.1959C231.498 70.5648 232.442 70.2152 233.422 70.2153H236.245C237.218 70.2156 238.181 70.4092 239.073 70.7837C239.964 71.1583 240.765 71.7057 241.424 72.3915L242.47 77.5139C242.621 78.2558 243.037 78.9242 243.647 79.4047C244.257 79.8852 245.022 80.148 245.811 80.148L245.866 79.9454C246.116 79.0027 246.688 78.1667 247.489 77.5697C248.291 76.9726 249.278 76.6485 250.294 76.6487H250.485C251.696 76.6487 252.858 77.1094 253.714 77.9294C254.571 78.7494 255.052 79.8616 255.052 81.0213C255.052 82.181 254.571 83.2932 253.714 84.1132C252.858 84.9333 251.696 85.3939 250.485 85.3939H249.867L258.515 101.324Z" fill="#B4702F"/>
<path d="M233.108 89.3855C233.108 89.3855 238.728 89.5172 242.063 88.0583L233.108 95.1117V89.3855Z" fill="#56303C"/>
<path d="M237.892 79.8987C237.892 80.387 237.585 80.7841 237.204 80.7841C236.823 80.7841 236.514 80.3789 236.514 79.8987C236.514 79.4184 236.823 79.0132 237.204 79.0132C237.585 79.0132 237.892 79.4103 237.892 79.8987Z" fill="#56303C"/>
<path d="M230.996 79.8987C230.996 80.3323 230.723 80.6828 230.384 80.6828C230.046 80.6828 229.775 80.3323 229.775 79.8987C229.775 79.465 230.048 79.1145 230.384 79.1145C230.721 79.1145 230.996 79.465 230.996 79.8987Z" fill="#56303C"/>
<path d="M232.431 77.6233V81.613C232.431 81.8086 232.498 81.9988 232.622 82.1543C232.746 82.3099 232.92 82.4222 233.117 82.4741L233.557 82.5896" stroke="#56303C" stroke-width="4.13" stroke-miterlimit="10" stroke-linecap="round"/>
<path d="M232.74 84.7272C232.74 84.7272 234.857 84.9866 235.862 83.6675" stroke="#56303C" stroke-width="4.13" stroke-miterlimit="10" stroke-linecap="round"/>
<path d="M235.02 75.6436H238.118C238.582 75.6436 239.026 75.8199 239.354 76.1338C239.682 76.4476 239.866 76.8733 239.866 77.3172V77.6232H236.584C236.17 77.6232 235.773 77.4659 235.481 77.1858C235.188 76.9058 235.024 76.5259 235.024 76.1299V75.6436H235.02Z" fill="#D9AF00"/>
<path d="M232.865 77.6232H229.917C229.721 77.6232 229.526 77.5862 229.345 77.5143C229.164 77.4424 228.999 77.337 228.86 77.2042C228.721 77.0714 228.611 76.9137 228.536 76.7401C228.461 76.5665 228.422 76.3805 228.422 76.1927V75.6436H230.797C231.346 75.6436 231.872 75.8521 232.259 76.2234C232.647 76.5946 232.865 77.0982 232.865 77.6232Z" fill="#D9AF00"/>
<path d="M251.287 79.6738C251.287 79.6738 249.079 79.4874 248.908 81.7001" stroke="#56303C" stroke-width="4.13" stroke-miterlimit="10" stroke-linecap="round"/>
<path d="M250.999 81.696L249.767 80.2695" stroke="#56303C" stroke-width="4.13" stroke-miterlimit="10" stroke-linecap="round"/>
<path d="M245.236 109.687L245.765 112.307L243.375 110.145C238.397 105.638 230.639 102.445 223.527 102.143L233.108 96.593L239.703 101.274C242.582 103.317 244.556 106.319 245.236 109.687Z" fill="#A0D6FF"/>
<path d="M243.375 110.145C238.397 105.638 230.327 102.141 223.218 101.837" stroke="#56303C" stroke-width="4.13" stroke-miterlimit="10" stroke-linecap="round"/>
<path d="M245.839 109.677L245.536 112.311L247.926 110.149C252.903 105.643 259.333 102.892 266.159 102.35L273.038 102.297L259.137 97.5758C258.148 97.2404 257.084 97.1634 256.054 97.3529C255.024 97.5424 254.065 97.9914 253.276 98.6538L250.626 100.883C247.94 103.139 246.233 106.276 245.839 109.677Z" fill="#A0D6FF"/>
<path d="M247.926 110.145C252.903 105.638 259.333 102.888 266.159 102.345" stroke="#56303C" stroke-width="4.13" stroke-miterlimit="10" stroke-linecap="round"/>
<path d="M248.542 113.446C248.818 111.82 247.665 110.288 245.966 110.024C244.268 109.76 242.668 110.864 242.392 112.49C242.116 114.116 243.27 115.648 244.968 115.912C246.666 116.176 248.267 115.072 248.542 113.446Z" fill="#D9AF00"/>
<path d="M243.509 113.19C243.511 112.926 243.568 112.666 243.676 112.424C243.784 112.181 243.94 111.962 244.137 111.777C244.334 111.593 244.566 111.448 244.822 111.35C245.077 111.252 245.35 111.203 245.625 111.206" stroke="white" stroke-width="4.13" stroke-miterlimit="10" stroke-linecap="round"/>
<path d="M209.751 184.753L219.487 174.18C220.196 173.387 221.182 172.868 222.261 172.719C223.34 172.57 224.439 172.801 225.354 173.37L230.708 176.689C230.872 176.79 231.011 176.925 231.116 177.082C231.221 177.24 231.29 177.417 231.317 177.602C231.345 177.787 231.33 177.976 231.275 178.155C231.22 178.334 231.126 178.5 230.998 178.642L227.089 182.97L221.055 182.767L220.164 184.226C219.197 186.293 214.911 187.517 212.896 186.329L209.751 184.753Z" fill="#B4702F"/>
<path d="M228.202 181.997L221.739 179.44" stroke="#56303C" stroke-width="4.13" stroke-miterlimit="10" stroke-linecap="round"/>
<path d="M229.692 180.316L222.977 177.659" stroke="#56303C" stroke-width="4.13" stroke-miterlimit="10" stroke-linecap="round"/>
<path d="M231.121 178.733L223.908 175.88" stroke="#56303C" stroke-width="4.13" stroke-miterlimit="10" stroke-linecap="round"/>
</svg>
