<svg id="_ëîé_1" data-name="‘ëîé_1" xmlns="http://www.w3.org/2000/svg" xmlns:xlink="http://www.w3.org/1999/xlink" viewBox="0 0 2706.01 1894.21"><defs><style>.cls-1,.cls-11,.cls-14,.cls-15,.cls-16,.cls-17,.cls-19,.cls-4,.cls-6,.cls-8{fill:none;}.cls-2{fill:#ede0c4;}.cls-3{fill:#f5efd9;}.cls-14,.cls-4,.cls-6{stroke:#d9af00;}.cls-11,.cls-14,.cls-17,.cls-4,.cls-6,.cls-8{stroke-linecap:round;}.cls-11,.cls-14,.cls-15,.cls-16,.cls-17,.cls-19,.cls-4,.cls-6,.cls-8{stroke-miterlimit:10;}.cls-11,.cls-4{stroke-width:3.92px;}.cls-5{fill:#fff;}.cls-19,.cls-6{stroke-width:2.24px;}.cls-7{fill:#d9af00;}.cls-8{stroke:#56303c;}.cls-17,.cls-8{stroke-width:4.33px;}.cls-9{fill:#56303c;}.cls-10{fill:#ffafb1;}.cls-11,.cls-15,.cls-16,.cls-17{stroke:#fff;}.cls-12{fill:#b4702f;}.cls-13{fill:#a0d6ff;}.cls-14{stroke-width:3.07px;}.cls-15{stroke-width:2.44px;}.cls-16{stroke-width:2.55px;}.cls-18{clip-path:url(#clip-path);}.cls-19{stroke:#b4702f;}</style><clipPath id="clip-path"><polygon class="cls-1" points="1966.18 1461.07 1909.31 1501.35 1821.27 1345.84 1763.29 1509.71 1696.51 1497.89 1825.22 939.15 1869.91 1208.37 1966.18 1461.07"/></clipPath></defs><g id="PLANTS"><path class="cls-2" d="M2367.41,1586.49c0-173.82-125.79-314.73-280.94-314.73s-280.94,140.91-280.94,314.73Z"/><path class="cls-3" d="M1060.3,1541.4l-10.41,45.09H512.74l-10.4-45.09a75.53,75.53,0,0,1,73.6-92.51,23.62,23.62,0,0,0,20.51-35.48l-43-74.72a75.53,75.53,0,0,1,42.3-109.57l61.47-19.81a23.67,23.67,0,0,0,12.5-35.56L648,1140.87c-27.93-42.34-7-99.64,41.64-114l23.85-7a23.68,23.68,0,0,0,16.35-28l-12.07-52.21a66.79,66.79,0,0,1,62-81.77v-.07h3.11v.07a66.79,66.79,0,0,1,62,81.77l-12.06,52.21a23.67,23.67,0,0,0,16.35,28l23.84,7c48.66,14.39,69.58,71.69,41.64,114l-21.69,32.88a23.66,23.66,0,0,0,12.5,35.56l61.46,19.81a75.54,75.54,0,0,1,42.31,109.57l-43,74.72a23.62,23.62,0,0,0,20.52,35.48A75.53,75.53,0,0,1,1060.3,1541.4Z"/><path class="cls-2" d="M800.5,1586.49c0-107.54-88.65-194.73-198-194.73s-198,87.19-198,194.73Z"/><line class="cls-4" x1="820.54" y1="1420.34" x2="820.54" y2="1586.49"/><line class="cls-4" x1="848.54" y1="1477.79" x2="820.54" y2="1514.1"/><line class="cls-4" x1="820.54" y1="1586.49" x2="769.43" y2="1537.29"/><circle class="cls-5" cx="820.54" cy="1381.74" r="28"/><line class="cls-6" x1="820.54" y1="1353.74" x2="820.54" y2="1409.74"/><line class="cls-6" x1="792.54" y1="1381.74" x2="848.54" y2="1381.74"/><line class="cls-6" x1="800.74" y1="1361.94" x2="840.34" y2="1401.53"/><line class="cls-6" x1="800.74" y1="1401.53" x2="840.34" y2="1361.94"/><circle class="cls-5" cx="820.54" cy="1381.74" r="10.36"/><circle class="cls-7" cx="820.54" cy="1381.74" r="5.6"/><circle class="cls-5" cx="872.19" cy="1452.02" r="28" transform="translate(-741.38 1967.28) rotate(-76.72)"/><line class="cls-6" x1="872.19" y1="1424.02" x2="872.19" y2="1480.02"/><line class="cls-6" x1="844.19" y1="1452.02" x2="900.19" y2="1452.02"/><line class="cls-6" x1="852.39" y1="1432.22" x2="891.99" y2="1471.82"/><line class="cls-6" x1="852.39" y1="1471.82" x2="891.99" y2="1432.22"/><circle class="cls-5" cx="872.19" cy="1452.02" r="10.36"/><circle class="cls-7" cx="872.19" cy="1452.02" r="5.6"/><circle class="cls-5" cx="742.71" cy="1510.25" r="28" transform="translate(-897.78 1886.1) rotate(-76.72)"/><line class="cls-6" x1="742.71" y1="1482.25" x2="742.71" y2="1538.25"/><line class="cls-6" x1="714.71" y1="1510.25" x2="770.71" y2="1510.25"/><line class="cls-6" x1="722.91" y1="1490.45" x2="762.51" y2="1530.05"/><line class="cls-6" x1="722.91" y1="1530.05" x2="762.51" y2="1490.45"/><circle class="cls-5" cx="742.71" cy="1510.25" r="10.36"/><circle class="cls-7" cx="742.71" cy="1510.25" r="5.6"/><line class="cls-4" x1="2037.75" y1="1491.71" x2="2037.75" y2="1584.24"/><line class="cls-4" x1="2065.75" y1="1534.88" x2="2037.75" y2="1571.19"/><circle class="cls-5" cx="2037.75" cy="1453.1" r="28" transform="translate(155.34 3102.49) rotate(-76.72)"/><line class="cls-6" x1="2037.75" y1="1425.1" x2="2037.75" y2="1481.1"/><line class="cls-6" x1="2009.75" y1="1453.1" x2="2065.75" y2="1453.1"/><line class="cls-6" x1="2017.95" y1="1433.31" x2="2057.55" y2="1472.9"/><line class="cls-6" x1="2017.95" y1="1472.9" x2="2057.55" y2="1433.31"/><circle class="cls-5" cx="2037.75" cy="1453.1" r="10.36"/><circle class="cls-7" cx="2037.75" cy="1453.1" r="5.6"/><circle class="cls-5" cx="2089.4" cy="1509.11" r="28" transform="translate(-455.13 1919.44) rotate(-45)"/><line class="cls-6" x1="2089.4" y1="1481.1" x2="2089.4" y2="1537.11"/><line class="cls-6" x1="2061.4" y1="1509.11" x2="2117.4" y2="1509.11"/><line class="cls-6" x1="2069.6" y1="1489.31" x2="2109.2" y2="1528.9"/><line class="cls-6" x1="2069.6" y1="1528.9" x2="2109.2" y2="1489.31"/><circle class="cls-5" cx="2089.4" cy="1509.11" r="10.36"/><circle class="cls-7" cx="2089.4" cy="1509.11" r="5.6"/><path class="cls-3" d="M2315.62,1586.49H2076.11c0-26.39,31.94-47.78,71.34-47.78a98,98,0,0,1,38.05,7.36,71.34,71.34,0,0,1,130.12,40.42Z"/></g><g id="OLD_WOMAN" data-name="OLD WOMAN"><g id="WHEEL_CHAIR" data-name="WHEEL CHAIR"><path class="cls-7" d="M1543.26,909.92h-68.07a7.44,7.44,0,0,1-7.45-7.44h0a7.45,7.45,0,0,1,7.45-7.45h68.07a7.45,7.45,0,0,1,7.44,7.45h0A7.44,7.44,0,0,1,1543.26,909.92Z"/><path class="cls-8" d="M1549.17,895h-81.43a44.83,44.83,0,0,0-43.14,32.64l-67.36,232.13A180.43,180.43,0,0,1,1184,1289.94"/><ellipse class="cls-8" cx="1340.88" cy="1356.35" rx="201.72" ry="230.14"/><path class="cls-9" d="M1326.68,1289.94h-51.89L1424,924.27h145.91l-65.16,230.89A185,185,0,0,1,1326.68,1289.94Z"/></g><g id="OLD_WOMAN-2" data-name="OLD WOMAN"><g id="DRESS"><path class="cls-10" d="M1222,1391.76V1356.2a66.25,66.25,0,0,1,66.25-66.26h38.6c127.7,0,217-126.33,174.35-246.7l-46.71-131.88a102.23,102.23,0,0,0-96.36-68.1h0a102.24,102.24,0,0,0-84,43.91L1201.33,992a55.12,55.12,0,0,0,10.05,73.85l9.41,7.82h-31.3A151.31,151.31,0,0,0,1038.18,1225v132.87Z"/><path class="cls-5" d="M1349.75,846.7l54.35,5.9s-11.15,45.64-35.65,54.51c-19.2,6.95-39,.55-44.21-14-.11-.33-.22-.66-.32-1a20.72,20.72,0,0,1-33-16.67c0-11.44,16.95-20.71,28.4-20.71Z"/><path class="cls-11" d="M1251.85,1020.86a55.1,55.1,0,0,0,19.85,45l9.41,7.82"/><line class="cls-8" x1="1220.79" y1="1073.66" x2="1244.57" y2="1073.66"/><line class="cls-8" x1="1359.46" y1="1066.99" x2="1427.08" y2="1022.83"/><line class="cls-8" x1="1411.43" y1="1013.47" x2="1410.58" y2="1031.82"/><line class="cls-8" x1="1323" y1="895.03" x2="1302.43" y2="930.63"/><path class="cls-8" d="M1502.47,1041.12a45.4,45.4,0,0,1-42.79,60.56h-63.49"/></g><g id="LEGS"><path class="cls-12" d="M1222,1391.76v74.16a23,23,0,0,1-25.47,22.87l-158.32-17.57V1357.84Z"/><path class="cls-13" d="M1104.7,1478.74,987.51,1465.5l.07-2.34c0-8.87,4.49-15.22,12-19.93l38.63-24.2S1086.35,1426,1104.7,1478.74Z"/><path class="cls-13" d="M1182.36,1487.26l-117.07-13.78v-1.89a20.33,20.33,0,0,1,9.54-17.24l41.16-25.8S1164,1434.47,1182.36,1487.26Z"/><path class="cls-8" d="M1065.29,1473.48v-1.89a20.33,20.33,0,0,1,9.54-17.24l41.16-25.8"/><line class="cls-8" x1="1115.99" y1="1428.55" x2="1099.14" y2="1308.77"/></g><g id="HANDS"><path class="cls-12" d="M1416.76,1098.5H1382a17,17,0,0,0-16.73,14.11l-.57,3.32a6.45,6.45,0,0,1-8.49,5l-29.68-10.37a10,10,0,0,1-6.66-10.31l.66-5.66a18.19,18.19,0,0,1,9.35-13.9l28-15.3S1417.51,1063.7,1416.76,1098.5Z"/><line class="cls-8" x1="1331.73" y1="1092.49" x2="1329.73" y2="1110.57"/><line class="cls-8" x1="1342.05" y1="1095.66" x2="1340.05" y2="1113.75"/><line class="cls-8" x1="1352.37" y1="1098.84" x2="1350.37" y2="1116.92"/><rect class="cls-12" x="1124.43" y="1014.53" width="56.4" height="54.09" rx="23.11"/><line class="cls-8" x1="1130.52" y1="1029.41" x2="1146.64" y2="1029.41"/><line class="cls-8" x1="1130.52" y1="1042.11" x2="1151.41" y2="1042.11"/><line class="cls-8" x1="1130.52" y1="1054.81" x2="1146.64" y2="1054.81"/></g><g id="FLOWERS"><line class="cls-14" x1="1137.29" y1="1006.95" x2="1114.22" y2="935.83"/><line class="cls-8" x1="1148.49" y1="1023.03" x2="1148.11" y2="969.1"/><path class="cls-7" d="M1156.86,918.69c.14,5.64-9.85,14.45-9.85,14.45s-10.44-8.29-10.58-13.93a10.22,10.22,0,0,1,20.43-.52Z"/><path class="cls-7" d="M1137.29,953c-.14-5.64,9.85-14.44,9.85-14.44s10.44,8.28,10.58,13.92a10.22,10.22,0,1,1-20.43.52Z"/><path class="cls-7" d="M1130.84,926c5.64-.15,14.45,9.85,14.45,9.85s-8.29,10.43-13.93,10.57a10.21,10.21,0,1,1-.52-20.42Z"/><path class="cls-7" d="M1163.31,945.64c-5.64.14-14.45-9.85-14.45-9.85s8.29-10.43,13.93-10.58a10.22,10.22,0,0,1,.52,20.43Z"/><path class="cls-9" d="M1153.19,935.68a6.12,6.12,0,1,1-6.27-6A6.12,6.12,0,0,1,1153.19,935.68Z"/><path class="cls-7" d="M1122.46,884.88c-.16,5.64-10.63,13.88-10.63,13.88s-10-8.84-9.79-14.48a10.21,10.21,0,1,1,20.42.6Z"/><path class="cls-7" d="M1101,918c.17-5.64,10.63-13.88,10.63-13.88s10,8.84,9.8,14.49A10.22,10.22,0,1,1,1101,918Z"/><path class="cls-7" d="M1096.08,890.77c5.64.17,13.88,10.63,13.88,10.63s-8.84,10-14.48,9.8a10.22,10.22,0,0,1,.6-20.43Z"/><path class="cls-7" d="M1127.42,912.14c-5.64-.17-13.88-10.63-13.88-10.63s8.85-10,14.49-9.8a10.22,10.22,0,1,1-.61,20.43Z"/><circle class="cls-9" cx="1111.75" cy="901.46" r="6.37" transform="translate(-167.63 1543.17) rotate(-65.67)"/><path class="cls-9" d="M1185.23,855.57c-.33,5.13-10.14,12.29-10.14,12.29s-8.77-8.38-8.44-13.51a9.31,9.31,0,1,1,18.58,1.22Z"/><path class="cls-9" d="M1164.63,885.06c.34-5.13,10.14-12.29,10.14-12.29s8.78,8.38,8.44,13.51a9.31,9.31,0,0,1-18.58-1.22Z"/><path class="cls-9" d="M1161,860.07c5.13.34,12.28,10.14,12.28,10.14s-8.38,8.78-13.51,8.44a9.31,9.31,0,1,1,1.23-18.58Z"/><path class="cls-9" d="M1188.85,880.56c-5.13-.34-12.29-10.14-12.29-10.14s8.38-8.77,13.51-8.44a9.31,9.31,0,1,1-1.22,18.58Z"/><path class="cls-7" d="M1180.73,870.7a5.81,5.81,0,1,1-5.42-6.18A5.81,5.81,0,0,1,1180.73,870.7Z"/><path class="cls-13" d="M1104.57,946.46a2.17,2.17,0,0,1-2.17,2.16H1098v4.46a2.17,2.17,0,0,1-4.33,0v-4.46h-4.46a2.17,2.17,0,0,1,0-4.33h4.46v-4.45a2.17,2.17,0,1,1,4.33,0v4.45h4.45A2.17,2.17,0,0,1,1104.57,946.46Z"/><path class="cls-13" d="M1143,860.46a2.17,2.17,0,0,1-2.16,2.17h-4.46v4.45a2.17,2.17,0,0,1-4.33,0v-4.45h-4.45a2.17,2.17,0,0,1,0-4.33H1132v-4.46a2.17,2.17,0,0,1,4.33,0v4.46h4.46A2.16,2.16,0,0,1,1143,860.46Z"/><path class="cls-13" d="M1200.66,901.93a2.17,2.17,0,0,1-2.17,2.16H1194v4.46a2.17,2.17,0,0,1-4.33,0v-4.46h-4.45a2.17,2.17,0,1,1,0-4.33h4.45v-4.45a2.17,2.17,0,1,1,4.33,0v4.45h4.45A2.17,2.17,0,0,1,1200.66,901.93Z"/><line class="cls-14" x1="1172.6" y1="901.16" x2="1169.6" y2="918.59"/><line class="cls-14" x1="1164.74" y1="954.52" x2="1156.28" y2="1008.19"/></g><g id="HEAD"><g id="HEAD-2" data-name="HEAD"><path class="cls-12" d="M1324.59,895l-43.8-39.92a40,40,0,0,1-4.65-54.07l37.8-48.71L1400,849.58a2.45,2.45,0,0,1-2.06,4h0a73.6,73.6,0,0,0-69.87,35.55Z"/><circle class="cls-9" cx="1312.42" cy="808.72" r="3.92" transform="translate(223.81 1900.23) rotate(-76.72)"/><circle class="cls-9" cx="1282.14" cy="808.72" r="3.36"/><path class="cls-8" d="M1300.1,838.08s9,2,12.88-5.61"/><path class="cls-8" d="M1295.17,830.86a8.49,8.49,0,0,1-1.72-16.78,2.2,2.2,0,0,0,1.72-2.18v-8.14"/><path class="cls-2" d="M1324.71,802.29c-.77,1.6-4.9,1.19-9.23-.9s-7.21-5.09-6.44-6.68,4.9-1.19,9.23.91S1325.48,800.7,1324.71,802.29Z"/><path class="cls-2" d="M1290.53,794.83c.4,1.7-3,4-7.66,5.07s-8.72.63-9.13-1.07,3-4,7.66-5.07S1290.12,793.14,1290.53,794.83Z"/></g><g id="HAIR"><path class="cls-2" d="M1435.3,834.5c-1,.09-2,.12-3,.13a43.23,43.23,0,0,1-36.16,19.23c-23.73,0-43-18.74-43-41.87a41,41,0,0,1,2-12.65,45.14,45.14,0,0,1-10.24,1.16c-22.27,0-40.36-15.92-40.68-35.65l-20.92,27A38.16,38.16,0,1,1,1298,716.93a38.16,38.16,0,0,1,62-25.67,39.51,39.51,0,0,1,57.7,12.43,40.34,40.34,0,0,1,39.18,58.13,40.61,40.61,0,0,1-21.58,72.68Z"/><path class="cls-11" d="M1408.27,812a14.44,14.44,0,0,1-3.51-20.11"/><path class="cls-11" d="M1328.43,767.28c-8.69-3.67-12.37-14.6-8.22-24.42"/><path class="cls-11" d="M1318.84,756.77a14.43,14.43,0,0,1-19.53-5.9"/></g></g></g><g id="WHEEL_CHAIR-2" data-name="WHEEL CHAIR"><path class="cls-7" d="M1687.71,909.92h-68.07a7.44,7.44,0,0,1-7.44-7.44h0a7.45,7.45,0,0,1,7.44-7.45h68.07a7.46,7.46,0,0,1,7.45,7.45h0A7.45,7.45,0,0,1,1687.71,909.92Z"/><rect class="cls-9" x="979.54" y="1478.51" width="245.81" height="10.64" transform="translate(173.52 -114.37) rotate(6.44)"/><ellipse class="cls-8" cx="1469.46" cy="1356.35" rx="201.72" ry="230.14"/><path class="cls-8" d="M1565.45,1128.43c35.06,16.92,65.06,44.83,86.67,79.94"/><path class="cls-8" d="M1693.62,895H1612.2a44.82,44.82,0,0,0-43.14,32.64l-67.37,232.13a180.42,180.42,0,0,1-173.28,130.14h-53.62"/><circle class="cls-8" cx="1470.67" cy="1355.39" r="16.45"/><path class="cls-9" d="M1495.2,1117.51H1377.45a9.5,9.5,0,0,1-9.5-9.5h0a9.5,9.5,0,0,1,9.5-9.51H1495.2a9.5,9.5,0,0,1,9.5,9.51h0A9.5,9.5,0,0,1,1495.2,1117.51Z"/></g><g id="BUTTERFLY"><ellipse class="cls-10" cx="1068.7" cy="779.55" rx="21.43" ry="15.22" transform="translate(245.64 1815.12) rotate(-87.63)"/><ellipse class="cls-10" cx="1042.97" cy="802.74" rx="9.86" ry="14.54" transform="translate(35.02 1649.03) rotate(-77.6)"/><ellipse class="cls-9" cx="1066.04" cy="811.75" rx="13.6" ry="4.34" transform="translate(-254.89 586.98) rotate(-27.63)"/><path class="cls-9" d="M1083.67,804.79a3.12,3.12,0,1,1,1.07-4.07A3,3,0,0,1,1083.67,804.79Z"/></g></g><g id="YOUNG_WOMAN" data-name="YOUNG WOMAN"><g id="HEAD-3" data-name="HEAD"><path id="HAIR-2" data-name="HAIR" class="cls-9" d="M1890.92,509.76,1749.7,568.63l24-131.55h-8.85a7.65,7.65,0,0,1-7.57-8.73l2-13.9a38.31,38.31,0,0,1,37.92-32.88h49.29a43.2,43.2,0,0,1,43.19,42.83Z"/><g id="HEAD-4" data-name="HEAD"><path class="cls-10" d="M1887.18,511.22l-38.83,15.19a11.81,11.81,0,0,0-7.51,11.28l.92,40.23H1820l-8.75-55.21-5.24-33h0c-10.21.7-23.5-8-22.51-18.17l1.56-39.93h67l-6.29,46.81A30.75,30.75,0,0,0,1887.18,511.22Z"/><path class="cls-8" d="M1802.57,428.53l-3.35,24.21a5.56,5.56,0,0,0,5.55,6"/><circle class="cls-9" cx="1818.17" cy="443.59" r="3.36"/><ellipse class="cls-9" cx="1789.6" cy="443.59" rx="2.52" ry="3.08"/><path class="cls-8" d="M1803,466.57c2.49,0,7.88,0,12-4.7"/><ellipse class="cls-15" cx="1785.74" cy="443.06" rx="9.52" ry="11.49"/><ellipse class="cls-16" cx="1819.07" cy="443.06" rx="11.2" ry="11.76"/><path class="cls-9" d="M1828.51,482.29s-12.17,7.42-24.35,7.42l4.43,16.13Z"/></g><g id="HAT"><ellipse class="cls-7" cx="1848.7" cy="402.96" rx="37.03" ry="72.78" transform="translate(518.62 1748.67) rotate(-57.63)"/><path class="cls-11" d="M1850.81,388.85a5.09,5.09,0,0,1,8.61,5.45"/></g></g><g id="COAT"><path class="cls-13" d="M2041.64,1208.37H1767.71l-15.6-18.45a136.58,136.58,0,0,1-31.37-103.64l25.57-223.93-48.87,28.58-32-29,89-70.76,4.29-37.48-24.53-28.88-34,57.09L1544.39,886l-37.64-30.49,143.81-121.79,64.25-140.42a50.89,50.89,0,0,1,30.7-27.28l47.84-15.41a17.55,17.55,0,0,0,12.18-16.71V529.7a7.12,7.12,0,0,1,5.74-7l8.75,55.21h21.74l-.92-40.23a11.81,11.81,0,0,1,7.51-11.28l48.15-18.83a7.82,7.82,0,0,1,10.49,5.59l5,22.39,37,22.91a44,44,0,0,1,18.89,50.28L1921.7,759.23a54,54,0,0,0,1.52,36Z"/><path class="cls-8" d="M1747,654.29l-9.82,54.05a35.48,35.48,0,0,0,7.87,29.31l13.65,16.08"/><line class="cls-17" x1="1809.37" y1="829.89" x2="1872.98" y2="1208.37"/><path class="cls-17" d="M1841.76,577.92h-45.39a24.82,24.82,0,0,0-24.56,28.44l26.13,150.25"/><polyline class="cls-8" points="1776.22 773.88 1826.71 733.73 1864.4 624.97"/><path class="cls-8" d="M1921.8,699.42l-39.88,76.35a55.34,55.34,0,0,1-21.06,22.09L1757.8,862"/><polyline class="cls-17" points="1848.7 532.77 1869.37 553.39 1915.17 532.38"/><line class="cls-8" x1="1767.54" y1="630.32" x2="1780.73" y2="630.32"/><line class="cls-8" x1="1775.47" y1="679.53" x2="1788.66" y2="679.53"/></g><g id="LEGS-2" data-name="LEGS"><g id="LEG"><path class="cls-12" d="M1993.74,1533.4l-32.41,53.09h-56a2.63,2.63,0,0,1-.69-5.17l3.86-1a31.73,31.73,0,0,0,19.32-46.26l-4.13-7.28,51.86-41.11Z"/><polygon class="cls-10" points="1975.54 1485.62 1923.68 1526.73 1909.31 1501.35 1966.18 1461.07 1975.54 1485.62"/><line class="cls-8" x1="1923.68" y1="1526.73" x2="1975.54" y2="1486.22"/><line class="cls-8" x1="1928.45" y1="1542.6" x2="1940.22" y2="1533.41"/><line class="cls-8" x1="1931.62" y1="1552.13" x2="1943.39" y2="1542.93"/><polyline class="cls-8" points="1903.73 1586.49 1961.33 1586.49 1993.74 1533.4"/></g><g id="LEG-2" data-name="LEG"><path class="cls-12" d="M1691.39,1520.12l64.61,10.2-19.87,56.17-105.61-11.81a3.12,3.12,0,0,1-.06-6.19l21.93-2.85a42.64,42.64,0,0,0,36.13-33.07Z"/><polygon class="cls-10" points="1763.29 1509.71 1756 1530.32 1691.39 1520.12 1696.51 1497.89 1763.29 1509.71"/><line class="cls-8" x1="1690.95" y1="1521.64" x2="1755.47" y2="1531.82"/><line class="cls-8" x1="1686.18" y1="1534.34" x2="1703.34" y2="1537.05"/><line class="cls-8" x1="1683.01" y1="1543.86" x2="1700.17" y2="1546.57"/><line class="cls-8" x1="1736.13" y1="1586.49" x2="1628.93" y2="1574.67"/></g><g id="PANTS"><polygon id="LEGS-3" data-name="LEGS" class="cls-7" points="1966.18 1461.07 1909.32 1501.35 1821.27 1345.85 1763.29 1509.72 1696.51 1497.89 1825.22 939.15 1869.91 1208.38 1966.18 1461.07"/><g id="PATTERN"><g class="cls-18"><line class="cls-19" x1="1733.92" y1="1503.09" x2="1733.92" y2="1330.01"/><line class="cls-19" x1="1764.26" y1="1509.23" x2="1764.26" y2="1208.81"/><line class="cls-19" x1="1794.61" y1="1421.78" x2="1794.61" y2="1056.94"/><line class="cls-19" x1="1824.96" y1="1342.01" x2="1824.96" y2="944.95"/><line class="cls-19" x1="1869.78" y1="1208.31" x2="1765.05" y2="1208.31"/><line class="cls-19" x1="1865.18" y1="1177.96" x2="1771.18" y2="1177.96"/><line class="cls-19" x1="1859.04" y1="1147.61" x2="1777.32" y2="1147.61"/><line class="cls-19" x1="1855.98" y1="1117.27" x2="1783.46" y2="1117.27"/><line class="cls-19" x1="1852.91" y1="1086.92" x2="1791.13" y2="1086.92"/><line class="cls-19" x1="1846.77" y1="1056.57" x2="1797.26" y2="1056.57"/><line class="cls-19" x1="1840.63" y1="1026.22" x2="1803.4" y2="1026.22"/><line class="cls-19" x1="1836.03" y1="995.88" x2="1812.78" y2="995.88"/><line class="cls-19" x1="1829.9" y1="965.53" x2="1818.74" y2="965.53"/><line class="cls-19" x1="1783.97" y1="1451.27" x2="1707.25" y2="1451.27"/><line class="cls-19" x1="1961.83" y1="1451.27" x2="1880.96" y2="1451.27"/><line class="cls-19" x1="1773.12" y1="1481.93" x2="1700.17" y2="1481.93"/><line class="cls-19" x1="1937.51" y1="1481.93" x2="1898.32" y2="1481.93"/><line class="cls-19" x1="1794.61" y1="1420.92" x2="1714.42" y2="1420.92"/><line class="cls-19" x1="1951.09" y1="1420.92" x2="1863.55" y2="1420.92"/><line class="cls-19" x1="1805.44" y1="1390.57" x2="1720.56" y2="1390.57"/><line class="cls-19" x1="1940.35" y1="1390.57" x2="1846.59" y2="1390.57"/><line class="cls-19" x1="1816.18" y1="1360.22" x2="1726.69" y2="1360.22"/><line class="cls-19" x1="1929.61" y1="1360.22" x2="1829.41" y2="1360.22"/><line class="cls-19" x1="1917.34" y1="1329.88" x2="1732.83" y2="1329.88"/><line class="cls-19" x1="1905.07" y1="1299.53" x2="1740.5" y2="1299.53"/><line class="cls-19" x1="1892.79" y1="1269.18" x2="1749.7" y2="1269.18"/><line class="cls-19" x1="1880.52" y1="1238.84" x2="1756.02" y2="1238.84"/><line class="cls-19" x1="1947.3" y1="1475.48" x2="1947.3" y2="1420.52"/><line class="cls-19" x1="1856.68" y1="1412.58" x2="1856.68" y2="1116.77"/><line class="cls-19" x1="1887.03" y1="1466.27" x2="1887.03" y2="1245.63"/><line class="cls-19" x1="1917.37" y1="1495.42" x2="1917.37" y2="1330.01"/></g></g><g id="SHADOWS"><line class="cls-8" x1="1691.59" y1="1497.02" x2="1767.89" y2="1510.53"/><line class="cls-8" x1="1967.24" y1="1460.32" x2="1907.51" y2="1502.63"/><polygon class="cls-9" points="1821.27 1345.84 1869.91 1208.37 1873.01 1216.5 1842.22 1382.85 1821.27 1345.84"/></g></g></g><g id="HANDS-2" data-name="HANDS"><path class="cls-10" d="M1635.75,916.33a8.13,8.13,0,0,1-8.12-8.13V901a17.76,17.76,0,0,1,6.72-13.92L1665.94,862l27.84,25.2L1679,895c-4.1,2.17-6.66,4.84-6.66,9.48v1.07a4.36,4.36,0,0,0,4.36,4.36h8.9l-4.23,4.26a7.25,7.25,0,0,1-5.14,2.15Z"/><path class="cls-10" d="M1535.69,878.28l-13.55,14.81h-48.33a41.11,41.11,0,0,1,8.6-12.86l24.34-24.71Z"/><path class="cls-10" d="M1517.94,914.17h-34.45a6.61,6.61,0,0,1-3.8-1.14l-4.46-3.15H1478c2.8,0,5.25-1.48,6-3.6l.37-1.09c1-3.12,4.63-5.29,8.75-5.29h31.6c3.32,0,5.74,2.45,4.91,5l-1,2.87C1527.34,911.52,1523,914.17,1517.94,914.17Z"/><line class="cls-8" x1="1521.15" y1="901.75" x2="1515.73" y2="912.38"/><line class="cls-8" x1="1510.03" y1="901.75" x2="1504.61" y2="912.38"/><line class="cls-8" x1="1498.92" y1="901.75" x2="1493.5" y2="912.38"/></g></g><g id="SUN_CLOUDS" data-name="SUN &amp; CLOUDS"><circle class="cls-3" cx="1091.79" cy="472.54" r="136.55"/><path class="cls-13" d="M1104.87,528.15H736.45c0-28.44,33.56-51.5,75-51.5A105.16,105.16,0,0,1,838,480a74.14,74.14,0,0,1,58.44-28.74c35.48,0,65.2,25.29,73,59.25,13.64-8.35,35.64-14.95,60.46-14.95C1071.31,495.56,1104.87,513.93,1104.87,528.15Z"/><path class="cls-13" d="M1625,407.53H1322c0-39.4,28.52-71.34,63.71-71.34,20.08,0,38,10.4,49.66,26.66a82.56,82.56,0,0,1,22.64-3.1c25.71,0,47.87,11.42,57.93,27.87,11.55-6,27.61-10.33,45.36-10.33C1596.5,377.29,1625,394.33,1625,407.53Z"/></g></svg>